<svg version="1.1"
	 xmlns="http://www.w3.org/2000/svg" xmlns:xlink="http://www.w3.org/1999/xlink" 
	 x="0px" y="0px" width="571px" height="286px" viewBox="0 0 571 286" overflow="visible" enable-background="new 0 0 571 286"
	 xml:space="preserve">
<defs>
</defs>
<rect x="76.977" y="65.164" width="27.061" height="27.056"/>
<rect x="477.854" y="67.631" width="27.058" height="27.047"/>
<path d="M46.397,230.229c4.346,4.627,7.08,10.795,7.08,17.735c0,6.938-2.734,13.179-7.08,17.734
	c-4.137,4.557-10.305,7.501-16.754,7.501c-6.728,0-12.898-2.944-17.175-7.501c-4.345-4.556-6.938-10.796-6.938-17.734
	c0-6.94,2.593-13.108,6.938-17.735c4.277-4.626,10.447-7.501,17.175-7.501C36.092,222.728,42.26,225.603,46.397,230.229
	 M45.485,247.964c0-4.767-1.893-9.184-4.767-12.268c-2.944-3.154-6.868-4.977-11.075-4.977c-4.486,0-8.412,1.822-11.355,4.977
	c-2.946,3.084-4.768,7.501-4.768,12.268s1.822,9.183,4.768,12.197c2.943,3.154,6.869,5.047,11.355,5.047
	c4.207,0,8.131-1.893,11.075-5.047C43.592,257.146,45.485,252.73,45.485,247.964"/>
<path d="M82.646,282.593v-26.778v-0.07v-13.879c0-2.033,1.682-3.716,3.715-3.716c1.963,0,3.574,1.332,3.854,2.874
	c2.595-1.682,5.958-2.874,9.534-2.874c9.324,0,16.963,7.99,16.963,17.595c0,9.604-7.639,17.385-16.963,17.385
	c-3.505,0-6.869-1.052-9.392-2.874v12.338c0,1.963-1.754,3.785-3.996,3.785C84.327,286.378,82.646,284.556,82.646,282.593
	 M90.356,255.744c0,2.734,0.91,5.398,2.732,7.011c1.754,1.962,4.067,2.943,6.66,2.943c2.383,0,4.766-0.981,6.59-2.943
	c1.612-1.612,2.734-4.276,2.734-7.011c0-2.733-1.122-5.257-2.734-7.079c-1.824-1.894-4.207-2.874-6.59-2.874
	c-2.593,0-4.906,0.98-6.66,2.874C91.267,250.487,90.356,253.011,90.356,255.744"/>
<path d="M141.883,255.675c0.071-9.534,7.5-17.525,17.105-17.525c9.112,0,16.333,6.8,16.893,16.264v0.351c0,0.14,0,0.49-0.071,0.631
	c-0.21,1.682-1.681,2.804-3.643,2.804h-22.293c0.351,1.612,1.123,3.435,2.384,4.626c1.471,1.683,4.276,2.944,6.73,3.155
	c2.522,0.21,5.538-0.421,7.29-1.753c1.473-1.542,4.346-1.332,5.258-0.21c0.911,0.981,1.611,3.084,0,4.556
	c-3.436,3.155-7.573,4.627-12.548,4.627C149.383,273.129,141.955,265.208,141.883,255.675 M149.524,252.239h19.839
	c-0.702-2.804-4.276-6.939-10.375-7.43C153.03,245.09,150.085,249.365,149.524,252.239"/>
<path d="M232.386,252.73v16.754c0,2.032-1.611,3.715-3.645,3.715c-1.961,0-3.714-1.683-3.714-3.715V252.73
	c0-3.926-3.295-7.08-7.291-7.08c-3.926,0-7.01,3.154-7.01,7.08v16.754c0,0.21,0,0.42-0.141,0.7
	c-0.349,1.683-1.892,3.015-3.715,3.015c-2.101,0-3.713-1.683-3.713-3.715V252.73v-10.865c0-2.033,1.612-3.716,3.713-3.716
	c1.473,0,2.805,0.842,3.436,2.174c2.103-1.332,4.696-2.174,7.43-2.174C225.868,238.149,232.386,244.81,232.386,252.73"/>
<path d="M260.851,247.964c0.07-13.88,11.706-25.166,25.727-25.236c6.169,0,11.777,2.033,16.193,5.468
	c1.682,1.402,1.963,3.855,0.701,5.608c-1.402,1.752-3.996,2.033-5.607,0.771c-3.085-2.524-6.941-3.855-11.287-3.855
	c-4.835,0-9.323,1.962-12.618,5.047c-3.154,3.225-5.117,7.431-5.117,12.197s1.963,9.112,5.117,12.197
	c3.295,3.084,7.782,5.047,12.618,5.047c4.346,0,8.131-1.332,11.287-3.855c1.611-1.191,4.205-0.911,5.607,0.771
	c1.262,1.752,0.98,4.275-0.701,5.607c-4.416,3.435-10.024,5.468-16.193,5.468C272.557,273.199,260.92,261.913,260.851,247.964"/>
	
<path 
	d="M354.019,241.865c0,1.963-1.612,3.715-3.715,3.715c-1.613,0-3.015,0.421-4.207,1.332c-1.332,0.841-2.383,2.033-3.224,3.365c-1.684,2.243-2.524,4.906-2.875,5.888v13.319c0,2.032-1.75,3.715-3.854,3.715c-2.033,0-3.715-1.683-3.715-3.715v-27.619c0-2.033,1.682-3.646,3.715-3.646c2.104,0,3.854,1.613,3.854,3.646v0.49c0.421-0.49,0.981-1.051,1.472-1.401c2.314-1.543,5.328-2.805,8.834-2.735C352.406,238.219,354.019,239.832,354.019,241.865"
/>

<path d="M407.227,255.744v13.74c0,2.032-1.683,3.715-3.714,3.715c-1.824,0-3.225-1.332-3.646-3.015
	c-2.664,1.893-5.818,3.015-9.323,3.015c-4.766,0-8.902-1.963-11.916-5.117c-3.014-3.225-4.767-7.57-4.767-12.338
	c0-4.836,1.753-9.183,4.767-12.337c3.014-3.225,7.15-5.258,11.916-5.258c3.505,0,6.659,1.192,9.323,3.085
	c0.422-1.753,1.822-3.085,3.646-3.085c2.031,0,3.714,1.683,3.714,3.786V255.744z M399.796,255.744c0-2.943-1.051-5.467-2.732-7.22
	c-1.684-1.893-4.066-2.874-6.521-2.874c-2.522,0-4.905,0.981-6.519,2.874c-1.683,1.753-2.664,4.276-2.664,7.22
	c0,2.874,0.981,5.398,2.664,7.221c1.613,1.752,3.996,2.733,6.519,2.733c2.454,0,4.837-0.981,6.521-2.733
	C398.745,261.143,399.796,258.618,399.796,255.744"/>
<path d="M448.59,235.837v0.981h2.104c2.103,0,3.854,1.682,3.854,3.854c0,2.104-1.752,3.855-3.854,3.855h-2.104v24.746
	c0,2.103-1.683,3.854-3.854,3.854c-2.174,0-3.855-1.752-3.855-3.854v-24.746h-1.823c-2.173,0-3.925-1.752-3.925-3.855
	c0-2.173,1.752-3.854,3.925-3.854h1.823v-0.981c0-2.594,0.28-4.837,1.331-6.87c0.982-2.103,2.943-3.715,5.047-4.346
	c1.402-0.421,2.734-0.562,4.206-0.562c2.104,0,3.854,1.753,3.854,3.855c0,2.174-1.751,3.926-3.854,3.926
	c-0.911,0-1.541,0.07-1.823,0.21c-0.28,0.07-0.35,0.141-0.419,0.211C449.151,232.262,448.59,233.243,448.59,235.837"/>
<path d="M494.368,242.005c0,2.104-1.822,3.855-3.925,3.855h-1.753v19.558c2.174,0,3.855,1.753,3.855,3.926s-1.682,3.855-3.855,3.855
	c-4.275,0-7.78-3.505-7.78-7.781V245.86h-2.033c-2.173,0-3.854-1.751-3.854-3.855c0-2.173,1.682-3.854,3.854-3.854h2.033v-10.165
	c0-2.173,1.753-3.855,3.925-3.855c2.173,0,3.855,1.683,3.855,3.855v10.165h1.753C492.546,238.15,494.368,239.832,494.368,242.005"/>
<path d="M554.919,266.754c0,2.449-1.988,4.441-4.451,4.441h-23.084c-2.453,0-4.44-1.992-4.44-4.441s1.987-4.441,4.44-4.441h23.084C552.931,262.312,554.919,264.305,554.919,266.754"/>
<path d="M403.338,0v63.936H167.241V0H0v162.31h167.241V78.691h236.097v83.618h167.235V0H403.338z M152.485,147.554H14.756V14.756h137.729V147.554z M555.817,147.554H418.094V14.756h137.724V147.554z"/>
<path d="M240.433,126.174c11.104,16.314,27.653,29.83,48.293,29.614c19.965-0.208,35.668-14.958,43.875-32.072c3.534-7.37-7.449-13.835-11-6.43c-6.18,12.885-16.641,24.641-31.759,25.717c-16.26,1.157-29.824-10.647-38.409-23.259
	C246.84,112.998,235.795,119.362,240.433,126.174"/>
</svg>
