<svg version="1.1"
	 xmlns="http://www.w3.org/2000/svg" xmlns:xlink="http://www.w3.org/1999/xlink"
	 x="0px" y="0px" width="116px" height="77px" viewBox="0 0 116 77" overflow="visible" enable-background="new 0 0 116 77"
	 xml:space="preserve">

<path d="M93.922,76.594H22.426C10.06,76.594,0,66.534,0,54.169c0-8.917,5.166-16.843,13.244-20.46
	c0.669-11.748,10.51-21.146,22.384-21.146c3.469,0,6.889,0.806,9.98,2.343C50.796,5.673,60.431,0,71.11,0
	c16.135,0,29.261,13.126,29.261,29.26c0,1.122-0.065,2.252-0.195,3.375c9.45,2.75,16.173,11.591,16.172,21.534
	C116.348,66.534,106.287,76.594,93.922,76.594z M35.628,15.563c-10.573,0-19.284,8.602-19.419,19.174l-0.013,1.004l-0.934,0.371
	C7.813,39.07,3,46.158,3,54.169c0,10.711,8.714,19.425,19.426,19.425h71.496c10.712,0,19.426-8.714,19.426-19.425
	c0.001-9.015-6.379-16.984-15.169-18.951l-1.381-0.309l0.228-1.396c0.229-1.408,0.346-2.838,0.346-4.253
	C97.371,14.78,85.591,3,71.11,3C61.059,3,52.039,8.599,47.57,17.612l-0.715,1.443l-1.389-0.817
	C42.489,16.488,39.087,15.563,35.628,15.563z"/>
<path 
	d="M52.56,60.566c-0.397,0-0.779-0.157-1.061-0.439L36.871,45.498c-0.586-0.586-0.586-1.535,0-2.121s1.535-0.586,2.121,0l13.469,13.47L78.896,25.28c0.532-0.635,1.479-0.719,2.113-0.187c0.636,0.532,0.719,1.478,0.188,2.113L53.709,60.029c-0.27,0.323-0.664,0.518-1.084,0.536C52.604,60.566,52.582,60.566,52.56,60.566z"/>
</svg>
