<svg xmlns="http://www.w3.org/2000/svg" viewBox="0 0 900 585"><path d="M247.6 179l10.2 70h-.8l-10.2-70z"/><path d="M247.5 178.7L295 215l-.6.5-47.3-36z"/><path d="M294.4 214.8l.3.7-84 36-.3-.6z"/><path d="M212 175.5h.7l-1.7 75.7h-.8z"/><path d="M212 175.2l.4.6-50.8 44.2-.5-.6z"/><path d="M161.6 219.4l49.2 31.5-.5.6-49-31.6z"/><path d="M247 178.8l.6.4-36.7 72.2-.8-.4zM253 250.4l.2.7-29.3 11.3-.4-.7z"/><path d="M238.5 228.8l.8.3-15.3 33-.7-.2z"/><path d="M270 170.8l.8.4-31.5 58-.7-.5zM211.5 135.4v.8l-100 5.7v-1z"/><path d="M111.6 141.2l47.6 36.4-.5.6-47.5-36.5z"/><path d="M78.2 164.7l80.8 12.8-.2.8-80.8-13z"/><path d="M82.7 145.3l.8.2-5 19.7-.8-.2z"/><path d="M82.8 145.3l.7.3L52 208l-.6-.3z"/><path d="M75.8 130.6l.8.3-24.8 76.3-.8-.3z"/><path d="M76.6 130.7l6.6 57.3h-.8L75.8 131z"/><path d="M78.5 165l4.6 23-.7.2-4.6-23z"/><path d="M78 164.7v.8l-43.6 2.3v-.8z"/><path d="M48.2 127.8h.8l-.6 55.6h-.8zM173.5 153.7l.8.2-12.4 65.7h-1z"/><path d="M113.4 205.5l48 13.8v.8L113 206.4z"/><path d="M78.4 165l35 40.6-.5.5-35.2-40.6zM161.2 219.4l.6.6-22 22-.6-.5z"/><path d="M139.7 241.5l42 27-.5.6-42-27z"/><path d="M181.4 268.4l.3.7-32.5 17-.4-.6z"/><path d="M139.2 249.6l10 36-.7.4-10-36.2zM174.6 247.2v.8l-36 1.4v-.8z"/><path d="M174.8 247l49 14.5v.8L174.4 248z"/><path d="M208.7 197.3l15.3 64.5-.8.2-15.2-64.5zM206 269.6l.5.6-40 29.7-.4-.7z"/><path d="M174.3 247.5h.8l-8.3 52h-.8z"/><path d="M166.6 299.3l29.5 26.3-.5.6L166 300zM206.4 269.6l34.4 12.3-.2.7-34.5-12.4z"/><path d="M238.6 228.7l.7.5-32.7 41-.6-.6zM257.6 248.7l24.5 3.6v.8l-24.5-3.5z"/><path d="M273 221.3l.6.4-15.7 27.5-.8-.4z"/><path d="M273 221.3l.5.5-55 61.6-.6-.6z"/><path d="M218 282.7l.3.8-52 16.4v-1zM132.7 117.2l66.6 93-.7.4-66.5-93zM176.2 311.5l56.4 24-.3.8-56.4-24zM256.3 362l15 51-.8.3-15-51z"/><path d="M319 376.8l.4.5-48.2 36.2-.5-.6z"/><path d="M263.7 352l55.7 24.7-.4.7-55.6-24.7z"/><path d="M263.8 352.2l37.5 59.5-.6.5-37.6-59.6z"/><path d="M300.7 411.8l.8.3-20.2 41-.7-.3z"/><path d="M312.2 430.2l.5.7-31.6 22-.3-.5z"/><path d="M318.8 377l.8.2-6.8 53.5h-.8z"/><path d="M319 376.7l.3.8L255 394v-1z"/><path d="M255 393l64.7 18-.2 1-64.6-18.2z"/><path d="M319.2 411.4l.8.2-7.5 37.2-.8-.2z"/><path d="M312 448.3l.2.8-31.3 4.2-.2-.8z"/><path d="M280.6 452.5l.6.5-22 27.8-.6-.5z"/><path d="M299.6 462.5l.3.6-41 17.8-.2-.6z"/><path d="M299.5 462.6l.6.5-37 38-.7-.5z"/><path d="M270.6 413l.8.2-8.4 87.5h-.8zM289 456.7l.7.3-29 63.4-.6-.4zM442 230.4v.8L264 260v-.8zM453.6 244.3l.4.7-39 27.4-.6-.7z"/><path d="M442.2 230.5l12 14-.7.5-12-14zM304 117.5l6.8 50.7h-.8l-6.8-50.6zM470.5 151l56.5 4.8v.8l-56.5-4.8z"/><path d="M494 128l33.3 28-.6.5-33-28z"/><path d="M494.3 128l16.8 62.4-.7.2-16.8-62.4z"/><path d="M488.2 174.5l22.7 15.7-.6.6-22.7-15.6zM486.5 169.8l.3.7-37 19-.3-.6zM528.6 210.2l.3.8-75 34-.3-.7z"/><path d="M528.4 210.5l.7.3-17.4 35-.7-.2z"/><path d="M519.3 182.4h.8l-8.3 63.4h-.8z"/><path d="M572.8 175.7v.8l-53 6.4-.2-1z"/><path d="M563 146l10 30-.6.2-10.2-29.8z"/><path d="M562.3 146l.8.3-16.4 74.7-.7-.2zM546.6 221l.3 42h-1l-.2-42z"/><path d="M546.5 262.7l57.2.2v.7l-57.2-.2z"/><path d="M554.3 247l49.5 16-.2.7-49.6-16z"/><path d="M554.4 247.2l44.2 62.7-.6.4-44.2-62.7z"/><path d="M544.7 289l53.7 20.8-.3.7-53.6-20.7z"/><path d="M544.2 289.4h.7l-2.7 45h-.7z"/><path d="M580.7 318l.3.8-39 16-.2-1z"/><path d="M581 318v1l-48.4 1.3v-.8z"/><path d="M525 286.3l8 33.4-1 .2-7.6-33.5z"/><path d="M524.7 286l.3.8-15.4 7.7-.3-.6z"/><path d="M509 294l.8.3-27.4 68.8-.8-.2z"/><path d="M472.2 304.6l10.2 58.4h-.7l-10.2-58.3z"/><path d="M471.4 304.4l.8.3-16.6 47-.8-.2z"/><path d="M436.4 303.7l19.2 47.7-.8.3-19-47.7z"/><path d="M435.6 304h.8v56.5h-.8z"/><path d="M405 354l31 6-.2.8-31-6.2z"/><path d="M468.8 288.2l.6.6-64 65.7-.6-.6z"/><path d="M469.4 288.4l41 52.8-.7.4-41-52.8z"/><path d="M509.6 341l.6.6-40.6 52.3-.7-.6z"/><path d="M526.2 376.4l.2.7-57 17-.3-.7z"/><path d="M541.6 334.2l.8.3-15.7 42.4-.7-.4zM404 305.4l51.7 25.5-.4.6-51.7-25.5z"/><path d="M420.6 285.8l35.2 45.2-.7.5-35-45.2z"/><path d="M420.5 285.7l56.6 34.7-.3.7-56.6-34.6z"/><path d="M476.6 320.5l.7.3-13 43.2-.7-.2z"/><path d="M530.7 351.4l.2.8-67 12v-.8z"/><path d="M530.5 351.8h.8l-12.8 55.5-.8-.2z"/><path d="M477.2 320.5l41.2 86.5-.7.3-41.2-86.5z"/><path d="M476.5 320.6h.8l-4.2 93.2h-.7z"/><path d="M473 413.5l26.5 20.8-.5.7-26.6-21z"/><path d="M498.8 434.6h.8l-.4 26h-.8z"/><path d="M532.3 389.4l.7.4-33.8 71-.7-.3zM691.7 112.3l.2.7-129.2 33.7-.2-.7z"/><path d="M691.4 112.4l.7.3L638 214l-.7-.4z"/><path d="M573 175.7l64.8 37.8-.4.6-64.8-37.7z"/><path d="M573 175.7l79 79.4-.5.6-79-79.3z"/><path d="M651.7 255l.4.8-47 30.7-.3-.7z"/><path d="M578.7 228.7L605 286l-.6.2L578 229z"/><path d="M578.5 228.5L697.7 241v1l-119.3-12.7z"/><path d="M697.3 241.2l.6.5-82.7 85.4-.6-.5z"/><path d="M651.5 255.2l.6.3-36.8 71.4-.6-.4z"/><path d="M652 255l66.6 13.8-.2.7-66.6-13.7z"/><path d="M718.2 269l.8.3-27 75.7-.7-.3z"/><path d="M692 344.8l2 43.2h-1l-1.8-43.2zM692 112.4l61 66.3-.6.6-61-66.4z"/><path d="M839.7 146.2l.3.7-87.2 32.4-.3-.8z"/><path d="M839.5 146.4l.7.3-24 59.4-1-.2z"/><path d="M827 138.8l.7.2-11.8 67h-.8z"/><path d="M650.4 137l177 1.6v.8l-177-1.7z"/><path d="M650.8 137l38.8 85.8-.7.4-39-85.8z"/><path d="M689.3 222.6l57.3 2v.8l-57.3-2z"/><path d="M746 225h1l-5 23.4-.8-.2z"/><path d="M741.6 248v.7l-89.6 7v-.7z"/><path d="M661.3 188.5h.8l-9.7 67h-.8z"/><path d="M774 117l.3.5L662 189l-.5-.7z"/><path d="M774.5 117.2l10 111.4h-.8l-10-111.4z"/><path d="M827 138.7l.7.3-43.3 89.7-.7-.3z"/><path d="M827.3 138.4v.8l-264.7 7.6v-.8z"/><path d="M563 146l41 128-.7.2-41-127.8zM674.2 219l1.7.4-.3.8-1.7-.4z"/><g><path d="M304 117.5l10.4 34-1 .3-10.3-34z"/><path d="M269.2 78.4l34.8 38.8-.7.7-35-39zM304 117.2l42 41.6-.6.7-42-41.6z"/><path d="M314 151l32 7.6-.3 1-32-7.6zM303.6 117l79.3 12-.2 1-79.3-12z"/><path d="M382.6 129.2l.7.8-37.3 29.5-.6-.8z"/><path d="M382.7 129l.3 1-69 22-.2-1z"/><path d="M313.4 151.5l1 .2-3.4 16.5-1-.2z"/><path d="M310.8 168l10.3 18-.8.4-10.2-18z"/><path d="M345.4 158.7l.7.7-25 27-.7-.6z"/><path d="M345.6 158.6l.3 1-35.4 9-.2-1z"/><path d="M345.7 158.6l34.6.4v1l-34.6-.4z"/><path d="M380.8 159.5l3 9-1 .4-3-9.2z"/><path d="M392.3 161l.6 1-9.2 7-.6-.8z"/><path d="M392.3 156.3l.8 5-1 .3-.7-5z"/><path d="M391.7 155.8l.2 1-11.5 3.2-.3-1z"/><path d="M380.3 159l12.3 2-.2 1-12.2-2z"/><path d="M390.6 156.5l1 .6-7.8 12-.8-.6zM211.2 135.4l.4 1L174 154l-.4-1z"/><path d="M132.8 117l41.4 36.4-.7.8-41.4-36.4z"/><path d="M173.4 153.6l1 .5-15 24.2-1-.5z"/><path d="M129.2 162l30 15.5-.4 1-30-15.8z"/><path d="M173.7 153.3l.2 1-45 8.5-.2-1z"/><path d="M132 117.4h1l-3.7 45h-1z"/><path d="M132 117l.8.8-21 24-.8-.7z"/><path d="M111.7 141l17.5 21-.7.6-17.5-20.8z"/><path d="M111.5 141l62.5 12.3-.2 1-62.5-12.4z"/><path d="M132.8 117.2l26.6 60.5-1 .4-26.5-60.4zM111.3 141v1l-28 3.8-.3-1z"/><path d="M76.6 130.6l7 14.6-1 .5-7-14.7z"/><path d="M76.4 130.3l35.2 10.7-.3 1L76 131.2z"/><path d="M48.6 127.2l27.7 3v1l-27.8-3zM83.3 145l45.7 17-.3.8-45.8-17z"/><path d="M48.2 127.4l.7.7-16.7 16.5-.7-.7z"/><path d="M32 143.5l51.2 1.4v1L32 144.4z"/><path d="M48.7 127.3L83.3 145l-.5.8-34.5-17.6zM32.5 144l2.4 23.3h-1l-2.5-23z"/><path d="M34.8 167l13.6 16-.8.7-13.6-16z"/><path d="M48.4 183.2l3.8 24.6-1 .2-3.8-24.6z"/><path d="M75.8 130.5l1 .5-28.4 52.6-1-.5z"/><path d="M83 145l.3.8-48.8 22-.4-1z"/><path d="M49 127.4l29.5 37.3-.8.7L48 128z"/><path d="M77.6 165l1 .2-5.5 19.5-.8-.3z"/><path d="M48 182.8l24.6 1.2v1L48 183.8z"/><path d="M77.8 164.6l.5 1-30 18-.6-.7z"/><path d="M128.8 161.8v1L78 165.6v-1z"/><path d="M82.6 145.4h1l-.4 42.7h-1z"/><path d="M72.8 184l10 3.6-.3 1-10-3.6z"/><path d="M72.3 184.2l.7.6-20.8 23.4-.8-.7z"/><path d="M32.4 144l19.8 63.8-1 .3-19.7-63.7z"/><path d="M32.2 143.7l46 21-.3 1-46.3-21z"/><path d="M111 141l.6.8-33.3 23.7-.5-.8z"/><path d="M76.5 130.3l52.6 31.5-.4 1L76 131z"/><path d="M32 143.6l97 18.2-.2 1-97-18.2z"/><path d="M32.3 143.7L73 184l-.8.8-40.6-40.4zM83 187.7l30.5 17.8-.5.8-30.5-17.7z"/><path d="M128.4 162.2l1 .3-15.6 43.5-1-.3z"/><path d="M83.6 145l30 60.5-.8.5-30-60.4z"/><path d="M78.3 164.6l61.6 31.7-.6.8L78 165.6z"/><path d="M158.6 177.6l.7.8L140 197l-.8-.6z"/><path d="M158.7 177.5l.5.8-45.6 28-.5-1zM139.2 196.3l.8.6-15.2 20.8-.8-.6z"/><path d="M124.5 217l37 2.2-.2 1-37-2.2z"/><path d="M113.6 205.5l11.2 11.7-.7.7-11-11.8zM140 196.4l21.8 23-.7.7-21.8-23z"/><path d="M212 175l.4 1-72.6 21-.3-.8z"/><path d="M211.7 175.5h1l-3.8 22-1-.3z"/><path d="M174 153.4l38.5 21.8-.5.8-38.4-21.7z"/><path d="M212.2 175v1l-53.2 2.5v-1z"/><path d="M159 177.5l49.5 19.4-.3 1-49.5-19.5z"/><path d="M208 197l.8.6-9.4 13-.8-.6z"/><path d="M174.3 153.6l25 56.6-.8.4-25-56.6zM212 136l.7 39.6h-1L211 136z"/><path d="M212.2 175l35 3.5v1l-35-3.4z"/><path d="M246.8 179h1l-8.4 50h-1z"/><path d="M208.7 197l30.5 31.6-.7.7-30.5-31.6zM270.2 170.5l.3 1-23 8-.4-1z"/><path d="M270 171h1l-1 28.6h-1z"/><path d="M247.6 178.6l22.2 20.6-.7.7-22-20.6zM269.8 199.2l25 15.6-.5.8-25-15.6z"/><path d="M294.4 214.7l.3 1-21.4 6.3-.2-1zM273 221l.3 1-34.3 7.5-.2-1z"/><path d="M269.2 199.2l.7.8-30.8 29.3-.7-.7z"/><path d="M247.6 178.7l26 42.5-1 .5-25.8-42.5z"/><path d="M270 199.5l3.7 22h-1l-3.7-21.8zM270.8 170.8l24.2 44-1 .5-24-44zM128.4 162.3h1l-4.4 55.3h-1zM161.2 219.3l.5.8-24 16.2-.5-.8z"/><path d="M125 217.2l13 18.3-1 .6-13-18.2z"/><path d="M199 209.8v1l-74.4 7.2v-1z"/><path d="M198.8 210l.3.8-37.5 9.3-.2-.8z"/><path d="M159.4 178l2.5 41.7h-1l-2.6-41.7zM138 235.6l2 6-1 .4-2-6z"/><path d="M139 241.8h1l-1 7.2h-1zM139 249l.6 25.3h-1L138 249z"/><path d="M139.5 274l9.8 11.5-.7.7-10-11.5z"/><path d="M149 285.3l15.5 1.8v1l-15.6-1.7z"/><path d="M165 287.5l1.8 12h-1l-2-11.8z"/><path d="M149.2 285.4l17.3 13.7-.6 1-17.4-13.8z"/><path d="M166.7 299.3l9.8 12.3-.7.6-10-12.3z"/><path d="M176.5 311.4l19.7 14-.6 1L176 312z"/><path d="M197 298.8h1l-1.7 27h-1z"/><path d="M204.7 296.8l.2 1-7.5 1.5-.2-1z"/><path d="M204.4 297.2l1 .3-9 28.5-1-.4z"/><path d="M237.6 295.2v1l-32.7 1.6-.2-1z"/><path d="M238 295.6l4 12.5-1 .4-4-12.5z"/><path d="M241.2 282.2l1 26h-1l-1-26z"/><path d="M249 271.3l1 .6-9 10.5-.7-.6z"/><path d="M254 266.7l.6.7-4.7 4.5-.8-.8z"/><path d="M257 265l.5 1-3 1.5-.6-1z"/><path d="M263.7 259l.6 1-6.7 6-.7-.8zM282 252l.3 1-18 7-.4-1z"/><path d="M270.6 239.8l11.8 12.5-.7.7-11.8-12.5z"/><path d="M270 239.7l.6 1-12.8 8.8-.6-.8z"/><path d="M294.2 214.8l.7.7-24.4 25-.7-.8z"/><path d="M272.7 221.4l1 .2-3 18.5h-1zM320.3 185.8l.7.7-26 29-.8-.7zM393 161.2l37.7 43-.7.6-37.8-43zM174.4 247l.4 1-20.3 9-.4-1z"/><path d="M175 247.4l7 21.3-1 .3-7-21.3z"/><path d="M165.8 264.3l15.8 4-.2 1-16-4z"/><path d="M166 264.4l11.8 17.8-.8.6-11.7-17.8z"/><path d="M206 269.4l.5 1-29 12.5-.3-1z"/><path d="M210 251l1 .3L207 270l-1-.3z"/><path d="M183.5 231l27.3 19.8-.6.8L183 232z"/><path d="M183.7 231.3l23 38.3-1 .5-23-38.2zM210.8 250.8l13.2 10.8-.7.7-13-10.7z"/><path d="M234 259l.2 1-10.4 2.4-.2-1z"/><path d="M252.8 250.2l.4 1-19 8.7-.4-1z"/><path d="M239.3 228.7l14 21.8-.8.5-14-21.7z"/><path d="M239.3 228.6l18.6 20-1 .8-18.5-20z"/><path d="M257.3 248.6l.4 1-4.5 1.7-.4-1z"/><path d="M253.4 250.3l11 8.8-.6 1-11-9z"/><path d="M269.8 240l1 .2-6.3 19.4-1-.3z"/><path d="M258 248.8l6.4 10.5-.8.5-6.6-10.5zM273 221l.6.8-39.2 38-.7-.7z"/><path d="M234.4 259l15.5 12.2-.7.7-15.5-12z"/><path d="M234.2 259l20.2 7.6-.4 1-20-7.6zM253.5 250.6l4.2 14.8-1 .3-4.2-14.8z"/><path d="M234.2 259l23 6v1l-23.2-6z"/><path d="M234.5 259.3L241 282l-1 .4-6.5-22.8z"/><path d="M223.8 261.5l26 9.7-.5 1-25.8-9.8z"/><path d="M223.8 261.5l30.5 5-.2 1-30.4-5z"/><path d="M223.2 261.8l1 .3-5.6 21.3-1-.3z"/><path d="M218 282.6l.3 1-17 6-.5-1z"/><path d="M205.8 269.7l1 .3-5.2 19.2-1-.3z"/><path d="M206.6 269.5l12 13.3-.8.7-12-13.3zM238.5 228.5l.7.8-28.4 22.2-.6-.7z"/><path d="M199.4 210.2L211 251l-1 .2-11.5-40.8z"/><path d="M239 228.5v1l-55.7 2.5v-1z"/><path d="M238.4 229h1l-4.8 30.6-1-.2z"/><path d="M210.7 250.8L234 259l-.2 1-23.5-8.3zM198.5 210l.8.7-15.7 21.2-.8-.7z"/><path d="M161.6 219.2l22 12-.5.8-21.8-12z"/><path d="M162 219.5l13 27.8-1 .4-13-27.8z"/><path d="M182.8 231.3l1 .4-8.8 16-1-.4z"/><path d="M174.6 247l36 3.7-.2 1-36-3.6z"/><path d="M273 221l.4 1-62.6 29.7-.4-1z"/><path d="M209 197.3l2 54h-1l-2-54zM223.5 261.5l.4 1-17.6 8-.4-1z"/><path d="M224 261.7l17 20.3-.7.6-17-20.3z"/><path d="M240.6 281.7v1l-22.5 1v-1z"/><path d="M218.4 282.7l19.4 12.6-.5.8-19.4-12.5z"/><path d="M217.8 282.8l.7.7-13.3 14.2-.8-.7z"/><path d="M201.5 289l3.8 8-1 .5-3.7-8.2z"/><path d="M200.5 289l1 .3-3.7 9.7-1-.3z"/><path d="M177.7 282.2l20 16.3-.6.8-20-16.4z"/><path d="M177.5 282l23.7 6.6-.3 1L177 283z"/><path d="M181.8 268.5l19.6 20.3-.7.7-19.6-20.3z"/><path d="M181.5 268.3l24.8 1v1l-24.8-1z"/><path d="M175 247l31.5 22.5-.5.8-31.7-22.3zM233.6 259.2l.8.6-16 23.6-.7-.5zM240.2 282l1 .3-3.2 13.5-1-.2zM177.2 282l.4 1-13 5-.3-1z"/><path d="M177 282.2l.8.5-11 17-1-.4z"/><path d="M197.4 298.3v1l-31 .7v-1z"/><path d="M197 298.5l.7.8-21.3 13-.5-1z"/><path d="M177 282.5h1l-1.3 29.4h-1z"/><path d="M181 268.6l1 .3-4.2 13.6-1-.3z"/><path d="M210.3 250.8l.5.8-29 17.6-.6-.8zM140 241.4l14.6 15-.7.6-15-14.8z"/><path d="M138 235.5l16.7 21-.8.5-17-21z"/><path d="M183 231l.4 1-43.8 10.3-.3-1z"/><path d="M161 219.5l1 .2-7.3 37-1-.2z"/><path d="M138.7 248.5l15.7 7.7-.4 1-15.7-7.8z"/><path d="M153.8 256.4l.8.6-15 17.8-1-.7z"/><path d="M153.7 256.6h1l-5.2 29.3-1-.3z"/><path d="M165.5 264.2l.3 1-26.6 9.6-.3-1z"/><path d="M139 248.7l25.8 38.6-.8.6-26-38.7z"/><path d="M165 264.7h1l-1 23h-1z"/><path d="M154.4 256.2l11.5 8-.7 1-11.4-8z"/><path d="M174 247.3l1 .4-9 17.2-.8-.5z"/><path d="M139.5 241.3l35.2 5.8-.2 1-35-5.7z"/><path d="M138 235.4l36.7 11.7-.3 1-36.6-11.7zM200.7 288.8l.7.7-24.7 22.2-.7-.8zM196 325.4l17.8 13-.6 1-17.7-13.2z"/><path d="M232.4 335.4v1l-18.7 3-.2-1z"/><path d="M196 325.4l36.5 10-.2 1-36.7-10zM213.8 338.5l21 11-.5 1-21-11z"/><path d="M233 335.8l2 14.2h-1l-2-14z"/><path d="M234.7 349.6l18.3 8.7-.4 1-18.3-8.8zM218.5 282.8l23.4 25-.8.8-23.4-25zM263.6 259.2l.8.6L238 296l-.8-.6zM199.2 210l40 18.5-.5 1-40-18.7z"/><path d="M139.7 196.2L199 210l-.2.8-59.3-13.7z"/><path d="M211 135.6l.8.5-50 84-1-.6zM129.3 162.2l25.4 94.3-1 .3-25.3-94.4zM133 117.4l7.2 79-1 .2-7.3-79.2z"/><path d="M128.6 162l.5.8-46 25.7-.5-1z"/><path d="M129.3 162l54.4 69.2-.8.6-54.5-69.2z"/><path d="M161.6 219.2l77.4 9.2v1l-77.6-9.3zM124.6 217l86 33.8-.3 1-86-33.8zM83.4 145l56.6 51.3-.7.7-56.5-51.3z"/><path d="M158.8 177.4l.2 1-76.2 10v-1z"/><path d="M112 141.4l1.8 64.4h-1l-2-64.3zM212 175l.4 1-87.8 42-.4-1zM263.3 352l.5.8-10.7 6.4-.4-1z"/><path d="M274 347.7l.3 1-10.6 4-.4-.8z"/><path d="M274.3 347.7l21.2 9-.4 1-21-9z"/><path d="M295.4 356.7l6.3 2.4-.4 1-6.3-2.3z"/><path d="M301.6 359l8 1.3v1l-8-1.2z"/><path d="M309.6 360.3v1l-53.6 1.3v-1z"/><path d="M255.7 361.6l.5 1-5.7 3-.5-.8z"/><path d="M249.8 365l1 .4-4.2 9-1-.3z"/><path d="M245.8 374l.7.6-3.2 3.8-.8-.6z"/><path d="M243.3 378l1 14.4h-1l-1-14.2z"/><path d="M244 392l11 1v1l-11-1zM255 393l26.2.6v1l-26-.7z"/><path d="M291.3 380.5l.8.6-10.5 13.5-.8-.7zM311.3 371.8l.4 1L292 381l-.5-1z"/><path d="M310 360.7l2 11.4-1 .3-2-11.5z"/><path d="M311.8 371.8l7.7 5-.6.7-7.8-4.8z"/><path d="M310 360.5l9.6 16.3-.8.5L309 361z"/><path d="M309.2 360.4l.7.7-18 20-.7-.6z"/><path d="M256.2 361.6l35.8 18.8-.4.8-35.8-18.7z"/><path d="M255.5 362h1l-1 31.5h-1z"/><path d="M291.6 380.3l.3 1-36.8 12.6-.3-1z"/><path d="M246.2 374l45.6 6.3-.2 1L246 375z"/><path d="M246.6 374.2l9 19-1 .5-9-19z"/><path d="M250.7 365.2l5 28.2h-1l-5-28z"/><path d="M250.4 364.7l41.5 15.6-.5 1-41.5-15.6z"/><path d="M294.8 357.2h1L292 381h-1z"/><path d="M263.5 352l31.8 4.7-.2 1-31.6-5z"/><path d="M263.2 352l.8.6-7.8 10-.7-.5z"/><path d="M253.2 358.5l3 3.6-.8.8-3-3.7z"/><path d="M295.2 356.7v1l-42.3 1.5-.2-1z"/><path d="M295.6 356.8l16.2 15-.7.8-16-15z"/><path d="M302 359.2l10 12.7-1 .6-10-12.8z"/><path d="M301 359.4l1 .4-10 21.2-.8-.4z"/><path d="M264 352l28 28.4-.7.7-28.2-28.3z"/><path d="M264 352.2l17.6 41.7-1 .3-17.5-41.7z"/><path d="M246.4 374l35 19.7-.5 1-35-20z"/><path d="M294.7 357l.3 1-48.7 16.8-.4-1z"/><path d="M295 357l.6.6-40.2 36.2-.7-.7z"/><path d="M243.2 377.8l12.2 15.3-.7.7-12.2-15.2z"/><path d="M254.7 393.2l.8.5-5.8 9.7-1-.5z"/><path d="M249.6 403l3.4 4-.8.5-3.4-4z"/><path d="M252.8 406.7l18.4 6-.4 1-18.3-6z"/><path d="M280.7 394l1 .4-10.3 19-.8-.4z"/><path d="M281 393.7l.3 1-28.4 13-.5-1z"/><path d="M243.3 378l9.8 29-.8.4-10-29zM244.3 392.2l5.4 10.8-1 .4-5.3-10.8z"/><path d="M244.3 392l27 20.8-.6.8-27-20.8z"/><path d="M255.5 393l16 20-1 .5-15.8-19.8z"/><path d="M255.3 393l46 18.5-.4 1-46-18.6z"/><path d="M301 411.4v1l-30 1.3v-1z"/><path d="M271.3 413l7.6 6.6-.7.7-7.7-6.7z"/><path d="M280.6 394l1 .2-2.4 25.8h-1zM319.5 376.7l14 8.8-.4.8-14-8.7z"/><path d="M333 385.5l.6.8-32.2 26-.7-.7z"/><path d="M292 380.6l9.5 31-1 .4-9.3-31z"/><path d="M319 376.6l.2 1-27.4 3.7v-1z"/><path d="M319.4 376.6l30.8 9.6-.3 1-31-9.7z"/><path d="M350.5 386.6l1 5.7-1 .2-1-5.7z"/><path d="M350.7 392.2l.8.6-8 12.4-1-.5z"/><path d="M342.6 404.5l.8.6-13.4 17.5-.8-.6z"/><path d="M330 422l2 7.3-1 .3-1.8-7.3z"/><path d="M320 411.2l12 18-1 .6-11.8-18z"/><path d="M320 411.3l4.3 20.4-1 .2-4.2-20.5z"/><path d="M312.5 430l11.4 1.3-.2 1-11.4-1.2z"/><path d="M312.3 430l.3 1-15.3 4.8-.3-1z"/><path d="M297.4 435l15 13.3-.7.7-15-13.4z"/><path d="M312 448.2l.3 1-23 8-.2-.8z"/><path d="M289.6 456.5l5.4 5.7-.8.7-5.3-5.8z"/><path d="M294.7 462l5 .3v1l-5-.2z"/><path d="M278.3 434.3l22 28.2-1 .6-21.8-28z"/><path d="M271.5 413l7 21.5-1 .3-7-21.4z"/><path d="M270.4 413.2h1l-6.7 45.2h-1z"/><path d="M277.5 434.4l1 .5-13.7 23.6-1-.5z"/><path d="M278.2 420h1l-.8 14.6h-1z"/><path d="M279 419.5l18.5 15.4-.7.7-18.4-15.4z"/><path d="M300.6 412h1l-4 23.4-1-.2z"/><path d="M301.5 411.7l11.4 18.6-1 .5-11.3-18.6z"/><path d="M319 411.8l1 .3-7 18.7-1-.3zM333 385.6l.8.5-13.7 25.7-.8-.4z"/><path d="M319.7 377l.4 34.4h-1l-.3-34.3z"/><path d="M318.7 376.8l1 .5-18.2 35-1-.6z"/><path d="M281.5 393.7l20 18-.7.6-20-17.8z"/><path d="M333.2 385.3v1l-52 8.3-.2-1zM333.3 385.4l16.7 1v1l-16.7-1z"/><path d="M349.7 386.3l.6.8L320 412l-.7-.7z"/><path d="M343 404.4l.2 1-23.4 6.5-.3-1z"/><path d="M333.7 385.6l9.8 19-1 .5-9.6-19z"/><path d="M333.5 385.3l17.8 6.7-.3 1-17.8-6.7z"/><path d="M351 392v1l-70 1.6v-1z"/><path d="M319 376.7l.4 1-38 17-.4-1z"/><path d="M319.7 377l10.4 45-1 .4-10.3-45.2z"/><path d="M329.4 421.8l.5 1-17.3 8.2-.5-1z"/><path d="M312 372.2l1 58.3h-1l-1-58.2z"/><path d="M311 372l1 .5-33 47.7-.7-.6z"/><path d="M279 419.4l33.7 10.6-.3 1-33.8-10.6z"/><path d="M350.8 392.2l.7.7-38.7 38-.7-.8z"/><path d="M351 392l.2 1-49.7 19-.3-1z"/><path d="M301.4 411h18.2v1h-18.2z"/><path d="M319.3 411.2l.7.7-22.5 23.7-.7-.7zM312 430.5h1l-.3 18.2h-1z"/><path d="M278 434.2l34.3 14-.4 1-34.3-14z"/><path d="M300.7 411.7l.7.7-23.2 22.7-.7-.6z"/><path d="M278.4 434.6l3 18-1 .3-3-18.3z"/><path d="M280.5 452.5l.7.7-20 22.2-.7-.7z"/><path d="M272.2 473.5v1l-11.2 1v-1z"/><path d="M272 473.6l.5 1-13.3 6.4-.4-1z"/><path d="M259 480l5 1.2-.4 1-4.8-1.2z"/><path d="M264 481.3l14.4 7.4-.5.8-14.5-7.3z"/><path d="M288.8 456.7l1 .3-11.2 32-1-.2zM280.8 452.3l.3 1-16.5 5.5-.3-1z"/><path d="M296.7 435l.8.6-16.2 17.5-.7-.6z"/><path d="M296.5 435.3h1l-2.5 27.4h-1z"/><path d="M311.8 448.4l.6.8L295 463l-.7-.8z"/><path d="M311.7 448.4l.7.6-12.3 14.2-.7-.7zM281.2 452.3l8.3 4-.5 1-8.2-4z"/><path d="M323.4 431.6l.8.5-11.6 17-1-.6z"/><path d="M331.4 429l.3 1-7.8 2.3-.4-1z"/><path d="M342.6 404.7l1 .4-11.6 24.7-1-.4zM264.7 458.2l8 15.7-1 .3-8-15.7z"/><path d="M289 456.4l.6.7-17 17.3-.7-.7zM299.5 462.5l.7.7-21.6 26.2-.8-.7z"/><path d="M294.2 462.3l.8.5-16.4 26.5-1-.5z"/><path d="M294.4 462l.4 1-22.3 11.4-.5-1z"/><path d="M272.7 473.8l6 15-1 .3-6-15z"/><path d="M280.5 452.7l1 .4-8.8 21.3-1-.4zM263.8 458.3l1 .2-3.4 16.7-1-.2zM260.4 475l1 .3-2 5.4-1-.3z"/><path d="M272 473.6l.6.8-8.5 7.7-.6-.7zM277.8 488.7l.8.6-5.3 8-1-.5z"/><path d="M278 488.6l.3 1-17.4 7.3-.5-1z"/><path d="M259.4 480.5l1.7 16h-1l-1.6-16z"/><path d="M259.3 480.2l13.8 16.5-.6.7-14-16.6z"/><path d="M272.6 496.7l.4 1-10.2 3.5-.4-1z"/><path d="M263 500.6l6.5 17.3-1 .3-6.4-17.3zM269.5 518l2.2 13.8-1 .2-2-13.8z"/><path d="M260.8 520l10.7 11.7-.7.6-10.7-11.7z"/><path d="M260 496.4h1v23.8h-1z"/><path d="M261 496.2l2 4.3-1 .4-2-4.4zM263 500.6l8.7 31.2-1 .3-8.6-31zM272.3 497l1 .2-3.8 21-1-.2z"/><path d="M272.3 497l1 .4-12.4 23-1-.4z"/><path d="M269 517.5l.2 1-8.6 2.2-.2-1z"/><path d="M262 500.7h1l-2 19.6h-1z"/><path d="M271.8 473.8l1 .3L263 501l-1-.3zM263.3 481.5l1 .3-3.2 14.7-1-.2zM409.4 358l.4 1-59.6 28.2-.4-1z"/><path d="M405.3 354l4.6 4-.8 1-4.6-4.4z"/><path d="M404 350l1.4 4-1 .3-1.2-4z"/><path d="M416.6 342l.5 1-13 7.7-.6-.8z"/><path d="M409.5 331.6l7.8 10.6-.8.6-7.8-10.6z"/><path d="M409 331.4l.3 1-15 5.8-.3-1z"/><path d="M396.8 328.3l1 .3-3 9.3-1-.4z"/><path d="M397.3 328l12 3.4-.4 1-12-3.4zM394.6 337.4L404 350l-.7.6-9.5-12.5zM409.7 358l26.2 2-.2 1-26.2-2z"/><path d="M433 342.2l3.4 18.2-1 .2-3.5-18.2z"/><path d="M432.4 341.8v1l-15.5.2v-1z"/><path d="M417.3 342.2l19 18-.7.7-19-18z"/><path d="M432 342l.7.7L410 359l-.6-1z"/><path d="M432.2 342l.4.8-27.4 12-.4-1z"/><path d="M409.6 332l.6 26.6h-1l-.6-26.7z"/><path d="M394.2 337.3L417 342l-.3 1-22.7-4.8z"/><path d="M394.4 337.3L436 360l-.4 1L394 338zM403.3 305.6l1 .3-6.6 22.6-1-.3z"/><path d="M404 305.4l28.7 36.5-.8.5-28.7-36.5z"/><path d="M435.6 303.6l1 .5-19.2 38.8-1-.4z"/><path d="M435.7 303.5l.7.7-27 28-.7-.7z"/><path d="M455.5 330.7v1l-46.5.7v-1z"/><path d="M455.2 330.8l.6.8-13.2 10-.6-.7z"/><path d="M442.3 340.8v1l-10 1v-1z"/><path d="M432.8 342l7 17-.8.5-7-17z"/><path d="M442.5 356.5l.6 1-3.3 2.2-.6-.8z"/><path d="M442.8 341.3l.6 15.6h-1l-.6-15.7zM439.2 358.8l.4 1-3.7 1-.4-.8z"/><path d="M442 341.2l.8.2-2.8 18-1-.2z"/><path d="M436.5 303.8l6.3 37.5h-1l-6.2-37.3z"/><path d="M442.6 341l13 10.3-.8.8L442 342z"/><path d="M455 351.2l.4 1-12.4 5.3-.4-1z"/><path d="M443 356.5l21.2 7-.3.8-21.3-7z"/><path d="M455.6 351.3l8.8 12.2-.8.6-8.8-12z"/><path d="M455 331.2h1l-.4 20.4h-1zM463.5 363.5l1 .5-4.8 8.6-1-.5z"/><path d="M459.8 372.2l10 21.2-1 .4-10-21.2z"/><path d="M473 390.8l.6.8-4.2 2.4-.4-.8z"/><path d="M473.6 382.5l.3 8.7h-1l-.4-8.7zM473 343.2l.7 39.3h-1l-.8-39.3z"/><path d="M482 362.5v1l-18 .8v-1z"/><path d="M456 331l26.3 31.7-.7.6-26.5-31.7z"/><path d="M472 343l1 .5-8.6 20.6-1-.3z"/><path d="M472.2 343l.4.8-17.3 8.3-.4-.8z"/><path d="M456 330.8l16.8 12-.6 1-17-12.2zM436 303.4v1l-32.2 1.8v-1z"/><path d="M419.5 296l16.8 7.5-.4 1-17-7.7z"/><path d="M414.6 291.2l5 4.7-.6.7-5-4.8z"/><path d="M420 285.7l.7.7-6 5.5-.8-1z"/><path d="M419.8 286h1l-1 10.2h-1z"/><path d="M419 295.8l.5 1L404 306l-.5-1z"/><path d="M413.8 291.2l.8.6L404 306l-.7-.5z"/><path d="M413.7 291.5h1l-5.2 40.5h-1z"/><path d="M435.7 303.4l.6 1-39 24.5-.4-1z"/><path d="M404.3 305.7l5.3 26-1 .3-5.3-26zM443.5 277.6l.3 1-23.3 8-.3-1z"/><path d="M422.2 278.7l1 .3-2.4 7.2-1-.3z"/><path d="M415 271.6l8 7-.6.7-8.2-7zM443 278l1 .3-7.5 25.7-1-.3z"/><path d="M443.3 277.7l.6.8-24.3 18-.6-.7z"/><path d="M420.8 285.8l15.6 17.8-.7.6-15.7-17.8zM471.6 304l.4 1-62.7 27.3-.4-1z"/><path d="M469.5 288.5l2.7 16h-1l-2.7-16z"/><path d="M460.4 277.2l9 11-.8.7-9-11.2z"/><path d="M460 277v1l-16.4.6v-1z"/><path d="M444 277.7l28 26.4-.6 1-28-26.6z"/><path d="M468.8 288l.5 1-33 15.3-.5-1z"/><path d="M459.5 277.5h1l-4.4 53.8h-1z"/><path d="M420.5 285.6L469 288v1l-48.6-2.4zM472.3 304.4l5 16-1 .4-5-16z"/><path d="M476.7 320.2l.4 1-21.2 10.4-.5-.8z"/><path d="M471.4 304.4l.8.5-16.2 26.5-1-.5z"/><path d="M436 303.3l35.8.8v1l-35.8-.7zM469.7 393.7v10h-1v-10z"/><path d="M469.8 403.4l3.4 10-1 .4-3.4-10zM473.2 413.5l5.6 16-1 .4-5.6-16z"/><path d="M502.6 401l.8.8-24.7 28.4-.8-.7z"/><path d="M473.6 390.7l29.6 10.2-.3 1-29.7-10.3z"/><path d="M473 391.2h1l-.8 22.5h-1z"/><path d="M503 400.8v1l-33.7 2.2v-1zM472.7 382.4l1 .3-4 11-1-.2z"/><path d="M481.6 362.7l1 .5-9 19.5-1-.4z"/><path d="M464.4 363.7l9.2 18.6-1 .5-9-18.7z"/><path d="M459.5 372l13.8 10-.5 1-14-10.2zM502.8 401l.4.8-30.3 12.4-.5-1zM479 429.7l2.6 30.6h-1L478 430z"/><path d="M481 460l17.8.2v1L481 461z"/><path d="M504.5 456.4l.6 1-6 3.6-.5-.8z"/><path d="M503 447.7l2.3 9-1 .3-2-9z"/><path d="M499.7 434.4l3.4 13.3-1 .2-3.3-13.3z"/><path d="M478.4 429.3l21 4.8-.3 1-20.8-4.8z"/><path d="M478.6 429.3l24.3 18-.7 1L478 430z"/><path d="M502.2 447.6l1 .3-4 12.6-1-.3z"/><path d="M478.7 429.4l20.5 31-1 .4L478 430zM514.8 437.8l1 .5L505 457l-1-.4z"/><path d="M505.2 437.3l10 .3v1l-10-.3z"/><path d="M499.5 434l6 3.3-.4.8-6-3z"/><path d="M504.7 437.5l1 .2-2.6 10h-1z"/><path d="M515 437.6l.5.8L503 448l-.7-.6z"/><path d="M506 422.3l9.7 15.4-.8.6-10-15.5z"/><path d="M505 422.4l1 .4-6.3 12-1-.5z"/><path d="M472.8 413.3l32.8 8.8-.2 1-32.8-8.8z"/><path d="M505.4 422l.2 1-27 7.2-.4-1zM511.7 416.7l.8.6-13 17.6-.7-.7z"/><path d="M511.8 416.6l.6.7-6.6 5.7-.6-.8zM499 434.3l.7.6-18.2 25.7-.8-.6z"/><path d="M505.2 410.5l7.2 6-.6.8-7.2-6z"/><path d="M505.5 411l.5 11.6h-1l-.5-11.7zM512.6 417l3 21h-1l-3-21z"/><path d="M518 406.6l.2 1-13.2 3.7-.2-1z"/><path d="M517.7 406.8l.8.6-6 9.8-.8-.5z"/><path d="M518 406.6l31.6 3.4v1l-31.6-3.4z"/><path d="M550 410.2l4 10.5-1 .3-4-10.4z"/><path d="M553.2 420.5l.7.7-11 10.6-.7-.7z"/><path d="M543 431l8.7 2.7-.3 1-8.8-2.8z"/><path d="M550 410.4l2 23.7-1 .2-2-23.7z"/><path d="M553 420.8l1 .2-2 13.2h-1zM549 410.3l1 .3-6.8 21-1-.3zM532.3 389.3l.8.6-14.5 17.5-.8-.7z"/><path d="M532.2 389.4l1 .4-17.4 48.5-1-.4z"/><path d="M532.5 389l.4 1-29.8 11.8-.4-1z"/><path d="M503.5 401.3l2 9.5-1 .2-2-9.5z"/><path d="M505 410.3v1l-32.2 3v-1z"/><path d="M504.6 410.4l.6 1-26.6 18.7-.6-.7zM515.8 372.4l1 .4-13.4 29-1-.5z"/><path d="M516.4 372l10 4.2-.3 1-10-4.3z"/><path d="M526.7 376.5l6.3 12.8-.8.4-6.4-12.8z"/><path d="M525.8 376.5l1 .5-21.5 34.2-1-.6zM516 372l.4 1-42.8 18.7-.4-1z"/><path d="M473.3 382l30 19-.6.8-30-18.8z"/><path d="M516 372l.6 1-47 31-.6-.8z"/><path d="M532.7 389v1l-63.4 4v-1z"/><path d="M546.5 368.2l1 .5-14.4 21-.8-.4z"/><path d="M531.2 351.4l16.2 16.8-.7.7-16.2-17z"/><path d="M530.3 351.7l1 .2-4.5 24.8-1-.2z"/><path d="M514.7 361.2l12 15.2-.8.6-12-15.2z"/><path d="M514.8 361.5l2 11-1 .2-2-11zM510.4 341.3l4.3 20-1 .3-4.3-20z"/><path d="M510.2 341l21 10.4-.6 1-20.8-10.5z"/><path d="M530.6 351.3l.5.8-16.4 10-.5-1zM514 361l.5 1-41 21-.6-1z"/><path d="M482 362.4l34.4 9.6-.3 1-34.2-9.6z"/><path d="M509.5 341.3h1l-7 60h-1z"/><path d="M482.4 362.7l21 38.5-1 .5-21-38.5z"/><path d="M509.7 341l.6.8-28 21.5-.6-.8z"/><path d="M510 341l9.3.3v1l-9.3-.4z"/><path d="M515.7 335.5l4 6-1 .6-4-6zM541.5 334l1 .6L531 352l-.8-.5z"/><path d="M519.6 341.4l11.5 10-.5.8-11.6-10zM512.8 298l3 37.6h-1l-3-37.5z"/><path d="M512 297.7l.6 1L477 321l-.4-.8z"/><path d="M476.4 320.5l1 .2-4.4 22.7-1-.2z"/><path d="M477.2 320.2l33 20.7-.5.7-33-20.7z"/><path d="M515 335.4l.6.7-5.3 5.7-.7-.7z"/><path d="M477 320.2l38.4 15-.3 1-38.3-15z"/><path d="M477.4 320.5l5 42.3-1 .2-5-42.3zM512 298l1 .2-2.5 43.2h-1z"/><path d="M513 298l34.5 70.3-1 .4-34.5-70.3zM518.8 341.6l1 .2-5 19.8-1-.2z"/><path d="M541.8 333.8l.4 1-22.8 7.4-.3-1zM512.3 297.7l.2 1L472 305l-.3-1z"/><path d="M512 298l.8.4-30.2 64.2-1-.4zM509 293.7l.8.8-32.6 26.6-.6-.7z"/><path d="M509.8 293.8l3 4-.8.6-3-4z"/><path d="M469 288l40.5 5.6-.2 1L469 289z"/><path d="M469.4 288.2l46.2 47.3-.7.7-46.4-47.3z"/><path d="M509.3 293.6l.2 1L472 305l-.4-1zM444 278l12 53-1 .3-12-53zM523.5 292l.5 1-11.5 5.6-.4-1z"/><path d="M524.3 292.3l8.8 27.5-.8.3-9-27.4z"/><path d="M550 310l.6.8-17.8 9.5-.5-1z"/><path d="M550.4 310l19 3v1l-19.2-3z"/><path d="M569.5 313l11.6 5-.3 1-11.6-5z"/><path d="M580.5 318l.7.8-12.5 12.8-.7-.7z"/><path d="M568 330.8l.6 1-22 10.6-.5-1z"/><path d="M542.4 334l4.2 7.7-1 .5-4-7.6z"/><path d="M533 319.6l9.4 14.6-.8.5-9.4-14.5zM544.4 289l.2.8-20.8 3v-1z"/><path d="M545 289.3l5.8 21-1 .3-5.7-21z"/><path d="M544 289.2l1 .4-12 30.4-1-.3z"/><path d="M524 292l26.6 18-.6 1-26.5-18.2z"/><path d="M549.8 310.4h1l-4 31.6h-1z"/><path d="M532.7 319.4l35.7 11.4-.3 1-35.6-11.4z"/><path d="M549.8 310.2l1 .3-8.4 24-1-.4z"/><path d="M550.5 310l30.5 8-.2 1-30.6-8z"/><path d="M568.8 313.5h1l-1 17.8h-1z"/><path d="M569 313l.6.8-27.3 21-.6-1z"/><path d="M550.7 310l18 21-.8.5-18-20.8zM434 268l.2 1-19.5 3.5-.2-1z"/><path d="M433.7 268l.7 1-11.3 10.3-.6-.7z"/><path d="M426 266l1 .3-3.8 12.7-1-.3z"/><path d="M417.6 256.5l9.3 9.3-.8.7-9.3-9.3z"/><path d="M417.3 256.3l14.5.2v1l-14.5-.2z"/><path d="M432.2 257l2.3 11.4-1 .2-2.2-11.5z"/><path d="M441.2 263l.6.8-7.4 5-.6-.7z"/><path d="M417.3 256.4l24.3 6.5-.3 1-24.2-6.7z"/><path d="M416.8 256.7l1 .2-2.7 15h-1z"/><path d="M426.4 265.7l.4 1-12 5.8-.4-1z"/><path d="M431.5 256.7l.7.7-17.2 15-.7-.7zM426.8 265.7l7.5 2.3-.3 1-7.5-2.4z"/><path d="M441.3 262.8l.2 1-15 2.8v-1z"/><path d="M436.6 251L442 263l-1 .4-5.3-12.3z"/><path d="M435.8 250.8l.8.6-4.4 6-.8-.6z"/><path d="M432 256.7l9.7 6.3-.5.8-9.6-6.3z"/><path d="M435.7 251h1l-2 17.5h-1zM431.4 256.8l1 .5-5.3 9-.8-.4z"/><path d="M426.7 239.8l9.8 11-.7.6-9.8-11zM445.7 255l.8.4-4.6 8.2-1-.4z"/><path d="M458.7 249.2l.4 1-12.8 5.3-.4-1z"/><path d="M459.4 249.3l8.5 12-1 .6-8.4-12zM468 261.3l4 5-.7.6-4.2-5z"/><path d="M472 266.2l4.6 3.4-.6.8-4.6-3.4z"/><path d="M475.8 269.7l.8.6-4.7 7-1-.5z"/><path d="M480.5 266l.8.6-9.4 10.8-.8-.7z"/><path d="M469 255.7L481 266l-.7.7-12.3-10.3z"/><path d="M467 249l2 7-1 .2-2-6.8zM480.5 266l.6.7-4.5 3.7-.6-.8z"/><path d="M469 256l3 10.5-1 .3-3-10.6z"/><path d="M480.6 265.7v1l-9 .5v-1z"/><path d="M469 256l7.7 13.7-1 .5-7.5-14z"/><path d="M468 256l1 .2-1 5.5-1-.2z"/><path d="M467.7 261.2l13 4.5-.4 1-13-4.6z"/><path d="M467 249.3l1 12.3h-1l-1-12.2z"/><path d="M466.3 249v1l-7.3.2v-1z"/><path d="M459.2 249.2l9.6 6.5-.5.8-9.6-6.4z"/><path d="M454 244.3l5.4 5-.7.7-5.3-5zM442.2 236.5l11.7 7.7-.6.8-11.7-7.7z"/><path d="M442.5 237l4 18-.8.2-4.2-18z"/><path d="M442 236.5v1l-15.5 3-.2-.8z"/><path d="M426.7 239.8l19.8 15-.6.7-20-15z"/><path d="M453.3 244.3l.8.6-7.5 10.4-.8-.6z"/><path d="M453.5 244l.4 1-17.7 6.5-.3-1z"/><path d="M436.3 250.6l10 4-.4 1-10-4z"/><path d="M441.5 237h1l-.6 26.3h-1z"/><path d="M426.5 239.6l27 4.6-.2 1-27-4.6zM442.4 230.7v6.2h-1v-6.3z"/><path d="M436 226.6l6 3.6-.4 1-6-3.7z"/><path d="M435.6 226.6l.4 1-10.6 4-.4-.8zM454.4 229l.2 1-12.6 1.3v-1z"/><path d="M454 229.4h1l-.8 15.3h-1z"/><path d="M454 244.2l12.5 4.7-.3.8-12.7-4.7z"/><path d="M471 233l1 .3-5 16.2-1-.3z"/><path d="M466.7 249l18 14.4-.7.8-18-14.5z"/><path d="M483.4 242L485 264h-1l-1.6-21.7z"/><path d="M475 240.3l8 1.3v1l-8-1.3z"/><path d="M479.3 238.3l.4 1-4.5 2-.5-1z"/><path d="M480 238.4l3.3 3.3-.7.8-3.4-3.4z"/><path d="M482.7 241.6l.4 1-16 7-.5-1z"/><path d="M475 240.3l.6.7-9 8.6-.6-.7z"/><path d="M475.7 240.5l9 23-.8.5-9.2-23zM484.7 263.5l10 11.4-.7.6-10-11.5z"/><path d="M493.6 259.7l1.3 15.6h-1l-1.4-15.5z"/><path d="M492.8 259.3l.4 1-8.6 4-.5-1z"/><path d="M499.4 253l.5 1-15.3 10.2-.6-.8z"/><path d="M499.4 253.2l.6.7-6.6 6-.6-.7z"/><path d="M483.4 241.8l10 17.6-.8.5-10-17.7z"/><path d="M466.6 249l26.3 10.4-.5 1-26.3-10.6z"/><path d="M493 259.5l10 13-.6.5-10.2-12.8z"/><path d="M500.2 253.5l3 19-1 .3-3-19.2z"/><path d="M516 268.2l.3 1-13.3 3.6-.2-1z"/><path d="M515.7 268.6l1 .3-2.2 7.4-1-.3z"/><path d="M514.4 275.8L525 286l-.6.7-10.7-10.2z"/><path d="M503 272l11.3 3.8-.4 1-11.3-4z"/><path d="M507.3 264l7.3 12-1 .5-7-12z"/><path d="M506.4 264l1 .5-4.2 8.4-1-.5z"/><path d="M507 263.8l9.4 4.5-.4 1-9.4-4.6z"/><path d="M520.7 261.8l.8.6-5 6.6-.7-.6z"/><path d="M521 261.6l.3 1-14.4 2-.2-1z"/><path d="M500 253.2l7.2 10.7-.8.4-7-10.6z"/><path d="M511 245.3l.5 1L500 254l-.6-.8z"/><path d="M511.4 245.2l16 4.8-.2 1-16-4.8z"/><path d="M527.7 250.2l10.5 11.7-.8.6L527 251z"/><path d="M521 261.6l16.8.2v1l-16.7-.2z"/><path d="M521.6 262l3.7 24.4h-1l-3.7-24.2z"/><path d="M525 286l19.6 3v1l-19.8-3z"/><path d="M524.3 286.3l1 .2-1 6-1-.3z"/><path d="M516.7 268.5l8.6 17.8-1 .4L516 269zM493.2 259.3l13.8 4.5-.3 1L493 260z"/><path d="M537.6 262l.5.7-23.6 14-.5-1z"/><path d="M537.4 262l.8.4-13 24.2-.8-.5z"/><path d="M546 262.7l.8.6-21.7 23.4-.6-.6z"/><path d="M537.8 261.8l8.7.8v1l-8.7-.8z"/><path d="M538.4 262l6.7 27.2-1 .3-6.6-27z"/><path d="M521.5 261.8L545 289l-1 .8-23.2-27.3zM553.7 247.2l1 .4-7.8 15.6-1-.4z"/><path d="M554 247l.2 1-26.8 3v-1z"/><path d="M527.6 250l19.2 12.7-.6.8-19-12.5z"/><path d="M546.6 262.5l10 2.4v1l-10.3-2.5z"/><path d="M554.7 247.3l2.5 18h-1l-2.5-17.8z"/><path d="M557 265.2l5 16.8-1 .3-5-16.8z"/><path d="M561.3 281.8l.4 1-17 7-.4-.8z"/><path d="M546 263h1l-2 26.4h-1z"/><path d="M547 262.7l15 19.2-.8.5-15-19.2z"/><path d="M556.2 265.2l1 .5-12.2 24-1-.5z"/><path d="M556.4 265l.5.8-32 21-.4-1z"/><path d="M561.5 281.8v1l-36.6 4-.3-1zM556.5 265l.2 1-42.5 10.7-.3-1z"/><path d="M516.3 268.3l45.3 13.5-.3 1L516 269zM484.4 263.3l22.5.4v1l-22.6-.4zM454 229l.7.8-12.5 7.6-.5-1z"/><path d="M454.5 229l17 3.7-.2 1-17-3.8z"/><path d="M471.2 232.7l.5 1-18 11.3-.6-.8z"/><path d="M454.8 229l12 20-1 .6-11.8-20z"/><path d="M442 236.5l33 3.8v1l-33-3.8z"/><path d="M454 229l.8.7-18.3 21.7-.7-.7zM441.6 230.3l.5 1-15.4 9.2-.5-.8z"/><path d="M448.6 222l.8.7-7.2 8.4-.8-.5z"/><path d="M449.4 222l5.5 7-1 .8-5.4-7z"/><path d="M459.7 218l1 .4-5.7 11.2-1-.5z"/><path d="M460 217.7l.2 1-11 4-.5-.8z"/><path d="M467.3 210.5l.7.7-7.5 7.4-.7-.7z"/><path d="M468.2 210.7l2 13-1 .2-2-13zM470.2 223.8l1.8 9.3-1 .3-1.8-9.3z"/><path d="M460.5 218l11.4 15-1 .5-11.3-15z"/><path d="M469.5 223.3l.3 1-15.2 5.5-.3-1z"/><path d="M460.3 217.8l9.6 5.6-.6 1-9.6-5.8z"/><path d="M459.6 218.2h1l-1 31.5h-1z"/><path d="M442 230.3l29.5 2.4v1l-29.7-2.4z"/><path d="M471.4 232.7v1l-29.3 3.7v-1zM437 222.6l1 .4-1.7 4.3-1-.4z"/><path d="M431 204.3l7 18.3-.8.4-7.2-18.4z"/><path d="M423.2 201.5l7.4 2.4-.3 1-7.4-2.5z"/><path d="M423.4 202l3 8.6-1 .3-3-8.8z"/><path d="M426.4 210.5l5 8-1 .6-5-8z"/><path d="M431.2 218.6l5 8.3-.8.4-5-8.3z"/><path d="M421.7 220l14.4 6.7-.3 1-14.4-6.8z"/><path d="M430.8 218.3v1l-9 1.7-.3-1z"/><path d="M430.3 218.6l1 .4-5.6 12.4-1-.4z"/><path d="M422 220.3l3.7 10.7-1 .3-3.7-10.7z"/><path d="M421.3 220l.5 1-9.3 5.6-.5-.8z"/><path d="M418 213l1 .6-6.3 12.8-1-.4z"/><path d="M419 213l3 7.3-1 .3-3-7z"/><path d="M425.8 210.3l.4 1-7.4 2.5-.3-1z"/><path d="M430 204.2l1 .5-4.6 6.3-.8-.6z"/><path d="M431 204.4l.4 14.4h-1l-.5-14.4z"/><path d="M431 218.4l7 4-.6.8-6.8-4z"/><path d="M426.3 210.3l11.7 12-.7.8-11.7-12z"/><path d="M423.4 201.7l14.6 20.8-.8.5-14.7-20.7zM425.5 210.7h1l-.8 20.5h-1zM450.4 195.7l.4 1-20 8.2-.5-1zM463.3 191.4l5 19.4-1 .2-5-19.4z"/><path d="M462.6 191l.4 1-12.3 4.7-.4-1zM467.7 210.3L485 215l-.4 1-17-4.7z"/><path d="M484.6 215l.5 1-15 8.3-.6-1z"/><path d="M469.6 223.4l17.7.7v1l-17.7-.6z"/><path d="M487 224l.6 1-16 8.6-.4-.8z"/><path d="M471.7 232.8l8 5.5-.5 1-8-5.7z"/><path d="M472 233l3.4 7.6-1 .4-3.5-7.6z"/><path d="M511.2 231.3v1l-39.7 1.4v-1z"/><path d="M511 231.4l.3 1-31.7 7-.2-1z"/><path d="M511.6 231.8v14h-1v-14z"/><path d="M483 241.6l28.3 3.6-.2 1-28-3.6z"/><path d="M511 231.4l.4 1-28.3 10.2-.2-1z"/><path d="M510.7 231.6l1 .4-11.6 21.8-.8-.5z"/><path d="M483.3 241.6L500 253l-.6 1-16.7-11.5z"/><path d="M486.8 224.4l1 .3-4.4 17.5-1-.2z"/><path d="M485.3 215.5l2.5 9-1 .2-2.4-9z"/><path d="M484.5 215.2l.8.6-13.4 17.6-1-.6z"/><path d="M449.2 222l22.5 10.8-.5 1-22.4-11zM487 224.3l.8.4L480 239l-1-.6z"/><path d="M497.7 214.4l.7.7-10.6 10-.7-1z"/><path d="M498.3 214.4l6.3 4.6-.6.8-6.3-4.6z"/><path d="M504.7 219.2l7 12.4-1 .5-7-12.4z"/><path d="M511 231.5l.6.6-26.8 32.2-.8-.7zM504 219l.6.8-21.3 22.6-.7-.7z"/><path d="M498.5 214.6l13.3 31-1 .3-13.2-31z"/><path d="M487.7 224l24 21.3-.8.7-24-21z"/><path d="M487.5 224l23.8 7.3-.3 1-23.8-7.3z"/><path d="M504.2 219l.2 1-17 5-.2-1zM498 214.2v1l-13 1v-1z"/><path d="M488 224.5l5.6 35-1 .3-5.7-35.2zM479.4 194.5l.8.6-12 16-1-.5z"/><path d="M477.5 182.8l2.7 12h-1l-2.7-11.8z"/><path d="M476.8 182.5l.5 1-14.2 8.4-.4-1z"/><path d="M463 191l17 3.3-.3 1-17-3.4z"/><path d="M461.8 173.2l18.3 21.3-.7.7L461 174z"/><path d="M461 173.2l.7.6-11.6 15.7-.8-.6z"/><path d="M450.2 189.2l.8 7h-1l-.8-7z"/><path d="M461 173.3l.8.4-11 22.7-.8-.5z"/><path d="M461.8 173.5l1.4 17.8h-1l-1.4-17.7z"/><path d="M449.8 188.8l13 2v1l-13.2-2zM476.5 182.8l1 .3-9.3 28-1-.4z"/><path d="M486.2 170l.8.5-9.6 12.8-.8-.7z"/><path d="M471 151l16 19-.7.6-16-19z"/><path d="M470 151l1 .5-9 22.2-1-.4z"/><path d="M486.6 169.7v1l-25.2 3.3v-1z"/><path d="M486.4 169.8l.6.7-23.8 21.2-.7-.7z"/><path d="M471 151.2l6.4 31.6-1 .2-6.4-31.6z"/><path d="M461.7 173l15.6 9.5-.6.8-15.5-9.4z"/><path d="M477 182.4v1l-27.2 6.3-.2-1zM481.6 134l.8.6-11.4 17-.8-.5z"/><path d="M493.6 127.6l.5 1-11.8 6-.5-.8z"/><path d="M494.2 127.6l22.8 12-.5 1-22.8-12z"/><path d="M516.2 139.8l.8.6-18.4 24.8-.8-.6z"/><path d="M486 146.8l12.6 17.8-1 .6-12.4-18z"/><path d="M486.2 147l1 23.2h-1l-1-23z"/><path d="M498 164.5l.4 1-11.6 5-.4-.8z"/><path d="M497.8 164.6l.7.7-10.2 10-.7-.8z"/><path d="M488.4 174.6l5.3 8-.8.4-5.5-7.8zM493.4 128l1 .4-8.3 19-.8-.4z"/><path d="M494.5 128l4.2 37h-1l-4.2-36.8z"/><path d="M470.8 151l27.6 13.5-.4 1-27.7-13.7z"/><path d="M485.6 146.6l.2 1-15 4.2-.3-1z"/><path d="M516.6 139.7l.2 1-31 7-.3-1z"/><path d="M482 133.8l34.7 5.8v1l-34.8-5.8z"/><path d="M482.5 134.2l3.7 12.8-1 .2-3.7-12.7z"/><path d="M485.2 146.8l1 .5-23 44.3-1-.4zM498.5 164.6L520 182l-.7.8-21.4-17.5z"/><path d="M533.8 167.5l.7.7-14.5 14.6-.7-.7z"/><path d="M498.2 164.4l36 3v1l-36-3z"/><path d="M497.8 164.8l1 .3-5 17.8-1-.3z"/><path d="M493 182.4l.7.6-4.7 5.3-.7-.7z"/><path d="M488.4 174.8l.8 13h-1l-.8-13zM517 139.7l19 10.8-.6 1-19-11z"/><path d="M535.5 150.5l.5 1-8.7 5-.5-.8z"/><path d="M517 140l10.4 16-.8.5-10.4-16z"/><path d="M527 155.7l.2 1-28.3 8.6-.4-1z"/><path d="M485.8 146.6l41.4 9-.2 1-41.4-9z"/><path d="M485.7 146.6l50 4v1l-50-4zM534 167.5l.4 1-41 14.8-.3-1z"/><path d="M519.7 182v1l-26.3.3v-1z"/><path d="M494.3 128L520 182l-1 .5-25.6-54.4z"/><path d="M526.7 155.8l.6.8-33.7 26.5-.6-.7zM488.8 187.5l8.8 1.8-.2 1-8.8-1.8z"/><path d="M493.8 182.4l4 7-.7.6-4-7z"/><path d="M497 189.7l1 .2-1.2 4-1-.2z"/><path d="M510.6 190l.2 1-14.4 3.4-.2-1z"/><path d="M497.4 189.2l13.3.7v1l-13.3-.8z"/><path d="M519.5 182l.4 1-22.4 7.3-.3-1z"/><path d="M519.3 182.2l.7.7-9 8-.7-1zM495.7 194h1l-.7 10.5h-1z"/><path d="M495.2 204.2l.7.7-10.8 11-.7-.7z"/><path d="M528.7 210v1l-43.8 5-.2-1z"/><path d="M528.6 210v1l-30.6 4.2v-1z"/><path d="M496 204.4l2.5 10.2-1 .3-2.4-10.4z"/><path d="M495.7 204l33 6v1l-33.2-6z"/><path d="M511 190l18 20.2-.7.7-18-20.2z"/><path d="M529 210.2l4.6 4.7-.7.6-4.7-4.7z"/><path d="M533.4 214.8l13 5.7-.4 1-13-5.8z"/><path d="M546 220.5l.4 1-14.6 5.5-.3-1z"/><path d="M529.2 210.5l3 16-1 .2-3-16z"/><path d="M528.4 210.3l.7.7-17.4 21.2-.7-.6z"/><path d="M528.6 210l.3 1-24.5 9-.4-1z"/><path d="M496.5 193.5l32.5 16.7-.5 1-32.4-16.8z"/><path d="M510.3 190l.7.8-15 14-.8-.7zM520.2 182.3l9 28.2-1 .3-9-28.2z"/><path d="M528.2 210.6h1l-1.4 40h-1z"/><path d="M535.4 200.6l.8.6-7 9.7-1-.7z"/><path d="M528.8 210l43 5v1l-43-5zM520 182l16.2 18.5-.7.6-16.2-18.2z"/><path d="M519 182.3l1 .2-8.4 49.4-1-.3z"/><path d="M511.2 190.5l.5 41.3h-1l-.5-41.3z"/><path d="M510.2 190.2l1 .5-12.8 24.3-1-.5zM534.7 168l1.7 32.8h-1l-1.7-32.8z"/><path d="M573.5 197.3v1l-37.6 3v-1z"/><path d="M573.4 197.3l.3 1-45 12.7v-1z"/><path d="M533.8 168h1l-5.6 42.7h-1zM531.6 226l.2 1-20.5 5.2-.3-1z"/><path d="M531.4 226.2l.7.7-20.3 19-.7-.7z"/><path d="M571.5 215l.5 1-60.5 30-.5-.8z"/><path d="M571.3 215.2l1 .5-17.8 32-.8-.5z"/><path d="M546.7 220.8l8 26.5-1 .3-8-26.5z"/><path d="M545.8 220.7l1 .6-19 29.5-1-.5z"/><path d="M531.2 226.5l1 .2-4.4 24-1-.2z"/><path d="M498 214.4L532 226l-.3 1-33.7-11.7z"/><path d="M510.2 190.3l1 .3-6.4 29-1-.4z"/><path d="M511 190l25 10.4-.3 1-25.2-10.4z"/><path d="M572.5 175.6l.6.8-37 24.8-.4-.8z"/><path d="M572.5 175.7l.7.7-39.6 39.2-.7-.7z"/><path d="M532.8 215.2h1l-1.6 11.4h-1z"/><path d="M532 226.2l22.4 21-.6.6-22.4-20.8z"/><path d="M511.2 245.3l43 1.7v1l-43-1.7z"/><path d="M578.3 228.3l.3 1-67.2 16.8-.3-.8z"/><path d="M546.4 220.5l32.2 8-.3.8-32-7.8z"/><path d="M536.3 200.6l10.4 20.2-1 .4-10.3-20.2z"/><path d="M535.4 200.7l1 .2-2.6 14.4-1-.2z"/><path d="M573.3 197.4l.4 1-40.3 17.3-.4-1z"/><path d="M573 197.8h1l-1.8 17.7h-1z"/><path d="M572.3 215.4l2.3 26.7-1 .2-2.3-26.7z"/><path d="M574 241.7l.2 1-20 5.2-.2-1z"/><path d="M578.2 228.4l.6.8-24.3 18.6-.6-.8z"/><path d="M536.2 200.4l42.6 28-.6 1-42.6-28zM562.4 145.8l.6.8-28.5 21.7-.6-.8z"/><path d="M563 146l12.7 16.8-.8.6-12.7-17z"/><path d="M574.7 163h1l-2.4 13h-1z"/><path d="M534.3 167.5l38.7 8-.2 1-38.7-8z"/><path d="M575.2 162.5v1l-41 5v-1z"/><path d="M574.8 162.6l.7.8-39.3 37.7-.7-.6z"/><path d="M527.5 156l8.8 44.7-1 .2-8.8-44.7z"/><path d="M527.5 156l7.2 11.7-1 .5-7-11.8zM562.2 146l1 .5-27 54.5-.8-.4z"/><path d="M562.7 145.7l29 3.2v1l-29-3.3z"/><path d="M591.4 149l.6.8-16.5 13.6-.6-.7z"/><path d="M575.6 163l8.5 42.5-1 .2-8.3-42.5z"/><path d="M574 197.5l10 7.7-.6.8-10.2-7.7z"/><path d="M573.4 176l.7 22h-1l-.6-22z"/><path d="M572.3 175.8l1 .5-26.6 45-1-.6z"/><path d="M534.5 167.6l39.3 30-.6.7-39.3-30z"/><path d="M573.2 197.4l.7.8-27.4 23-.7-.6z"/><path d="M562.2 146l1 .2-8.5 101.3h-1zM573.5 242l1 .3-7.8 19-1-.3z"/><path d="M566.6 261l12.8 14.2-.7.7-12.8-14.4z"/><path d="M554.5 247.2l12 13.8-.7.7-12-14z"/><path d="M571.3 215.4h1l-5.5 46-1-.2zM578.8 275.2l.4 1-17.4 6.5-.4-1z"/><path d="M562 282.2l2.4 16.3-1 .2-2.3-16.4z"/><path d="M544.7 289l19.4 9-.3 1-19.4-9z"/><path d="M574.7 296l.2 1-11 2-.3-1z"/><path d="M575.2 296l23.4 13.6-.5 1-23.4-14z"/><path d="M564 298l34.5 11.6-.4 1-34.3-11.6z"/><path d="M578.5 275.2l1 .6-15.2 23-.8-.6z"/><path d="M579.2 275l26 10.6-.5 1-26-10.6z"/><path d="M604.6 285.6l.4 1-30 10.3-.3-1z"/><path d="M578.4 275.5l1 .2-4 20.7-1-.2z"/><path d="M579.4 275.4l19.3 34.5-1 .4-19.2-34.5z"/><path d="M562 281.8l36.6 28-.6.7-36.7-28z"/><path d="M565.7 261l1 .3-4.6 21-1-.3z"/><path d="M565.6 261.3h1l-2.3 37.4h-1z"/><path d="M538.3 262l26 36.3-.8.6-26-36.5zM574.4 241.8l29.7 21-.5 1-29.7-21.2z"/><path d="M604 263.3l.2 10.8h-1v-10.7z"/><path d="M603.8 273.6v1L579 276v-1z"/><path d="M574.5 242l5 33.6h-1l-5-33.3z"/><path d="M578 228.7l1 .3-4.5 13.4-1-.3z"/><path d="M532 226l42.2 15.7-.3 1-42.4-15.6z"/><path d="M532.2 226.4L547 263l-1 .3-14.8-36.6zM239 228.5l31.5 11-.3 1-31.4-11zM252.5 250.6l1 .3-12.4 31.4-.8-.4z"/><path d="M253 250.2v1l-42.4.5v-1z"/><path d="M210.3 250.8l.6.8-33.2 31.2-.7-.7z"/><path d="M175 247.5l3 35h-1l-3-35z"/><path d="M175 247.3l26.5 41.5-.8.6-26.5-41.6z"/><path d="M201.2 288.6l36.5 6.6-.2 1-36.5-6.6z"/><path d="M206.5 269.5l31.4 25.8-.8.8-31.3-25.7zM165.2 264.4l.8.6-16.7 21-.8-.5zM598.6 309.8l16.7 16.7-.7.7-16.7-16.7z"/><path d="M615.4 326.6l7 13.6-1 .4-7-13.5z"/><path d="M622.3 340l9 16.3-1 .5-9-16.2z"/><path d="M632 339.5h1l-1.6 17h-1z"/><path d="M650 315.7l.8.6-18 23.6-.8-.7z"/><path d="M650.8 315.5l18.8 14.4-.6.7-19-14.4zM669.6 330l11.3 8.5-.8.8-11.2-8.6zM605 285.7l19.4 15.5-.7.7-19.2-15.5z"/><path d="M624 301l20 2.8-.3 1L624 302z"/><path d="M643.8 303.7l10 .6v1l-10-.6z"/><path d="M653.3 304.7l1 .3-3.4 11-1-.2z"/><path d="M644 304l7 11.7-1 .5-6.7-11.8z"/><path d="M643.4 303.8l.6.8-28.8 22.5-.6-.6z"/><path d="M623.6 301.3l1 .3-9.2 25.3-1-.4z"/><path d="M575.5 295.8L624 301v1l-48.6-5.2z"/><path d="M575 295.8l75.5 19.6-.3 1-75.5-19.6z"/><path d="M650 315.5l.7.8-28.6 24.4-.5-.8z"/><path d="M623.5 301.5h1l-2.2 39h-1z"/><path d="M624.6 301.5l8.3 38-1 .2-8.4-38z"/><path d="M615.3 326.4l17.4 12.8-.6.8-17.3-12.8z"/><path d="M605.4 286l10 40.7-1 .2-10-40.8z"/><path d="M604.4 286l1 .2-6.6 24-1-.3z"/><path d="M623.8 301l.4 1-25.8 8.6-.3-1z"/><path d="M624.3 301l26.3 14.4-.4 1-26.4-14.5z"/><path d="M650.3 315.5l.3 1-35.4 10.8-.3-1z"/><path d="M653.5 304.4l.5 1-38.8 21.8-.5-.8z"/><path d="M624.6 301.5l6.8 55h-1l-6.8-55zM616.6 257.3l.3 1-13.2 5.4-.4-1z"/><path d="M651.8 255v1l-35 2.2v-1z"/><path d="M651.5 255l.7.8-37.6 31.2-.6-.8z"/><path d="M614.7 286.3l6.2 7.7-1 .6-6-7.7z"/><path d="M682.2 274.5l.3 1-62 19.2-.2-1z"/><path d="M682 274.7l.7.7L654 305l-.7-.6zM651.3 255.4h1l-8 49-1-.2z"/><path d="M617.2 257.5l27 46.5-1 .5-27-46.5z"/><path d="M616.4 257.4l.8.6-13 16.3-.8-.6z"/><path d="M604 273.7l10.7 12.5-.8.7-10.6-12.6z"/><path d="M604.8 285.6h9.7v1h-9.7z"/><path d="M604.2 274l1 12h-1l-1-12z"/><path d="M574.4 242l29.8 31.7-.8.7-29.7-32zM651.5 255.2l.7.6-31.4 39-.8-.8z"/><path d="M617.3 257.7l3.7 36.6h-1l-3.7-36.5z"/><path d="M617 257.3l65.5 17.3-.3 1-65.5-17.4z"/><path d="M682 274.6l.7.8-38.7 29-.6-.7z"/><path d="M621 293.7l23 10-.5 1-22.8-10z"/><path d="M621 294l3.5 7.3-1 .4-3.4-7.2zM584 205l26.4 22-.6 1-26.5-22z"/><path d="M613.8 213.5l1 .2-4.2 14-1-.3z"/><path d="M614.2 213l23.4.3v1l-23.4-.2z"/><path d="M637 213.6l1 .5-20.8 44-1-.5z"/><path d="M614.7 213.6l2.6 44-1 .2-2.6-44z"/><path d="M614 213.2l.4 1-35.8 15-.4-.8z"/><path d="M610 227l.2 1-31.7 1.4v-1z"/><path d="M609.7 227.4l1 .2-6.5 35.7-1-.2z"/><path d="M584 205.3l20 57.8-.8.4-20-57.7z"/><path d="M583.4 205l.6 1-12 10-.5-1z"/><path d="M572 215l38.2 12-.3 1-38.4-12z"/><path d="M610 227l.3 1-36.2 14.7-.2-1z"/><path d="M574.3 241.8l42.7 15.5-.3 1-42.8-15.6z"/><path d="M613.8 213.4l.8.5-35.2 61.8-1-.4z"/><path d="M583.8 205l30.5 8.2-.3 1-30.5-8.2z"/><path d="M620.7 174.5l.6.7L584 206l-.7-1z"/><path d="M620.5 174.6l.8.6-42.5 54-.8-.7z"/><path d="M583 205.4l1 .2-5 23.3-1-.3zM592 149l29.3 25.4-.7.8-29.2-25.5z"/><path d="M575.4 162.5l45.7 11.8v1L575 163.5z"/><path d="M575.7 163l3.3 65.8h-1l-3.3-65.7z"/><path d="M620.7 174.4l.4 1-47.3 23-.4-1z"/><path d="M621 174.4v1l-48.2 1.2v-1z"/><path d="M573.2 175.7l41.4 37.6-.7.7-41.5-37.6z"/><path d="M592 149.2l22.7 64.2-1 .4-22.5-64.3z"/><path d="M591.5 149l.3 1-58 18.6-.3-1z"/><path d="M591.2 149.3l1 .2-8 56h-1zM621.4 174.6l16.8 39-1 .4-16.7-39z"/><path d="M575.6 162.6l62.4 50.8-.6.8-62.5-50.8zM630.6 104.7l.7.7-39.3 44.3-.7-.7z"/><path d="M630.7 104.6l.5 1-68.2 41-.6-1z"/><path d="M650.4 136.7v1l-87.6 9v-1z"/><path d="M631.5 105l19.4 32-1 .5-19.4-32z"/><path d="M630.5 105h1l-10 70-1-.2z"/><path d="M650.3 136.8l.2 1-58.7 12-.2-1z"/><path d="M651 137l11.3 72.6-1 .2-11.3-72.6z"/><path d="M661.6 209.2l.2 1-24 4-.3-1z"/><path d="M650 137l.8.2L638 214l-1-.3z"/><path d="M650.2 136.7l.5 1-77.7 38.7-.4-1z"/><path d="M573 175.6l89 33.6-.3 1-89-33.7z"/><path d="M621.3 174.4l40.8 35-.5.6-41-34.8z"/><path d="M650 137l.8.5-29.4 37.6-.8-.5z"/><path d="M650 137l1 .4-36.3 76.5-1-.6zM638 213.7l14.3 41.5-1 .3-14-41.5z"/><path d="M637.2 213.7l1 .2-17.2 80.4-1-.2z"/><path d="M605 285.6l15.7 8.2-.4 1-15.7-8.3z"/><path d="M616.3 257.5l1 .4-12 28.3-1-.4zM688.5 64.6l.6.8-57.7 40-.6-.7z"/><path d="M689.4 65l3 47.6h-1l-3-47.5z"/><path d="M691.5 112l.6 1-41.3 24.5-.5-.8z"/><path d="M749.2 118.6l.2 1-99 18v-1z"/><path d="M689 64.7l60.7 54-.7 1-60.5-54.3z"/><path d="M688.3 64.8l1 .5-38.5 72-1-.4z"/><path d="M631 104.7l61 7.5-.2 1-60.8-7.6z"/><path d="M631 104.6l143.2 12v1l-143.3-12z"/><path d="M774.2 116.6v1l-24.8 2v-1z"/><path d="M692 112l57.5 6.7v1l-57.8-6.6z"/><path d="M691.4 112.4l1 .4-30 76-1-.4z"/><path d="M651 137l11.2 51.5-1 .2-11.3-51.4z"/><path d="M712.5 177l.2 1-51 11v-1z"/><path d="M722.5 173l.4 1-10 4-.5-1z"/><path d="M692.2 112.3l31 61-1 .3-31-60.8z"/><path d="M692.3 112.5l20.8 64.8-.8.3-21-64.8z"/><path d="M749 119l.8.4-36.8 58.3-.8-.5z"/><path d="M749 118.8l.7.8L662 189l-.6-.8z"/><path d="M631.5 105l30.7 83.3-1 .4-30.6-83.4z"/><path d="M631.3 104.7L713 177l-.7.8-81.6-72.3zM713 177l15.8 12-.6.7-15.8-11.8z"/><path d="M689.3 65L713 177.3l-.8.3-24-112.4zM304.4 117.5L321 186l-.8.3-16.8-68.6z"/><path d="M382.7 129.2l.5.8-72.5 38.6-.5-1zM621 174.4l41 13.7-.4 1-40.8-13.7z"/><path d="M722.7 173v1L621 175.2v-1zM661.8 188l66.8.7v1l-66.8-.7z"/><path d="M661.3 188.5h1v21h-1z"/><path d="M722.4 173l.5.8-61 36.3-.5-.8z"/><path d="M650.6 136.7l72.2 36.2-.4.8-72.3-36.2zM728.2 189l.6.7-38.4 35-.7-.6z"/><path d="M662 209l28.2 15-.5.8-28.2-14.8z"/><path d="M661.3 209.5l1 .2-10 45.8-1-.2z"/><path d="M697.5 241l.3 1-45.8 13.8-.3-1z"/><path d="M690.4 224.2l7.7 17-1 .5-7.5-17z"/><path d="M637.7 213.3L690 224v1l-52.5-10.7zM728.3 188.7l.3 1L662 210l-.4-.8z"/><path d="M662 209.3l36 32-.7.6-36-32z"/><path d="M638 213.3l60 27.7-.5 1-60-27.8zM728 189.2h1l-1.4 29-1-.2z"/><path d="M728 189l1 .5-31 52.3-.8-.6z"/><path d="M698 241l21 27.7-1 .6-20.8-27.6z"/><path d="M741.3 248l.7.6-23 21-.8-1z"/><path d="M727.5 217.8L742 248l-.8.5-14.6-30.2z"/><path d="M726.8 217.7l.7.8L698 242l-.6-1z"/><path d="M697.7 241l44 6.8v1l-44-6.8z"/><path d="M741.5 247.8l.4 1-59.4 26.7-.5-1z"/><path d="M718.4 268.6l.2 1-36.2 6v-1z"/><path d="M726.6 218l1 .2-8.6 51h-1z"/><path d="M726.7 217.8l.8.6-44.7 57-.8-.7z"/><path d="M697.2 241.2l1 .5-15.4 33.5-1-.4z"/><path d="M697.4 241l.5 1-76.7 52.6-.6-1zM681 338.8l3.7 26h-1L680 339z"/><path d="M691 344.7l1 .3-7.3 20-1-.4z"/><path d="M685.4 327.4l6.6 17.3-1 .3-6.6-17.2z"/><path d="M693.3 321.8l.5 1-8.7 5.2-.4-1z"/><path d="M713.5 318v1l-20 3.8v-1z"/><path d="M731 294.6l.8.6L714 319l-.7-.7z"/><path d="M732 294.8l.2 15.3h-1l-.3-15z"/><path d="M731.5 309.7l.4 1-18.2 8.4-.4-.8z"/><path d="M714 318.3l17 19.8-.7.7-17-19.8z"/><path d="M730.2 338.3l1 .3-17 45-.8-.5z"/><path d="M740.5 347l.8.6-27 36-1-.7z"/><path d="M731 338l10.2 8.8-.6.8-10.2-8.8zM680.6 338.5l11.2 6-.5.8-11-6z"/><path d="M684.4 327.3l1 .4L681 339l-1-.3z"/><path d="M684.8 327v1l-15.5 2.8-.2-1z"/><path d="M693.4 321.8l.3 1-24.4 8-.3-1z"/><path d="M695 305.7l1 .2-2 16.4-1-.2z"/><path d="M695 298.3h1v7.5h-1z"/><path d="M695.4 297.8l.2 1-41.8 6.5-.2-1z"/><path d="M652.4 255.4l2 49.5h-1l-2-49.5z"/><path d="M654 304.6l15.6 25.5-1 .6-15.3-25.5z"/><path d="M695 298l.8.6-26.2 32-.8-.6z"/><path d="M695 298.2l1 .3-10.7 29.2-1-.3z"/><path d="M652.3 255.2l33 72-1 .5-33-72z"/><path d="M652.2 255l30.5 19.6-.6 1-30.4-19.8z"/><path d="M682.5 274.6l42 17.4-.2 1-42.2-17.5z"/><path d="M719 269l6 23.3-1 .3-6-23.4z"/><path d="M718 268.8l1 .6-23 29.2-1-.6z"/><path d="M682.8 275l13 23-.8.6-13-23.2z"/><path d="M682.8 275l2.6 52.4h-1l-2.6-52.4z"/><path d="M654 304.4l31 22.7-.5 1-31-22.8zM724.3 292l.4 1-29 13.3-.4-1z"/><path d="M724.7 292l7 2.4-.4 1-7-2.4z"/><path d="M719 268.8l12.8 25.8-1 .5-12.8-25.7z"/><path d="M718 269l1 .2-5 49.4h-1z"/><path d="M696 298l18 20.3-.8.7-18-20.3z"/><path d="M695.7 297.8l36.2 11.8-.4 1-36.2-11.8z"/><path d="M725 292.4l7.3 17.6-1 .4-7.3-17.7z"/><path d="M724 292l.8.8-30.8 29.8-.7-.7zM695.2 305.4l.6.8-26.2 24.4-.7-.7z"/><path d="M653.7 304.3l41.8 1v1l-41.8-1z"/><path d="M654 304.4l39.8 17.4-.4 1-40-17.5z"/><path d="M693.2 322.3h1l-2 22.6-1-.2zM684.6 364.6l9.2 23.2-1 .4-9.2-23.2z"/><path d="M713.8 382.8l.2 1-20.3 4.7-.3-1z"/><path d="M713.3 383l1 .2-1.3 11.4h-1z"/><path d="M693.6 387.5l19 6.6-.2 1-19-6.5z"/><path d="M730.3 338l.8.7-37 49.7-1-.6zM742.4 392.8v1l-29.8 1.2v-1z"/><path d="M742.8 393l12.2 11-.7 1-12.2-11.2z"/><path d="M712.7 394l42 10-.2 1-42-10zM741 248.3h1V271h-1z"/><path d="M741.8 270.6l5 6-.6.8-5.2-6z"/><path d="M746.7 276.5l19.2 7-.5 1-19.2-7z"/><path d="M765.6 283.4l.2 1-12.4 3-.3-1z"/><path d="M747 276.7l6.7 10-.8.6-7-10zM774 281.2l.3 1-8.5 2.2-.3-1z"/><path d="M746.6 276.5l27.6 4.6v1l-27.8-4.5z"/><path d="M742.2 248.2l5 28.6-1 .2-5-28.7z"/><path d="M764 238l.3.8-22.5 10-.4-1z"/><path d="M747 224.7l17.5 13.3-.6.8-17.7-13.3z"/><path d="M727.3 217.7l19.4 7-.4.8-19.4-7z"/><path d="M727.4 217.6l37 20.3-.4.8-37-20.3z"/><path d="M764.2 238v1l-66.5 3v-1z"/><path d="M698 241l43.6 29.5-.6.8-43.7-29.4zM778.5 259.4l1 .2-5 22h-1z"/><path d="M778.6 259.2l1 .5L766 284l-1-.4z"/><path d="M783.6 228.6h1l-5 31-1-.2z"/><path d="M783.8 228l.5 1-20 9.8-.4-1zM778.7 259.2l.7.6-25.7 27.6-.8-.7zM773.7 117l1 .2L753 179l-1-.3z"/><path d="M827 138.5l.5.8-74.6 40-.6-.8z"/><path d="M827.7 138.4l12.5 7.7-.5 1-12.5-7.7z"/><path d="M850.7 134.6l.7.7-11 11.6-1-.8z"/><path d="M851 134.4l.2 1-23.7 4-.2-1z"/><path d="M774.3 116.7l53.3 21.7-.4 1-53.2-21.8z"/><path d="M773.8 116.8l.7.6-51.5 56.4-.7-.7z"/><path d="M749.8 119l3.4 60h-1l-3.4-59.8z"/><path d="M722.7 173l30 5.5v1l-30-5.6z"/><path d="M827.2 138.4l.4 1L723 173.7l-.4-1z"/><path d="M749.5 118.6l78 19.8-.2 1-78-19.8zM752.8 178.5l48.7 13-.3.8-48.6-12.8z"/><path d="M831.8 189v1l-30.4 2.2v-1z"/><path d="M831.6 189.2l.7.7-16.2 16.3-.6-.7z"/><path d="M816 205.8l6.5 15.7-1 .4-6.3-15.8z"/><path d="M831.4 189.4l1 .2-9.8 32.2-1-.3z"/><path d="M839.4 146.5l1 .2-8 43-1-.3z"/><path d="M839.5 146.3l.8.6-38.6 45-.7-.5z"/><path d="M728.5 188.7l73 2.5v1l-73-2.5z"/><path d="M729 189l18 35.7-1 .5-18-35.7z"/><path d="M746.5 224.5L784 228v1l-37.6-3.5z"/><path d="M801 191.5l.8.5-17.3 36.8-1-.4z"/><path d="M801 191.3l.6.8-54.8 33.4-.5-1z"/><path d="M752.2 178.8l1 .2-6.2 46h-1zM851.5 134.7l17 31-1 .5-17-31z"/><path d="M867.7 165.6l.6.8L832 190l-.4-1z"/><path d="M850.7 134.8l1 .3-19.3 54.6-1-.3z"/><path d="M840.2 146.2l28 19.4-.4.8-28.2-19.4z"/><path d="M868 165.5v1l-115.2 13-.2-1z"/><path d="M752.8 178.4L832 189v1l-79.3-10.6zM867.5 165.6l.8.7-46 55.7-.7-.6z"/><path d="M753 178.6l31.5 49.7-1 .5-31.2-49.6zM755 404l21.5 21.8-.7.7-21.5-21.7z"/><path d="M789 413.4l.7.7-13.3 12.5-.6-.8z"/><path d="M789.7 413.4l12.4 17-.7.5-12.4-17z"/><path d="M802.2 430.4l7.7 11.3-1 .6-7.6-11.4z"/><path d="M809 441.8l1 .3-5.5 18.4-1-.3z"/><path d="M803.7 459.8l.6.7-7.3 5.7-.6-.8zM796.4 465.4l.6.8-7 6-.8-.8z"/><path d="M780 470.5l9.6 1v1l-9.6-1z"/><path d="M771.8 458l8.6 12.6-.8.6-8.7-12.6z"/><path d="M733 454.4l38.4 3.3v1l-38.5-3.3z"/><path d="M719 454l14 .5v1l-14-.6z"/><path d="M722.5 424.4l1 .2-4 30-1-.3z"/><path d="M754.4 404l.5.8-31.7 20-.5-.8z"/><path d="M755 404.4l7.5 28-1 .4-7.4-28.2z"/><path d="M762.4 432.3l20.2 26.8-.8.7-20.2-26.8z"/><path d="M801.3 430.3l.8.6-19.4 28.4-.8-.5z"/><path d="M801.2 430.6l1 .2-5 35h-1z"/><path d="M776.5 426l20.6 39.6-.8.4-20.6-39.6z"/><path d="M775.6 426l1 .2-4.8 32.2-1-.2z"/><path d="M723.4 424l48.3 34-.6.8-48.2-34z"/><path d="M723 424l39 8-.2 1-39-8z"/><path d="M776 425.6l.3 1-14 6.4-.5-1z"/><path d="M776.2 425.6l25.6 4.5-.2 1-25.6-4.4z"/><path d="M802.3 430.6l2.2 29.5-1 .2-2.2-29.5z"/><path d="M782 458.8l22 1-.2 1-21.7-1z"/><path d="M782.6 459l7.4 12.5-.8.5-7.4-12.5z"/><path d="M771.6 458l18.2 13.4-.6.8-18.2-13.5z"/><path d="M771.3 457.8l11 1-.2 1-10.8-1z"/><path d="M781.6 459.2l1 .2-2 11.7h-1z"/><path d="M776.6 426l4 45h-1l-4-45z"/><path d="M723 424l53 1.7v1l-53-1.7z"/><path d="M723.5 424.2l10 30.6-1 .3-10-30.5z"/><path d="M761.8 432.2l.6.8-29 22.4-.7-.8z"/><path d="M762.5 432.4l9.4 25.8-1 .3-9.4-25.8z"/><path d="M801.4 430.3l.7.7-30.3 27.7-.7-.8z"/><path d="M789.7 413.7l.3 58h-1l-.3-58z"/><path d="M809 441.6l.7.6L790 472l-1-.5z"/><path d="M809.3 441.5l.2 1-76.4 13v-1z"/><path d="M754.2 404.3l1 .4-21.8 50.5-1-.4z"/><path d="M754.2 404l.8.7-35.6 50-.8-.6zM790 471.7l3 16.7h-1l-3-16.5z"/><path d="M792.5 488l50 10.8v1L792 489zM850 497l.3.8-7.5 2-.3-1z"/><path d="M854.3 489l.8.4-4.4 8.2-1-.5z"/><path d="M859.8 482.4l.8.7-5.5 6.5-.7-.6z"/><path d="M861.4 471.7l1 .2-1.8 10.8h-1z"/><path d="M861.6 471.5l.8.6-19.3 27.6-.7-.6z"/><path d="M861.4 471.6l1 .4-7.4 17.5-1-.4z"/><path d="M854.3 488.8l.6.8-12 10-.7-.7zM788.6 185.3l.5.7-.7.6-.5-.8z"/><path d="M788.6 185.3l1 1.5-.8.5-1-1.4zM282.2 252.2l121.8 53-.4 1-121.8-53z"/><path d="M426.3 239.6v1l-169 25.5-.2-1z"/><path d="M425 239.7v1L249.6 272l-.2-1z"/><path d="M264 259l150.7 12.6v1L264 260zM132.5 117l79 18.3-.2 1-79-18.4z"/><path d="M268.4 78.4l.7.7-57.2 57.2-.7-.7zM793 396.4l1 .2-4.2 17.2-1-.3z"/><path d="M786.3 385.7l7.5 10.6-.8.6-7.5-10.7z"/><path d="M786.4 386l3.4 27.7h-1l-3.4-27.7z"/></g></svg>