<svg xmlns="http://www.w3.org/2000/svg" viewBox="0 0 900 585">
  <g fill="#5fb6d0">
    <path d="M247.7 173l10.2 70h-1l-10-70z"/>
    <path d="M247.5 172.8L295 209l-.5.5-47.4-36.2z"/>
    <path d="M294.5 208.8l.3.7-84 36-.3-.7z"/>
    <path d="M212 169.6h.7l-1.6 75.7h-.7z"/>
    <path d="M212 169.3l.6.6-50.8 44-.6-.6z"/>
    <path d="M161.7 213.4L211 245l-.5.5-49-31.5z"/>
    <path d="M247 173l.7.3-36.7 72.2-.7-.4zM253 244.4l.2.8-29.4 11.2-.2-.8z"/>
    <path d="M238.7 222.8l.6.3-15.2 33-.6-.2z"/>
    <path d="M270 165l.7.2-31.5 58-.6-.4zM211.5 129.5v.7l-100 5.7v-.8z"/>
    <path d="M111.6 135.2l47.5 36.5-.3.6-47.6-36.5z"/>
    <path d="M78.2 158.7l80.7 13-.2.6-80.7-13z"/>
    <path d="M82.8 139.3l.7.2-5 19.7-.7-.2z"/>
    <path d="M83 139.3l.5.3L52 202l-.6-.3z"/>
    <path d="M76 124.6l.6.3L51.8 201l-.7-.2z"/>
    <path d="M76.6 124.8l6.6 57.3-.7.2-6.6-57.4z"/>
    <path d="M78.6 159l4.6 23-.8.2-4.6-23z"/>
    <path d="M78.2 158.7v.8l-43.7 2.3v-.8z"/>
    <path d="M48.2 121.8h.8l-.6 55.6h-.8zM173.5 147.8l.8.2-12.4 65.8h-1z"/>
    <path d="M113.4 199.5l48 13.8v.7L113 200.2z"/>
    <path d="M78.5 158.8l35 40.8-.5.5-35.2-40.6zM161.2 213.4l.5.5-22 22-.5-.4z"/>
    <path d="M139.7 235.6l42 27-.3.6-42-27z"/>
    <path d="M181.4 262.5l.3.7-32.6 17-.2-.7z"/>
    <path d="M139.3 243.6l10 36-.7.3-10-36.2zM174.7 241.2v.7l-36 1.3v-.7z"/>
    <path d="M174.7 241.2l49.2 14.4-.4.8-49-14.4z"/>
    <path d="M208.8 191.3l15.3 64.5-.6.2-15.3-64.5zM206 263.6l.4.6-40 29.7-.3-.7z"/>
    <path d="M174.3 241.5h.7l-8.4 52h-.7z"/>
    <path d="M166.5 293.3l29.5 26.3-.5.6L166 294zM206.4 263.5L241 276l-.4.6-34.4-12.3z"/>
    <path d="M238.7 222.8l.7.5-32.8 41-.6-.5zM257.6 242.7l24.5 3.6v.8l-24.5-3.5z"/>
    <path d="M273 215.4l.6.4-15.7 27.5-.8-.4z"/>
    <path d="M273 215.3l.6.5-55 61.6-.6-.5z"/>
    <path d="M218 276.8l.3.7-52 16.4v-.7zM132.7 111.3l66.6 93-.6.3-66.5-93zM176.3 305.6l56.3 24-.2.8-56.4-24.2zM256.4 356l15 51.2-.8.2-15-51z"/>
    <path d="M319 371l.4.4-48.2 36.2-.4-.6z"/>
    <path d="M263.8 346l55.6 24.8-.3.7-55.5-24.7z"/>
    <path d="M264 346l37.4 59.7-.7.4-37.5-59.4z"/>
    <path d="M301 405.8l.6.4-20.2 41-.7-.5z"/>
    <path d="M312.3 424.2l.4.7-31.5 22-.5-.5z"/>
    <path d="M319 371l.7.2-6.8 53.5h-1z"/>
    <path d="M319 370.7l.3.7-64 16.4-.3-.7z"/>
    <path d="M255.2 387l64.5 18.2-.2.7-64.5-18z"/>
    <path d="M319.3 405.4l.7.2-7.5 37.2-.8-.2z"/>
    <path d="M312 442.4l.2.8-31.3 4-.2-.7z"/>
    <path d="M280.7 446.6l.6.5-22 27.8-.6-.5z"/>
    <path d="M299.6 456.5l.3.7-41 17.6-.2-.6z"/>
    <path d="M299.6 456.7l.5.5-37 38-.6-.6z"/>
    <path d="M270.7 407.2h.7l-8.4 87.5h-.7zM289 450.8l.6.2-29 63.4-.5-.3zM441.8 224.4l.2.7-178 29v-.8zM453.5 238.3l.4.6-39.2 27.4-.4-.6z"/>
    <path d="M442.2 224.6l12 14-.7.4-12-14zM304 111.5l7 50.7h-1l-6.8-50.6zM470.6 145l56.5 4.8v.7l-56.4-4.8z"/>
    <path d="M494.2 121.8l33 28-.3.6-33.3-28z"/>
    <path d="M494.3 122l16.8 62.5-.6.2-16.8-62.4z"/>
    <path d="M488.3 168.6l22.7 15.6-.4.7-22.8-15.8zM486.5 164l.3.5-37 19-.3-.6zM528.6 204.3l.3.7-75 34-.3-.6z"/>
    <path d="M528.5 204.5l.7.3-17.4 35.2-.8-.4z"/>
    <path d="M519.3 176.4h.8L512 240h-.8z"/>
    <path d="M573 169.7v.7l-53.3 6.4v-.7z"/>
    <path d="M563 140.2l10.2 29.8-.7.3-10.2-30z"/>
    <path d="M562.3 140.2l.7.2-16.5 74.7h-.6z"/>
    <path d="M546.6 215l.3 42.2h-1l-.2-42z"/>
    <path d="M546.5 256.7l57.2.2v.7l-57.2-.2z"/>
    <path d="M554.4 241l49.5 16-.3.7L554 242z"/>
    <path d="M554.5 241.2l44.2 62.7-.6.3-44-62.7z"/>
    <path d="M544.7 283l53.7 20.7-.3.8-53.6-20.7z"/>
    <path d="M544.2 283.4h.7l-2.7 45h-.7z"/>
    <path d="M580.7 312.2l.3.7-38.8 15.8-.4-.8z"/>
    <path d="M581 312.2v.8l-48.4 1.3v-.8z"/>
    <path d="M525.3 280.4l7.7 33.4-.7.2-7.7-33.5z"/>
    <path d="M524.7 280l.3.8-15.3 7.7-.3-.7z"/>
    <path d="M509 288l1 .3-27.5 68.8h-.8z"/>
    <path d="M472.3 298.5l10.2 58.5h-.7l-10.2-58.3z"/>
    <path d="M471.5 298.5l.7.3-16.7 47-.6-.2z"/>
    <path d="M436.4 297.7l19 47.7-.6.3-19-47.7z"/>
    <path d="M435.6 298h.8v56.5h-.8z"/>
    <path d="M405 348l31 6-.2.8-31-6.2z"/>
    <path d="M468.8 282.4l.5.5-64 65.5-.5-.5z"/>
    <path d="M469.3 282.4l41 52.8-.7.5-41-52.8z"/>
    <path d="M509.7 335.2l.7.5-40.7 52.2-.7-.6z"/>
    <path d="M526.3 370.3l.2.7-57.2 17v-.7z"/>
    <path d="M541.6 328.3l.7.2-15.7 42.4-.6-.3zM404 299.4l51.7 25.5-.3.6-51.8-25.5z"/>
    <path d="M420.7 280l35.2 45-.8.5-35-45z"/>
    <path d="M420.7 279.8l56.5 34.6-.4.7-56.6-34.5z"/>
    <path d="M476.6 314.6l.7.3-13 43-.7-.2z"/>
    <path d="M530.8 345.5l.2.8-66.8 12-.2-.8z"/>
    <path d="M530.5 345.7l.7.2-12.8 55.3-.6-.2z"/>
    <path d="M477.2 314.6l41.3 86.5-.8.4-41.2-86.5z"/>
    <path d="M476.5 314.7h.8l-4 93.2-1-.2z"/>
    <path d="M473 407.4l26.5 20.8-.5.6-26.5-20.8z"/>
    <path d="M499 428.6h.7l-.5 26h-.8z"/>
    <path d="M532.3 383.4l.8.4-33.7 71-.8-.3zM691.7 106.2l.2.8-129.2 33.7-.2-.8z"/>
    <path d="M691.4 106.5l.7.4-54 101-.6-.2z"/>
    <path d="M573 169.8l65 37.8-.5.6-64.8-37.8z"/>
    <path d="M573 169.8l79 79.4-.4.5-79-79.4z"/>
    <path d="M651.7 249l.5.8-47 30.6-.5-.6z"/>
    <path d="M579 222.8l26.3 57.2-.8.3L578 223z"/>
    <path d="M578.5 222.5L697.7 235v1l-119.3-12.7z"/>
    <path d="M697.4 235.3l.5.5-82.7 85.4-.5-.5z"/>
    <path d="M651.6 249.3l.6.3-37 71.4-.5-.3z"/>
    <path d="M652 249l66.6 13.8-.2.7-66.6-13.7z"/>
    <path d="M718.2 263l.8.4-27 75.6-.8-.2zM692 339l2 43h-1l-1.8-43zM692 106.5l61 66.4-.4.3-61-66.3z"/>
    <path d="M839.8 140.3l.3.7-87 32.5-.4-.8z"/>
    <path d="M839.5 140.5l.7.3-24 59.4-1-.3z"/>
    <path d="M827 132.8l.8.2-11.8 67h-.6z"/>
    <path d="M650.5 130.8l177 1.8v.8l-177-1.8z"/>
    <path d="M650.8 131l39 85.8-.8.4-39-85.8z"/>
    <path d="M689.3 216.7l57.3 2v.7l-57.3-2z"/>
    <path d="M746 219h1l-5 23.4-.8-.2z"/>
    <path d="M741.6 242v.7l-89.6 7v-.7z"/>
    <path d="M661.4 182.5h.8l-9.8 67h-.8z"/>
    <path d="M774 110.8l.3.6L662 183l-.5-.7z"/>
    <path d="M774.6 111l10 111.6h-.8l-10-111.4z"/>
    <path d="M827 132.8l.8.4-43.3 89.7-.7-.5z"/>
    <path d="M827.4 132.4v.8l-264.6 7.6v-.8z"/>
    <path d="M563 140l41.2 128-.8.2-41-127.8zM674.2 213l1.7.5-.3.7-1.7-.3zM304 111.5l10.5 34-1 .3-10.3-34z"/>
    <path d="M269 72.4l35 39-.8.5-34.8-39z"/>
    <path d="M304 111.3l42 41.5-.6.7-42-41.5z"/>
    <path d="M314 145.2l32 7.5-.3 1-32-7.6zM303.7 111l79.3 12v1l-79.4-12z"/>
    <path d="M382.7 123.3l.6.8-37.2 29.6-.5-.8z"/>
    <path d="M383 123.2l.2 1-69 22-.3-1z"/>
    <path d="M313.4 145.6l1 .2-3.5 16.5-1-.2z"/>
    <path d="M311 162l10.2 18-1 .5-10-18z"/>
    <path d="M345.5 152.8l.7.7-25 27-.8-.6z"/>
    <path d="M345.6 152.6l.3 1-35.4 9-.2-1z"/>
    <path d="M345.8 152.7l34.6.4v1l-34.6-.3z"/>
    <path d="M380.8 153.5l3 9-1 .4-3-9.2z"/>
    <path d="M392.3 155l.6 1-9.2 7-.7-.7z"/>
    <path d="M392.2 150.3l1 5.2h-1l-1-5z"/>
    <path d="M391.7 150l.2 1-11.5 3-.3-.8z"/>
    <path d="M380.4 153l12.3 2-.2 1-12.2-2z"/>
    <path d="M390.7 150.7l.8.5L384 163l-1-.5zM211.3 129.4l.4 1-37.6 18-.3-1z"/>
    <path d="M132.8 111l41.4 36.5-.7.7L132 112z"/>
    <path d="M173.5 147.5l.8.6-15 24.2-.8-.5z"/>
    <path d="M129 156l30.2 15.6-.4 1-30-15.8z"/>
    <path d="M173.8 147.3l.2 1-45 8.5v-1z"/>
    <path d="M132 111.4h1l-3.6 45h-1z"/>
    <path d="M132 111l.8.8-21 24-.7-.7z"/>
    <path d="M112 135.2l17.3 20.8-.7.7-17.5-21z"/>
    <path d="M111.5 135l62.5 12.4-.2 1-62.5-12.4z"/>
    <path d="M133 111.3l26.5 60.5-1 .4-26.5-60.5zM111.4 135v1l-28 4-.3-1z"/>
    <path d="M76.7 124.6l7 14.6-1 .4-7-14.6z"/>
    <path d="M76.4 124.2l35.2 10.8-.3 1L76 125z"/>
    <path d="M48.6 121.3l27.7 3v1l-27.8-3zM83.3 139l45.8 17-.3.8-45.8-17z"/>
    <path d="M48.2 121.4l.8.7-16.6 16.5-.7-.7z"/>
    <path d="M32 137.6l51.2 1.4v1L32 138.6z"/>
    <path d="M48.8 121.3L83.4 139l-.4 1L48.4 122zM32.5 138l2.4 23.3h-1l-2.5-23z"/>
    <path d="M34.7 161l13.6 16-.7.7-13.6-16z"/>
    <path d="M48.5 177.3l3.8 24.6h-1l-3.8-24.5z"/>
    <path d="M75.8 124.5l1 .5-28.4 52.5-1-.4z"/>
    <path d="M83 139l.4 1-48.8 22-.4-1z"/>
    <path d="M49 121.5l29.5 37.3-.8.7-29.5-37.3z"/>
    <path d="M77.7 159l1 .2-5.6 19.5-.8-.3z"/>
    <path d="M48 176.8l24.7 1.2v1L48 177.8z"/>
    <path d="M78 158.7l.4 1-30 18-.6-.8z"/>
    <path d="M129 155.8v1l-51 2.8v-1z"/>
    <path d="M82.7 139.4h1l-.4 42.7h-1z"/>
    <path d="M73 178l10 3.6-.4 1-10-3.6z"/>
    <path d="M72.2 178.2l.8.7L52.2 202l-.8-.6z"/>
    <path d="M32.5 138l19.8 63.7-1 .3-19.7-63.8z"/>
    <path d="M32.2 137.6l46 21-.3 1-46.2-21z"/>
    <path d="M111 135l.7 1-33.2 23.6-.6-1z"/>
    <path d="M76.5 124.4l52.7 31.6-.5.8L76 125.2z"/>
    <path d="M32 137.7l97 18.2-.2 1L32 138.6z"/>
    <path d="M32.4 137.8L73 178.2l-.7.7-40.6-40.5zM83 181.7l30.6 17.7-.5 1-30.4-17.8z"/>
    <path d="M128.4 156.2l1 .3-15.6 43.5-1-.3z"/>
    <path d="M83.6 139.3l30 60.4-.8.4-30-60.3z"/>
    <path d="M78.3 158.6l61.6 31.7-.6.8L78 159.6z"/>
    <path d="M158.6 171.6l.7.7L140 191l-.7-.7z"/>
    <path d="M158.7 171.6l.6 1-45.7 27.8-.5-1zM139.3 190.4l.8.6-15 21-1-.7z"/>
    <path d="M124.6 211l37 2.2-.2 1-37-2.2z"/>
    <path d="M113.7 199.5l11.2 11.7-.8.7L113 200zM140 190.3l21.8 23-.7.7-21.7-23z"/>
    <path d="M212 169.2l.4 1-72.6 21-.3-1z"/>
    <path d="M211.8 169.5h1l-3.8 22-1-.3z"/>
    <path d="M174 147.4l38.5 21.7-.5 1-38.4-21.7z"/>
    <path d="M212.3 169v1l-53.2 2.5v-1z"/>
    <path d="M159 171.5l49.6 19.5-.3 1-49.5-19.6z"/>
    <path d="M208 191l.8.7-9.4 13-.8-.6z"/>
    <path d="M174.4 147.6l25 56.6-.8.4-25-56.6zM212 130l.7 39.6h-1L211 130z"/>
    <path d="M212.3 169l35 3.5v1l-35-3.4z"/>
    <path d="M246.8 173h1l-8.4 50h-1z"/>
    <path d="M208.8 191l30.5 31.6-.7.7-30.5-31.6zM270.3 164.6l.4 1-23.2 8-.3-1z"/>
    <path d="M270 165h1l-1 28.7h-1z"/>
    <path d="M247.6 172.7l22.3 20.6-.8.7-22.3-20.5zM270 193.2l25 15.6-.6.8-25-15.5z"/>
    <path d="M294.5 208.7l.3 1-21.3 6.4-.3-1z"/>
    <path d="M273.2 215l.2 1-34.3 7.5v-1z"/>
    <path d="M269.3 193.3l.7.7-30.6 29.4-.7-.8z"/>
    <path d="M247.7 172.8l26 42.5-1 .5-25.8-42.5z"/>
    <path d="M270 193.5l3.7 22h-1l-3.6-21.8zM271 164.8l24 44-.7.6-24.2-44zM128.4 156.3h1l-4.4 55.4h-1zM161.2 213.3l.6.8-24 16.2-.6-.8z"/>
    <path d="M125 211.3l13 18.2-1 .6-13-18.2z"/>
    <path d="M199 204v1l-74.4 7v-1z"/>
    <path d="M199 204l.2 1-37.6 9.2-.2-1z"/>
    <path d="M159.5 172l2.5 41.6h-1l-2.5-41.6zM138 229.6l2 6-1 .4-2-6z"/>
    <path d="M139 235.8h1l-1 7.2h-1zM139 243l.7 25.3h-1L138 243z"/>
    <path d="M139.5 268l10 11.5-1 .6-9.7-11.3z"/>
    <path d="M149 279.3l15.5 1.8v1l-15.6-1.7z"/>
    <path d="M165 281.5l2 12h-1l-2-11.8z"/>
    <path d="M149.3 279.4l17.3 13.8-.6.7-17.3-13.8zM166.8 293.3l9.8 12.2-.8.7L166 294z"/>
    <path d="M176.4 305.4l19.7 14-.4 1-19.7-14z"/>
    <path d="M197 293h1l-1.7 27h-1z"/>
    <path d="M204.8 291l.2 1-7.4 1.4-.2-1z"/>
    <path d="M204.5 291.3l1 .3-9 28.5-1-.2z"/>
    <path d="M237.6 289.2v1l-32.8 1.6v-1z"/>
    <path d="M238 289.6l4 12.4-1 .3-4-12.4z"/>
    <path d="M241.2 276.3l1 26h-1l-1-26z"/>
    <path d="M249.2 265.3l.8.6-8.8 10.6-.8-.7z"/>
    <path d="M254 260.7l.6.7-4.7 4.6-.8-.7z"/>
    <path d="M257 259l.4 1-3 1.5-.5-1z"/>
    <path d="M263.8 253.2l.6.8-6.7 6-.7-.7z"/>
    <path d="M282 246.2l.4 1-18 6.8-.4-1z"/>
    <path d="M270.7 233.8l11.8 12.5-.8.7-11.8-12.5z"/>
    <path d="M270 233.7l.6.8-12.8 9-.5-.8z"/>
    <path d="M294.3 209l.7.6-24.3 25-.7-.8z"/>
    <path d="M272.8 215.4l1 .2-3 18.6-1-.2zM320.4 180l.7.6-26 29-.7-.7zM393 155.2l37.8 43-.8.6-37.8-43zM174.4 241.2l.4 1-20.3 9-.4-1z"/>
    <path d="M175 241.4l7 21.3-1 .3-6.8-21.3z"/>
    <path d="M165.8 258.2l15.8 4.2-.2 1-16-4.2z"/>
    <path d="M166.2 258.4l11.7 17.8-1 .6-11.7-17.8z"/>
    <path d="M206 263.5l.5 1-29 12.5-.3-1z"/>
    <path d="M210.2 245l1 .4-4.3 18.7h-1z"/>
    <path d="M183.6 225l27.2 19.8-.6.8L183 226z"/>
    <path d="M183.8 225.3l23 38.4-1 .5-22.8-38.4zM211 244.8l13 10.8-.5.8-13.2-10.8z"/>
    <path d="M234 253l.3 1-10.4 2.4-.3-1z"/>
    <path d="M253 244.3l.3 1-19 8.7-.4-1z"/>
    <path d="M239.4 222.7l14 21.7-.8.6-14-21.8z"/>
    <path d="M239.3 222.7l18.6 20-.8.8-18.6-20z"/>
    <path d="M257.3 242.6l.4 1-4.5 1.7-.4-1z"/>
    <path d="M253.3 244.4l11 8.8-.6.8-11-8.8z"/>
    <path d="M270 234l.8.3-6.2 19.5-1-.3z"/>
    <path d="M258 242.8l6.5 10.4-1 .6-6.4-10.5zM273 215.2l.6.7-39.2 38-.7-.8z"/>
    <path d="M234.4 253.2l15.4 12-.6.8-15.4-12z"/>
    <path d="M234.3 253l20 7.6-.2 1-20-7.6zM253.6 244.7l4.2 14.8-1 .3-4.2-15z"/>
    <path d="M234.2 253l23 6v1l-23.2-6z"/>
    <path d="M234.6 253.4l6.6 22.8-1 .3-6.6-22.8z"/>
    <path d="M224 255.5l25.8 9.7-.4 1-25.8-9.7z"/>
    <path d="M223.8 255.4l30.5 5-.2 1-30.4-5z"/>
    <path d="M223.3 255.8l1 .3-5.6 21.3-1-.3z"/>
    <path d="M218 276.7l.4 1-17 6-.4-1z"/>
    <path d="M205.8 263.8l1 .3-5.2 19.3-1-.3z"/>
    <path d="M206.8 263.6l12 13.2-1 .7-11.8-13.2zM238.7 222.6l.6.8-28.3 22.2-.7-.8z"/>
    <path d="M199.5 204.3L211 245l-1 .3-11.4-40.8z"/>
    <path d="M239 222.5v1l-55.6 2.5v-1z"/>
    <path d="M238.4 223h1l-4.8 30.6-1-.2z"/>
    <path d="M210.8 244.8l23.5 8.3-.4 1-23.6-8.3zM198.7 204l.8.7-15.8 21.2-.8-.7z"/>
    <path d="M161.8 213.2l21.8 12-.4.8-22-12z"/>
    <path d="M162 213.5l13.2 28-1 .3-13-27.8z"/>
    <path d="M183 225.4l.8.5-8.7 15.8-.8-.4z"/>
    <path d="M174.7 241l36 3.7-.2 1-36-3.6z"/>
    <path d="M273 215l.5 1-62.6 29.6-.6-1z"/>
    <path d="M209 191.4l2 54h-1l-2-54zM223.5 255.5l.4 1-17.6 8-.4-1z"/>
    <path d="M224.2 255.6l17 20.4-.8.6-17-20.3z"/>
    <path d="M240.7 275.8v1l-22.5 1v-1z"/>
    <path d="M218.4 276.7l19.4 12.6-.5 1-19.4-12.7z"/>
    <path d="M217.8 276.8l.7.7-13.3 14.2-.7-.7z"/>
    <path d="M201.5 283l3.8 8.2-1 .4-3.7-8.2z"/>
    <path d="M200.7 283l1 .3-3.8 9.8-1-.3z"/>
    <path d="M177.8 276l20 16.5-.6.8-20-16.4z"/>
    <path d="M177.6 276l23.7 6.7-.3 1-23.7-6.7z"/>
    <path d="M182 262.5l19.4 20.3-.7.7-19.6-20.3z"/>
    <path d="M181.5 262.4l24.8 1v1l-24.8-1z"/>
    <path d="M175 241.2l31.5 22.3-.6.8-31.7-22.3zM233.7 253.3l1 .5-16 23.7-1-.6zM240.3 276.2l1 .2L238 290l-1-.3zM177.2 276l.4 1-13 5-.3-1z"/>
    <path d="M177 276.3l1 .5-11.2 17-1-.4z"/>
    <path d="M197.4 292.4v1l-31 .7v-1z"/>
    <path d="M197.2 292.5l.5.8-21.2 13-.6-1z"/>
    <path d="M177 276.5h1l-1.3 29.4h-1z"/>
    <path d="M181 262.8l1 .2-4 13.7-1-.2z"/>
    <path d="M210.3 245l.5.7-29 17.7-.6-1zM139.8 235.5l14.8 14.8-.7.7-15-14.8z"/>
    <path d="M138 229.5l16.7 21-.8.5-16.8-21z"/>
    <path d="M183.2 225l.3 1-44 10.3v-1z"/>
    <path d="M161 213.7h1l-7.2 37h-1z"/>
    <path d="M138.7 242.5l15.8 7.7-.5 1-15.7-7.8z"/>
    <path d="M154 250.4l.7.6-15.2 17.7-.7-.6z"/>
    <path d="M153.7 250.6l1 .2-5.2 29.2-1-.2z"/>
    <path d="M165.6 258.2l.3 1-26.7 9.6-.3-1z"/>
    <path d="M139 242.7l25.8 38.6-.8.5-26-38.6z"/>
    <path d="M165.2 258.7h1l-1.2 23h-1z"/>
    <path d="M154.6 250.3l11.4 8-.6 1L154 251z"/>
    <path d="M174.2 241.4l1 .4-9 17.2-1-.4z"/>
    <path d="M139.6 235.3l35.2 5.8-.2 1-35-5.7z"/>
    <path d="M138.2 229.4L175 241l-.4 1-36.7-11.7zM200.8 282.8l.6.7-24.7 22.2-.7-.8zM196 319.5l18 13.2-.7.8-17.8-13.2z"/>
    <path d="M232.4 329.5l.2 1-19 3v-1z"/>
    <path d="M196 319.4l36.7 10-.3 1-36.6-10zM214 332.6l20.8 11-.4 1-21-11z"/>
    <path d="M233 330l2 14-1 .2-2-14z"/>
    <path d="M234.8 343.7l18.3 8.7-.3 1-18.4-8.8zM218.5 276.8l23.4 25-.8.8-23.4-25zM263.7 253.2l.8.6L238 290l-.8-.6zM199.3 204l40 18.6-.5 1-40-18.7z"/>
    <path d="M139.8 190.3L199 204v1L139.5 191z"/>
    <path d="M211 129.7l1 .5-50 83.7-1-.6zM129.5 156.3l25.3 94.3-1 .3-25.3-94.5zM133 111.5l7.2 79-1 .2-7.3-79.2z"/>
    <path d="M128.7 156l.5.8-46 25.8-.6-1z"/>
    <path d="M129.3 156l54.4 69.2-.8.7-54.5-69.3z"/>
    <path d="M161.5 213.3l77.5 9.2v1l-77.6-9.3zM124.8 211l86 33.8-.4 1-86-33.7zM83.5 139l56.5 51.4-.7.7-56.5-51z"/>
    <path d="M159 171.5v1l-76 10-.2-1z"/>
    <path d="M112 135.5l1.8 64.4h-1l-2-64.4zM212 169.2l.4 1-87.7 42-.5-1zM263.3 346l.5.8-10.7 6.4-.4-.8z"/>
    <path d="M274 341.8l.4 1-10.6 4-.4-1z"/>
    <path d="M274.4 341.7l21.2 9-.4 1-21-9z"/>
    <path d="M295.5 350.8l6.3 2.3-.4 1-6.3-2.3z"/>
    <path d="M301.6 353l8 1.3v1l-8-1.2z"/>
    <path d="M309.6 354.3v1l-53.6 1.3v-1z"/>
    <path d="M255.8 355.7l.5 1-5.7 3-.5-.8z"/>
    <path d="M249.8 359l1 .4-4.2 9-1-.3z"/>
    <path d="M245.8 368l.7.7-3.2 3.8-.8-.7z"/>
    <path d="M243.4 372.2l1 14.2h-1l-1-14.2z"/>
    <path d="M244 386l11.2 1v1l-11.2-1z"/>
    <path d="M255 387l26.2.6v1l-26-.7z"/>
    <path d="M291.4 374.6l.8.6-10.6 13.3-.8-.6z"/>
    <path d="M311.4 366l.4.8-19.8 8.5-.4-1z"/>
    <path d="M310 354.8l2 11.4-1 .2-2-11.4z"/>
    <path d="M312 366l7.6 4.7-.6.8-7.7-4.8z"/>
    <path d="M310 354.6l9.7 16.3-1 .4-9.5-16.3z"/>
    <path d="M309.2 354.5l.8.7-18 20-.6-.7z"/>
    <path d="M256.2 355.7l35.8 18.7-.5 1-35.7-18.8z"/>
    <path d="M255.6 356h1l-1 31.5h-1z"/>
    <path d="M291.6 374.3l.3 1L255 388l-.3-1z"/>
    <path d="M246.3 368l45.7 6.3-.2 1-45.6-6.4z"/>
    <path d="M246.7 368l9 19.2-1 .5-9-19z"/>
    <path d="M250.8 359.2l4.8 28.2h-1l-4.8-28z"/>
    <path d="M250.5 358.8l41.5 15.5-.4 1-41.5-15.6z"/>
    <path d="M294.8 351l1 .3-3.6 23.5h-1z"/>
    <path d="M263.6 346l31.8 4.8-.2 1-31.7-5z"/>
    <path d="M263 346l1 .7-7.8 10-.8-.5z"/>
    <path d="M253.3 352.5l3 3.6-.8.7-3-3.6z"/>
    <path d="M295.3 350.8v1l-42.3 1.5v-1z"/>
    <path d="M295.6 351l16.3 15-.8.7-16.2-15z"/>
    <path d="M302 353.3l10 12.8-.8.7-10-12.7z"/>
    <path d="M301 353.4l1 .4-9.8 21.3-1-.4z"/>
    <path d="M264 346l28 28.5-.6.7-28-28.4z"/>
    <path d="M264 346.2l17.6 41.7-1 .3-17.5-41.7z"/>
    <path d="M246.4 368l35 19.8-.5 1-35-20z"/>
    <path d="M294.8 351l.3 1-48.6 17-.3-1z"/>
    <path d="M295 351l.6.6-40 36.2-.8-.7z"/>
    <path d="M243.3 371.8l12.2 15.2-.8.7-12.2-15.2z"/>
    <path d="M254.7 387.2l1 .5-6 9.7-.8-.5z"/>
    <path d="M249.6 396.8l3.4 4-.7.7-3.4-4z"/>
    <path d="M253 400.7l18.3 6-.3 1-18.4-6z"/>
    <path d="M280.7 388l1 .4-10.2 19-1-.4z"/>
    <path d="M281 387.8l.4 1-28.5 13-.5-1z"/>
    <path d="M243.4 372l9.8 29-1 .4-9.8-29zM244.4 386.2l5.3 10.7-1 .4-5.2-10.8z"/>
    <path d="M244.3 386l27 20.8-.6.8-27-20.8z"/>
    <path d="M255.5 387.2l16 19.8-1 .6-15.8-19.8z"/>
    <path d="M255.3 387l46 18.5-.4 1-46-18.6z"/>
    <path d="M301 405.5v1l-30 1.3v-1z"/>
    <path d="M271.4 407l7.7 6.6-.6.8-7.6-6.8z"/>
    <path d="M280.6 388l1 .2-2.4 25.8h-1zM319.5 370.7l14 8.7-.4 1-14-9z"/>
    <path d="M333 379.5l.7.7-32.3 26.2-.6-.8z"/>
    <path d="M292.3 374.7l9.3 31-1 .4-9.3-31z"/>
    <path d="M319.2 370.6v1l-27.3 3.7-.3-1z"/>
    <path d="M319.4 370.7l30.8 9.6-.3 1-31-9.7z"/>
    <path d="M350.6 380.7l1 5.7-1 .2-1-5.7z"/>
    <path d="M350.7 386.2l.8.6-8 12.4-.8-.6zM342.7 398.6l.8.6-13.4 17.3-.7-.6z"/>
    <path d="M330.2 416.2l1.8 7.2-1 .3-1.8-7.3z"/>
    <path d="M320 405.2l12 18-.8.6-12-18z"/>
    <path d="M320 405.4l4.3 20.4-1 .2-4-20.4z"/>
    <path d="M312.5 424l11.4 1.3-.2 1-11.4-1.2z"/>
    <path d="M312.3 424l.3 1-15.3 4.8-.3-1z"/>
    <path d="M297.4 429l15 13.4-.6.7-15-13.3z"/>
    <path d="M312 442.2l.3 1-23 8-.2-.8z"/>
    <path d="M289.6 450.5l5.4 5.7-.8.7-5.3-5.8z"/>
    <path d="M294.6 456l5.2.3v1l-5.2-.2z"/>
    <path d="M278.3 428.4l22 28.2-1 .6-21.8-28.2z"/>
    <path d="M271.5 407l6.8 21.5-1 .3-6.8-21.4z"/>
    <path d="M270.5 407.2h1l-6.7 45.2h-1z"/>
    <path d="M277.5 428.5l1 .5-13.7 23.6-1-.5z"/>
    <path d="M278.2 414h1l-.8 14.7h-1z"/>
    <path d="M279 413.6l18.4 15.4-.6.7-18.4-15.3z"/>
    <path d="M300.6 406h1l-4 23.4-1-.2z"/>
    <path d="M301.5 405.7l11.4 18.6-1 .6-11.3-18.8z"/>
    <path d="M319 405.8l1 .3-7 18.7-1-.4zM333 379.7l.8.4L320 406l-.8-.5z"/>
    <path d="M319.8 371l.4 34.5h-1l-.4-34.3z"/>
    <path d="M318.8 371l1 .3-18.2 35-1-.5z"/>
    <path d="M281.5 387.8l20 18-.7.6-20-17.8z"/>
    <path d="M333.3 379.4v1l-52 8.3-.2-1zM333.3 379.4l16.7 1v1l-16.7-1z"/>
    <path d="M349.7 380.4l.7.8L320 406l-.7-.8z"/>
    <path d="M343 398.5l.2 1-23.4 6.5-.2-1z"/>
    <path d="M333.8 379.7l9.7 19-1 .5-9.6-19z"/>
    <path d="M333.6 379.5l17.8 6.6-.4 1-17.8-6.6z"/>
    <path d="M351.2 386v1l-70 1.7v-1z"/>
    <path d="M319 370.7l.4 1-38 17-.4-1z"/>
    <path d="M319.8 371l10.4 45-1 .3-10.4-45z"/>
    <path d="M329.5 416l.4.8-17.3 8.3-.4-.8z"/>
    <path d="M312 366.3l1 58.3h-1l-1-58.3z"/>
    <path d="M311 366l1 .5-33 47.7-.7-.5z"/>
    <path d="M279 413.5l33.6 10.6-.3 1-33.7-10.6z"/>
    <path d="M350.8 386l.7.8-38.7 38-.7-.6z"/>
    <path d="M351 386l.3 1-49.7 19-.3-1z"/>
    <path d="M301.4 405h18.2v1h-18.2z"/>
    <path d="M319.4 405.2l.7.6-22.5 24-.7-.8zM312 424.6h1l-.3 18.2h-1z"/>
    <path d="M278 428.2l34.3 14-.3 1-34.3-14z"/>
    <path d="M300.8 405.6l.7.8-23.3 22.7-.7-.6z"/>
    <path d="M278.4 428.6l3 18-1 .3-3-18.2z"/>
    <path d="M280.5 446.5l.8.6-20 22.4-.7-.7z"/>
    <path d="M272.2 467.5v1l-11.2 1v-1z"/>
    <path d="M272 467.6l.5 1-13.3 6.4-.4-1z"/>
    <path d="M259 474l5 1.3-.3 1-4.8-1.2z"/>
    <path d="M264 475.3l14.4 7.3-.4 1-14.5-7.4z"/>
    <path d="M288.8 450.7l1 .3-11.2 32-1-.2zM280.7 446.3l.4 1-16.6 5.5-.3-1z"/>
    <path d="M296.8 429l.7.8-16 17.4-1-.7z"/>
    <path d="M296.7 429.3h1l-2.6 27.4h-1z"/>
    <path d="M311.8 442.4l.7.8L295 457l-.7-.8z"/>
    <path d="M311.8 442.4l.8.7-12.4 14.2-.8-.6zM281.2 446.4l8.3 4-.5 1-8.3-4z"/>
    <path d="M323.4 425.5l1 .6-11.8 17-.8-.6z"/>
    <path d="M331.4 423l.3 1-7.7 2.3-.3-1z"/>
    <path d="M342.6 398.7l1 .4-11.6 24.7-1-.4zM264.8 452.2l8 15.6-1 .5-8-15.7z"/>
    <path d="M289 450.5l.6.8-17 17-.6-.6zM299.4 456.6l.8.6-21.6 26.2-.8-.6z"/>
    <path d="M294.2 456.3l.8.5-16.4 26.5-1-.5z"/>
    <path d="M294.4 456.2l.5 1-22.5 11.3-.4-.8z"/>
    <path d="M272.7 468l6 15-1 .3-6-15z"/>
    <path d="M280.5 446.7l1 .3-8.8 21.2-1-.3zM263.8 452.3l1 .2-3.4 16.7-1-.2zM260.4 469l1 .3-2 5.4-1-.3z"/>
    <path d="M272 467.7l.6.7-8.5 7.7-.6-.6zM277.7 482.8l1 .5-5.5 8-.8-.4z"/>
    <path d="M278 482.6l.3 1-17.5 7.3-.4-1z"/>
    <path d="M259.5 474.5l1.7 16h-1l-1.7-16z"/>
    <path d="M259.4 474.3l13.8 16.6-.8.5-13.8-16.6z"/>
    <path d="M272.6 490.7l.4 1-10.2 3.5-.4-1z"/>
    <path d="M263 494.6l6.6 17.3-1 .3-6.4-17.4zM269.6 512l2.2 13.8-1 .2-2.2-13.8z"/>
    <path d="M261 514l10.6 11.6-.7.7-11-11.7z"/>
    <path d="M260.2 490.5h1l-.2 23.8h-1z"/>
    <path d="M261.2 490.3l2 4.2-1 .5-2-4.3z"/>
    <path d="M263 494.6l8.7 31.3h-1l-8.6-31zM272.3 491l1 .2-3.8 21-1-.2z"/>
    <path d="M272.4 491l1 .5-12.5 23-1-.4z"/>
    <path d="M269 511.7l.2 1-8.6 2-.2-1z"/>
    <path d="M262.2 494.7h1l-2.2 19.6h-1z"/>
    <path d="M271.8 468l1 .3L263 495l-.8-.4zM263.3 475.6l1 .2-3.2 14.8-1-.2zM409.5 352.2l.4 1-59.7 28-.4-1z"/>
    <path d="M405.4 348l4.6 4.2-.7.7-4.6-4.4z"/>
    <path d="M404.3 344.2l1.2 4-1 .2-1.2-4z"/>
    <path d="M416.7 336.2l.5.8-13.2 7.8-.5-1z"/>
    <path d="M409.5 325.6l7.8 10.7-.8.6-7.8-10.8z"/>
    <path d="M409 325.5l.3 1-15 5.8-.3-1z"/>
    <path d="M396.7 322.4l1 .3-3 9.3-1-.3z"/>
    <path d="M397.4 322l12 3.5-.4 1-12-3.5zM394.6 331.5L404 344l-.7.6-9.5-12.5zM409.7 352l26.2 2-.2 1-26.2-2z"/>
    <path d="M433 336.2l3.4 18.2-1 .2-3.4-18.2z"/>
    <path d="M432.5 335.8v1l-15.5.3v-1z"/>
    <path d="M417.3 336.3l19 18-.7.6-19-18z"/>
    <path d="M432 336l.7.7L410 353l-.6-1z"/>
    <path d="M432.2 336l.4.8-27.4 12-.4-1z"/>
    <path d="M409.6 326l.5 26.7h-1l-.4-26.7z"/>
    <path d="M394.4 331.3L417 336l-.2 1-22.7-4.8z"/>
    <path d="M394.5 331.3L436 354l-.4 1L394 332zM403.3 299.6l1 .3-6.6 22.6-1-.3z"/>
    <path d="M404 299.5l28.7 36.5-.7.7-28.6-36.6z"/>
    <path d="M435.6 297.7l1 .5-19.2 38.7-1-.6z"/>
    <path d="M435.7 297.6l.7.7-27 28-.7-.7z"/>
    <path d="M455.5 324.7v1l-46.5.7v-1z"/>
    <path d="M455.3 325l.6.7-13.3 10-.6-.7z"/>
    <path d="M442.3 335v1l-10 1v-1z"/>
    <path d="M433 336l7 17-1 .5-7-17z"/>
    <path d="M442.6 350.6l.6.8-3.4 2.3-.6-.8z"/>
    <path d="M442.8 335.4l.6 15.7h-1l-.6-15.6zM439.4 353l.3.8-3.7 1.2-.3-1z"/>
    <path d="M441.8 335.2l1 .2-3 18-.8-.2z"/>
    <path d="M436.6 297.8l6.3 37.5h-1l-6.4-37.3z"/>
    <path d="M442.6 335l13 10.3-.7.7-13-10.3z"/>
    <path d="M455 345.2l.4 1-12.4 5.2-.4-1z"/>
    <path d="M443 350.6l21.2 6.8-.3 1-21.3-7z"/>
    <path d="M455.6 345.4l9 12.2-1 .6-8.8-12.2z"/>
    <path d="M455 325.3h1l-.3 20.4h-1zM463.6 357.7l1 .4-4.8 8.7-1-.5z"/>
    <path d="M459.8 366.3l10 21.2-1 .4-10-21.3z"/>
    <path d="M473.2 384.8l.5 1-4 2.3-.6-.8z"/>
    <path d="M473.7 376.6l.3 8.7h-1l-.3-8.7zM473 337.3l.7 39.3h-1l-.8-39.3z"/>
    <path d="M482 356.6v1l-18 .8v-1z"/>
    <path d="M456 325l26.4 31.6-.8.7-26.4-31.7z"/>
    <path d="M472 337.2l1 .3-8.4 20.6-1-.3z"/>
    <path d="M472.2 337l.5.8-17.3 8.3-.5-.8z"/>
    <path d="M455.8 325l17 12-.6.8-17-12zM436 297.4v1l-32.2 1.8v-1z"/>
    <path d="M419.6 289.8l16.7 7.6-.4 1-17-7.7z"/>
    <path d="M414.6 285.2l5 4.7-.6.7-5-4.8z"/>
    <path d="M420.2 279.8l.6.7-6 5.4-.8-.8z"/>
    <path d="M420 280l1 .2-1 10h-1z"/>
    <path d="M419 290l.6.7-15.5 9.5-.4-1z"/>
    <path d="M414 285.2l.7.6-10.5 14.3-.8-.5z"/>
    <path d="M413.8 285.5h1l-5.2 40.5h-1z"/>
    <path d="M435.8 297.5l.6.8-39 24.6-.4-1z"/>
    <path d="M404.3 299.7l5.3 26-1 .3-5.3-26zM443.6 271.7l.3 1-23.4 8-.3-1z"/>
    <path d="M422.3 272.8l1 .3-2.4 7.3-1-.3z"/>
    <path d="M415 265.7l8 7-.5.7-8.2-7zM443.2 272l1 .3-7.6 25.7-1-.3z"/>
    <path d="M443.3 271.8l.6.8-24.4 18-.6-.7z"/>
    <path d="M420.8 279.8l15.6 17.8-.7.6-15.7-17.8zM471.6 298.2l.4 1-62.7 27.2-.4-1z"/>
    <path d="M469.6 282.5l2.7 16h-1l-2.7-16z"/>
    <path d="M460.4 271.2l9 11-.8.7-9-11z"/>
    <path d="M460 271v1l-16.4.7v-1z"/>
    <path d="M444 271.8l28 26.4-.6.7-28-26.5z"/>
    <path d="M469 282.2l.3 1-33 15.2-.5-1z"/>
    <path d="M459.5 271.4h1l-4.4 53.8h-1z"/>
    <path d="M420.5 279.7l48.6 2.5v1l-48.6-2.5zM472.3 298.5l5 16-.8.4-5-16.2z"/>
    <path d="M476.7 314.3l.4 1-21.2 10.5-.4-1z"/>
    <path d="M471.4 298.3l1 .6-16.4 26.5-1-.5z"/>
    <path d="M436 297.4l36 .8v1l-36-.8zM469.8 387.6v10h-1v-10z"/>
    <path d="M469.8 397.5l3.4 10-1 .4-3.4-10.2zM473.2 407.7l5.7 16-1 .4-5.7-16z"/>
    <path d="M502.7 395l.7.8-24.7 28.3-.7-.5z"/>
    <path d="M473.7 384.7l29.5 10.2-.3 1-29.7-10.3z"/>
    <path d="M473 385.2h1l-.8 22.5h-1z"/>
    <path d="M503 395v1l-33.6 2v-1zM472.7 376.4l1 .3-4 11-1-.2z"/>
    <path d="M481.6 356.7l1 .4-9 19.7-.8-.4z"/>
    <path d="M464.5 357.6l9 18.7-.8.5-9-18.7z"/>
    <path d="M459.7 366l13.8 10-.6 1-14-10.2zM502.8 395l.4 1-30.3 12.3-.5-1zM479 423.7l2.6 30.6h-1L478 424z"/>
    <path d="M481 454H499v1H481z"/>
    <path d="M504.6 450.4l.5 1-6 3.6-.4-.8z"/>
    <path d="M503 441.7l2.3 9-1 .3-2-9z"/>
    <path d="M499.8 428.5l3.4 13.3-1 .2-3.4-13.3z"/>
    <path d="M478.5 423.3l21 4.8-.3 1-21-4.7z"/>
    <path d="M478.7 423.4l24.3 18-.6.8-24.3-18z"/>
    <path d="M502.2 441.7l1 .3-3.8 12.7-1-.3z"/>
    <path d="M478.8 423.5l20.5 30.8-.8.6-20.5-31zM515 431.8l.8.5-10.5 18.8-.8-.4z"/>
    <path d="M505.3 431.2l10 .4v1l-10-.4z"/>
    <path d="M499.5 428.2l6 3-.4 1-6-3z"/>
    <path d="M504.8 431.6l1 .2-2.6 10h-1z"/>
    <path d="M515 431.7l.6.8-12.6 9.7-.6-.8z"/>
    <path d="M506 416.4l9.7 15.5-.8.4-10-15.5z"/>
    <path d="M505 416.4l1 .5-6.3 12-1-.6z"/>
    <path d="M473 407.3l32.7 9-.2.8-32.8-8.7z"/>
    <path d="M505.4 416.2l.2 1-27 7-.4-1zM511.7 410.7l.8.6-12.8 17.6-1-.7z"/>
    <path d="M511.8 410.7l.7.7-6.7 5.7-.6-.7zM499 428.3l.7.6-18 25.6-1-.5z"/>
    <path d="M505.3 404.6l7.2 6-.6.8-7.3-6z"/>
    <path d="M505.5 405l.5 11.6h-1l-.5-11.7zM512.6 411l3 21-1 .2-3-21z"/>
    <path d="M518 400.7l.3 1-13.2 3.7v-1z"/>
    <path d="M517.8 401l.8.4-6 9.8-.8-.5z"/>
    <path d="M518.3 400.7l31.4 3.3v1l-31.6-3.4z"/>
    <path d="M550 404.3l4 10.4-.8.4-4-10.3z"/>
    <path d="M553.3 414.5l.7.8-11 10.5-.6-.7z"/>
    <path d="M543 425l8.7 2.6-.3 1-8.8-2.7z"/>
    <path d="M550 404.4l2 23.7-1 .2-2-23.7z"/>
    <path d="M553.2 414.8l1 .2-2.2 13.2h-1zM549 404.3l1 .3-6.8 21-1-.3zM532.3 383.3l.8.6-14.5 17.4-.7-.6z"/>
    <path d="M532.2 383.4l1 .4-17.4 48.4-1-.3z"/>
    <path d="M532.5 383.2l.4 1-29.8 11.7-.3-1z"/>
    <path d="M503.5 395.4l2 9.5h-1l-2-9.4z"/>
    <path d="M505 404.4v1l-32.2 3v-1z"/>
    <path d="M504.8 404.5l.5.8-26.6 19-.6-1zM516 366.4l.8.4-13.3 29-1-.5z"/>
    <path d="M516.5 366l10 4.3-.3 1-10-4.2z"/>
    <path d="M526.8 370.6l6.4 12.8-1 .4L526 371z"/>
    <path d="M526 370.5l.8.6-21.4 34.2-1-.5zM516 366l.5 1-42.8 18.7-.4-1z"/>
    <path d="M473.5 376.2l29.8 19-.5.7-29.8-19z"/>
    <path d="M516 366l.6 1-47 31-.5-1z"/>
    <path d="M532.8 383.2v1l-63.4 4v-1z"/>
    <path d="M546.7 362.2l.8.6-14.3 21-.8-.5z"/>
    <path d="M531.2 345.5l16.2 16.7-.7.7-16.2-16.8z"/>
    <path d="M530.3 345.7l1 .2-4.4 24.8-1-.2z"/>
    <path d="M514.6 355.3l12 15.2-.7.6-12-15z"/>
    <path d="M514.8 355.5l2 11-1 .2-2-11zM510.5 335.4l4.3 20-1 .3-4.2-20z"/>
    <path d="M510.2 335l21 10.4-.5 1-21-10.5z"/>
    <path d="M530.6 345.4l.5 1-16.4 9.6-.5-1zM514 355l.5 1-41 21-.6-1z"/>
    <path d="M482.2 356.5l34.3 9.6-.3 1-34.3-9.5z"/>
    <path d="M509.5 335.3h1l-7 60h-1z"/>
    <path d="M482.5 356.7l21 38.5-1 .4-21-38.4z"/>
    <path d="M509.7 335l.6.8-28 21.6-.6-.8z"/>
    <path d="M510 335l9.3.3v1l-9.3-.4z"/>
    <path d="M515.7 329.5l4 6-.8.6-4-6zM541.5 328l1 .7L531 346l-.8-.4z"/>
    <path d="M519.6 335.4l11.6 10-.7.8-11.6-10zM513 292l2.8 37.7h-1l-3-37.5z"/>
    <path d="M512.2 291.8l.5.8-35.5 22.5-.5-.7z"/>
    <path d="M476.4 314.6l1 .2-4.5 22.7-1-.2z"/>
    <path d="M477.2 314.3l33 20.7-.5 1-33-21z"/>
    <path d="M515 329.5l.6.7-5.2 5.6-.7-.7z"/>
    <path d="M477 314.3l38.4 15-.3 1-38.3-15z"/>
    <path d="M477.4 314.7l5 42.2h-1l-5-42.2zM512 292l1 .2-2.5 43.2h-1z"/>
    <path d="M512.8 292l34.6 70.3-1 .5-34.5-70.4zM518.8 335.7l1 .2-5 19.7-1-.3z"/>
    <path d="M542 328l.2 1-22.7 7.3-.4-1zM512.4 291.6l.2 1L472 299l-.2-1z"/>
    <path d="M512 292l1 .4-30.4 64.2-1-.4zM509.2 287.7l.6.8-32.5 26.6-.6-.7z"/>
    <path d="M510 288l2.8 4-.8.5-3-4z"/>
    <path d="M469.2 282l40.4 5.6-.2 1L469 283z"/>
    <path d="M469.4 282.2l46.2 47.2-.7.7-46.3-47z"/>
    <path d="M509.3 287.7l.3 1L472 299l-.4-.8zM444.2 272l12 53-1 .3-12-53zM523.6 286l.4.8-11.4 5.8-.4-1z"/>
    <path d="M524.2 286.3l9 27.5-1 .3-9-27.4z"/>
    <path d="M550 304l.6 1-17.8 9.4-.4-1z"/>
    <path d="M550.4 304l19 3v1l-19-3z"/>
    <path d="M569.5 307l11.6 5-.3 1-11.6-5z"/>
    <path d="M580.5 312.2l.7.7-12.6 12.6-.7-.7z"/>
    <path d="M568 324.8l.5 1-22 10.7-.4-1z"/>
    <path d="M542.5 328l4.2 7.7-.8.5-4.4-7.6z"/>
    <path d="M533 313.6l9.5 14.5-.8.7-9.5-14.5zM544.4 283l.2 1-20.8 3v-1z"/>
    <path d="M545 283.3l5.8 21-1 .3-5.8-21z"/>
    <path d="M544 283.3l1 .3-12 30.5-.8-.3z"/>
    <path d="M524 286l26.6 18-.5 1-26.5-18.2z"/>
    <path d="M549.8 304.4l1 .2-4 31.5h-1z"/>
    <path d="M532.8 313.4l35.7 11.4-.3 1-35.7-11.4z"/>
    <path d="M550 304.3l.8.4-8.3 24-1-.5z"/>
    <path d="M550.5 304l30.5 8-.2 1-30.6-8z"/>
    <path d="M569 307.5h1l-1 17.8h-1z"/>
    <path d="M569 307.2l.6.8-27.3 21-.6-1z"/>
    <path d="M550.7 304.2l18 20.8-.7.7-18-20.8zM434 262l.2 1-19.5 3.6-.2-1z"/>
    <path d="M433.8 262l.6.8-11.3 10.5-.6-.8z"/>
    <path d="M426.2 260l1 .3-4 12.8-1-.2z"/>
    <path d="M417.6 250.6l9.4 9.3-.7.6-9.4-9.3z"/>
    <path d="M417.3 250.4l14.5.2v1l-14.5-.2z"/>
    <path d="M432.3 251l2.3 11.4-1 .2-2.3-11.5z"/>
    <path d="M441.2 257l.6.8-7.4 5-.6-.7z"/>
    <path d="M417.5 250.5l24.2 6.5-.3 1-24.2-6.6z"/>
    <path d="M417 250.8l.8.2-2.6 15.2-1-.2z"/>
    <path d="M426.4 259.8l.4 1-12 5.7-.4-1z"/>
    <path d="M431.5 250.7l.6.8-17 15-.7-.8zM426.7 259.8l7.6 2.3-.3 1-7.6-2.3z"/>
    <path d="M441.4 257l.2 1-15 2.7v-1z"/>
    <path d="M436.6 245l5.4 12.3-1 .4-5.3-12.3z"/>
    <path d="M435.8 244.8l.8.6-4.4 6-.8-.6z"/>
    <path d="M432 250.6l9.8 6.3-.6.8-9.6-6.3z"/>
    <path d="M435.7 245l1 .2-2 17.4h-1zM431.4 250.8l1 .5-5.4 9-.8-.4z"/>
    <path d="M426.8 233.8l9.8 11-.7.7-10-11zM445.7 248.8l1 .5-4.8 8.3-1-.5z"/>
    <path d="M458.8 243.3l.4 1-13 5.3-.3-1z"/>
    <path d="M459.4 243.4l8.5 12-1 .6-8.4-12zM468 255.4l4 5-.7.6-4-5z"/>
    <path d="M472 260.2l4.6 3.4-.6.8-4.6-3.4z"/>
    <path d="M475.8 263.7l1 .5-4.8 7-1-.4z"/>
    <path d="M480.5 260l.7.7-9.3 10.8-1-.7z"/>
    <path d="M469 249.7l12.3 10.2-.7.7-12.3-10.2z"/>
    <path d="M467 243.2l2 6.8-1 .3-2-6.7zM480.6 260l.6.7-4.6 3.7-.6-.8z"/>
    <path d="M469 250l3.2 10.6-1 .3-3-10.7z"/>
    <path d="M480.6 259.7v1l-9 .4v-1z"/>
    <path d="M469 250l7.6 13.7-.8.5-7.6-13.8z"/>
    <path d="M468 250l1 .3-1 5.5-1-.2z"/>
    <path d="M467.7 255.3l13 4.5-.3 1-13-4.6z"/>
    <path d="M467 243.3l1 12.3h-1l-1-12.2z"/>
    <path d="M466.4 243v1l-7.3.2v-1z"/>
    <path d="M459.2 243.2l9.7 6.5-.7.8-9.6-6.4z"/>
    <path d="M454 238.3l5.4 5-.7.8-5.3-5z"/>
    <path d="M442.3 230.6l11.7 7.6-.5 1-11.7-7.8z"/>
    <path d="M442.5 231l4 18-1 .3-4-18.2z"/>
    <path d="M442 230.5v1l-15.5 3-.2-1z"/>
    <path d="M426.8 233.7l19.7 15-.6.8-19.8-15z"/>
    <path d="M453.4 238.4l.8.6-7.6 10.4-.8-.6z"/>
    <path d="M453.6 238.2l.4 1-17.6 6.4-.3-1z"/>
    <path d="M436.4 244.6l10 4-.5 1-10-4z"/>
    <path d="M441.6 231h1l-.6 26.4h-1z"/>
    <path d="M426.5 233.6l27 4.6-.2 1-27-4.6zM442.4 224.8v6.2h-1v-6.2z"/>
    <path d="M436.2 220.8l6 3.6-.6.8-6-3.6z"/>
    <path d="M435.7 220.7l.4 1-10.5 4-.4-1zM454.4 223v1l-12.4 1.3v-1z"/>
    <path d="M454 223.4h1l-.8 15.3h-1z"/>
    <path d="M454 238.2l12.7 4.7-.4 1-12.6-5z"/>
    <path d="M471 227.2l1 .2-5 16.2-1-.3z"/>
    <path d="M466.8 243l18 14.5-.6.8-18-14.5z"/>
    <path d="M483.5 236L485 258h-1l-1.5-21.7z"/>
    <path d="M475 234.3l8 1.4v1l-8-1.4z"/>
    <path d="M479.4 232.3l.4 1-4.6 2-.4-1z"/>
    <path d="M480 232.4l3.3 3.4-.7.7-3.4-3.4z"/>
    <path d="M482.8 235.7l.4 1-16.2 7-.4-1z"/>
    <path d="M475 234.4l.7.7-9 8.8-.6-.8z"/>
    <path d="M475.8 234.6l9 23-.8.4-9-23z"/>
    <path d="M484.7 257.5l10 11.4-.7.6-10-11.4z"/>
    <path d="M493.6 253.7l1.4 15.5h-1l-1.4-15.4z"/>
    <path d="M493 253.3l.4 1-8.7 4-.4-.8z"/>
    <path d="M499.5 247.2l.6.8-15.2 10.3-.6-1z"/>
    <path d="M499.4 247.2l.6.8-6.6 6-.6-.6z"/>
    <path d="M483.5 236l10 17.5-.8.5-10-17.6z"/>
    <path d="M466.6 243l26.3 10.4-.5 1-26.3-10.6z"/>
    <path d="M493 253.6l10.3 13-.8.5-10.2-12.8z"/>
    <path d="M500.2 247.6l3 19-1 .3-3-19.3z"/>
    <path d="M516 262.3l.4 1L503 267l-.2-1z"/>
    <path d="M515.8 262.6l1 .3-2.2 7.4-1-.3z"/>
    <path d="M514.5 270l10.7 10-.7 1-10.7-10.3z"/>
    <path d="M503 266l11.4 3.8-.3 1-11.2-4z"/>
    <path d="M507.3 258l7.2 12-.8.5-7.3-12z"/>
    <path d="M506.5 258l1 .5-4.2 8.5-1-.5z"/>
    <path d="M507 257.8l9.5 4.5-.4 1-9.3-4.6z"/>
    <path d="M520.8 255.8l.8.6-5 6.7-.8-.5z"/>
    <path d="M521 255.6l.2 1-14.3 2.2-.3-1z"/>
    <path d="M500 247.4l7.2 10.6-.8.5-7-10.6z"/>
    <path d="M511 239.3l.6.8-11.6 8-.6-.8z"/>
    <path d="M511.4 239.3l16 4.8-.2 1-16-4.7z"/>
    <path d="M527.8 244.3l10.4 11.7-.7.7L527 245z"/>
    <path d="M521.2 255.6l16.7.2v1l-16.8-.2z"/>
    <path d="M521.7 256l3.6 24.3-1 .2-3.6-24.3z"/>
    <path d="M525 280l19.6 3v1l-19.8-3z"/>
    <path d="M524.3 280.4h1l-1 6h-1z"/>
    <path d="M516.7 262.5l8.6 17.7-1 .5L516 263zM493.3 253.3l13.8 4.5-.2 1-13.8-4.6z"/>
    <path d="M537.7 256l.5.8-23.7 14-.6-1z"/>
    <path d="M537.4 256l1 .6-13 24-1-.4z"/>
    <path d="M546 256.8l1 .7L525 281l-.8-.8z"/>
    <path d="M538 255.8l8.6.8v1l-8.7-.8z"/>
    <path d="M538.4 256.2l6.6 27-1 .3-6.6-27z"/>
    <path d="M521.6 255.8L545 283l-.8.7-23.4-27.2zM553.8 241.3l1 .4-7.8 15.7-1-.5z"/>
    <path d="M554.2 241v1l-26.7 3v-1z"/>
    <path d="M527.6 244l19.2 12.7-.5.8L527 245z"/>
    <path d="M546.6 256.7l10.2 2.3-.2 1-10.2-2.4z"/>
    <path d="M554.7 241.4l2.5 18h-1l-2.5-17.8z"/>
    <path d="M557 259.3l5 16.8-1 .4-5-16.8z"/>
    <path d="M561.4 275.8l.4 1-17 7.2-.4-1z"/>
    <path d="M546 257l1 .2-2 26.3h-1z"/>
    <path d="M547 256.8l15 19.2-.8.6-15-19z"/>
    <path d="M556.2 259.2l1 .5-12.2 24-1-.5z"/>
    <path d="M556.4 259l.6 1-31.8 21-.6-1z"/>
    <path d="M561.5 275.7v1L525 281l-.2-1zM556.6 259l.2 1-42.5 10.7-.3-1z"/>
    <path d="M516.4 262.3l45.3 13.5-.3 1L516 263zM484.4 257.4l22.5.4v1l-22.6-.4zM454.3 223l.5 1-12.5 7.5-.5-1z"/>
    <path d="M454.6 223l17 3.7-.2 1-17-3.8z"/>
    <path d="M471.2 227l.5.7-18 11.5-.6-1z"/>
    <path d="M455 223.2l11.8 20-.8.5-12-20z"/>
    <path d="M442 230.5l33 3.8v1l-33-3.8z"/>
    <path d="M454 223l.8.7-18.3 21.7-.7-.6zM441.7 224.4l.5.8-15.5 9.4-.5-.8z"/>
    <path d="M448.7 216l.8.8-7.2 8.3-.7-.5z"/>
    <path d="M449.4 216l5.5 7-1 .7-5.4-7z"/>
    <path d="M459.7 212l1 .5-5.8 11.2-1-.5z"/>
    <path d="M460 211.8l.3 1-11 4-.4-.8z"/>
    <path d="M467.4 204.4l.7.7-7.5 7.5-.7-.7z"/>
    <path d="M468.2 204.7l2 13-1 .2-2-13zM470.2 217.8l1.7 9.3-1 .3-1.8-9.3z"/>
    <path d="M460.6 212l11.3 15-1 .5-11.2-15z"/>
    <path d="M469.5 217.4l.3 1-15.2 5.5-.3-1z"/>
    <path d="M460.4 212l9.6 5.5-.5 1-9.6-5.8z"/>
    <path d="M459.7 212.2h1l-1 31.5h-1z"/>
    <path d="M442 224.3l29.6 2.4v1l-29.7-2.4z"/>
    <path d="M471.4 226.8v1l-29.3 3.7v-1zM437.2 216.6l1 .4-1.8 4.3-1-.3z"/>
    <path d="M431 198.3l7.2 18.3-1 .3-7.2-18.4z"/>
    <path d="M423.2 195.6l7.4 2.4-.3 1-7.5-2.5z"/>
    <path d="M423.5 196l3 8.6-1 .3-3-8.8z"/>
    <path d="M426.4 204.5l5 8-1 .6-4.8-8zM431.4 212.7l5 8.3-1 .5-5-8.3z"/>
    <path d="M421.8 214l14.4 6.8-.5 1-14.3-6.8z"/>
    <path d="M430.8 212.3l.2 1-9.3 1.7-.2-1z"/>
    <path d="M430.4 212.7l1 .4-5.6 12.5-1-.4z"/>
    <path d="M422 214.4L426 225l-1 .4-3.7-10.7z"/>
    <path d="M421.3 214l.6 1-9.4 5.6-.5-.8z"/>
    <path d="M418.2 207.2l1 .5-6.4 12.8-1-.4z"/>
    <path d="M419 207.2l3 7-1 .5-3-7z"/>
    <path d="M425.8 204.3l.3 1-7.2 2.5-.3-1z"/>
    <path d="M430 198.2l.8.6-4.4 6.3-.8-.5z"/>
    <path d="M431 198.5l.4 14.4h-1l-.5-14.5z"/>
    <path d="M431.2 212.4l7 4-.6 1-7-4z"/>
    <path d="M426.4 204.5l11.7 12-.6.7-11.7-12z"/>
    <path d="M423.5 195.8l14.6 20.7-.7.6-14.6-20.6zM425.6 204.8h1l-.8 20.5h-1zM450.3 189.7l.4 1-20 8.2-.4-1zM463.4 185.4l5 19.3-1 .3-5-19.4z"/>
    <path d="M462.6 185l.4 1-12.3 4.7-.4-1zM468 204.3l17 4.8-.3 1-17-4.7z"/>
    <path d="M484.7 209.2l.5 1-15.2 8-.5-.8z"/>
    <path d="M469.7 217.3l17.7.8v1l-17.7-.7z"/>
    <path d="M487 218.2l.6.8-16 8.7-.4-1z"/>
    <path d="M471.7 226.8l8 5.5-.4.8-8-5.4z"/>
    <path d="M472 227l3.6 7.6-1 .5-3.5-7.5z"/>
    <path d="M511.2 225.4v1l-39.8 1.4v-1z"/>
    <path d="M511.2 225.4l.2 1-31.7 7-.2-1z"/>
    <path d="M511.8 225.8v14h-1v-14z"/>
    <path d="M483 235.6l28.4 3.6-.2 1-28.2-3.6z"/>
    <path d="M511 225.4l.4 1-28.3 10.2-.2-1z"/>
    <path d="M510.8 225.6l1 .5L500 248l-1-.5z"/>
    <path d="M483.3 235.7l16.7 11.5-.6.8-16.7-11.5z"/>
    <path d="M487 218.4l1 .3-4.5 17.5-1-.2z"/>
    <path d="M485.4 209.5l2.5 9-1 .2-2.6-9z"/>
    <path d="M484.5 209.3l.8.7-13.4 17.5-1-.6z"/>
    <path d="M449.3 216l22.4 10.7-.4 1-22.5-10.8zM487 218.4l.8.5-7.8 14-.8-.4zM497.7 208.4l.6.8-10.5 9.7-.7-.8z"/>
    <path d="M498.3 208.3l6.3 4.6-.6.8-6.3-4.7z"/>
    <path d="M504.8 213.2l7 12.4-1 .5-7-12.3z"/>
    <path d="M510.8 225.6l.8.6-27 32-.6-.6zM504 213l.8.8-21.4 22.7-.7-.7z"/>
    <path d="M498.5 208.6l13.3 31-1 .4-13.2-31z"/>
    <path d="M487.7 218.2l24 21.2-.7.7-24-21z"/>
    <path d="M487.6 218l23.8 7.4-.3 1-23.7-7.4z"/>
    <path d="M504.2 213l.3 1-17 5-.3-.8zM498 208.4v1l-13 .8v-1z"/>
    <path d="M488 218.5l5.6 35-1 .3-5.7-35.2zM479.4 188.6l.8.6-12 16-.8-.6z"/>
    <path d="M477.5 177l2.7 11.8-1 .2-2.7-12z"/>
    <path d="M476.7 176.6l.6.8L463 186l-.4-1z"/>
    <path d="M463 185l17 3.4-.3 1-17-3.4z"/>
    <path d="M461.8 167.2l18.3 21.3-.6.6L461 168z"/>
    <path d="M461 167.2l.8.6-11.6 15.8-.8-.6z"/>
    <path d="M450.2 183.3l.8 7h-1l-.8-7z"/>
    <path d="M461 167.3l1 .4-11 22.7-.8-.4z"/>
    <path d="M462 167.6l1.4 17.8h-1l-1.5-17.7z"/>
    <path d="M449.8 182.8l13 2.2v1l-13.2-2.2zM476.6 176.8l1 .3-9.3 28-1-.4z"/>
    <path d="M486.3 164l.8.5-9.5 12.8-.8-.6z"/>
    <path d="M471 145l16.2 19-.8.6-16-19z"/>
    <path d="M470 145.2l1 .4-9 22.2-1-.4z"/>
    <path d="M486.6 163.7v1l-25.2 3.3v-1z"/>
    <path d="M486.4 164l.7.7-23.8 21-.6-.6z"/>
    <path d="M471 145.3l6.5 31.6h-1l-6.4-31.5z"/>
    <path d="M461.7 167.2l15.5 9.4-.5.8L461 168z"/>
    <path d="M477 176.5l.2 1-27.3 6.3-.3-1zM481.6 128l1 .6-11.6 17-.8-.5z"/>
    <path d="M493.7 121.7l.5 1-12 6-.3-.8z"/>
    <path d="M494.2 121.7l22.8 12-.4 1-22.8-12z"/>
    <path d="M516.3 134l.8.5-18.3 24.8-.8-.6z"/>
    <path d="M486 141l12.6 17.7-.8.6-12.5-17.8z"/>
    <path d="M486.2 141l1 23.2h-1l-1-23z"/>
    <path d="M498 158.6l.5 1-11.6 5.2-.5-1z"/>
    <path d="M498 158.6l.6.7-10.2 10-.7-.8z"/>
    <path d="M488.4 168.6l5.4 7.8-.8.6-5.4-7.8zM493.4 122l1 .4-8.3 19-.8-.5z"/>
    <path d="M494.5 122l4.2 37h-1l-4.2-36.7z"/>
    <path d="M470.8 145l27.7 13.5-.5 1-27.6-13.7z"/>
    <path d="M485.6 140.7l.2 1-15 4.2-.3-1z"/>
    <path d="M516.6 133.7l.2 1-31 6.8-.3-1z"/>
    <path d="M482 128l34.8 5.8v1l-35-6z"/>
    <path d="M482.5 128.2l3.7 12.8-1 .2-3.6-12.7z"/>
    <path d="M485.3 141l1 .3-23 44.4-1-.5zM498.5 158.6L520 176l-.7 1-21.4-17.6z"/>
    <path d="M534 161.7l.6.7L520 177l-.7-.8z"/>
    <path d="M498.3 158.5l36 3v1l-36-3z"/>
    <path d="M497.7 159h1l-5 18-.8-.4z"/>
    <path d="M493 176.4l.7.7-4.7 5.3-.7-.6z"/>
    <path d="M488.5 169l.8 13h-1l-.8-13zM517 133.8l19 10.8-.5 1-19-11z"/>
    <path d="M535.5 144.6l.5.8-8.7 5.2-.5-.8z"/>
    <path d="M517.2 134l10.4 16-1 .5-10.3-16z"/>
    <path d="M527 149.7l.2 1-28.3 8.6-.4-1z"/>
    <path d="M485.8 140.7l41.4 9-.2 1-41.4-9z"/>
    <path d="M485.8 140.7l50 4v1l-50-4zM534 161.5l.5 1-41 14.7-.3-1z"/>
    <path d="M519.7 176v1l-26.3.3v-1z"/>
    <path d="M494.4 122l25.8 54.3-1 .4-25.7-54.3z"/>
    <path d="M526.8 149.8l.6.8-33.7 26.5-.6-.7zM488.8 181.5l8.8 1.8-.2 1-8.8-1.8z"/>
    <path d="M493.7 176.5l4.2 7-1 .6-4-7z"/>
    <path d="M497 183.7l1 .2-1.2 4-1-.2z"/>
    <path d="M510.7 184l.2 1-14.5 3.4-.2-1z"/>
    <path d="M497.5 183.3l13.3.8v1l-13.3-.7z"/>
    <path d="M519.5 176l.3 1-22.2 7.3-.3-1z"/>
    <path d="M519.3 176l.7 1-9 8-.6-1zM495.8 188h1l-.7 10.5h-1z"/>
    <path d="M495.3 198.2l.7.7-10.7 11-.7-.7z"/>
    <path d="M528.7 204v1l-43.8 5-.2-1z"/>
    <path d="M528.7 204.2l.2 1-31 4.2v-1z"/>
    <path d="M496 198.5l2.5 10.3-1 .2-2.4-10.3z"/>
    <path d="M495.8 198l33 6v1l-33.2-6z"/>
    <path d="M511 184.2l18 20-.7.8-18-20zM529 204.3l4.6 4.7-.7.7-4.6-4.7z"/>
    <path d="M533.5 209l13 5.6-.4 1-13-5.8z"/>
    <path d="M546 214.5l.5 1L532 221l-.4-1z"/>
    <path d="M529.3 204.5l3 16h-1l-3-15.8z"/>
    <path d="M528.4 204.3l.8.7-17.5 21.2-.8-.7z"/>
    <path d="M528.5 204l.4 1-24.6 9-.3-1z"/>
    <path d="M496.5 187.5l32.5 16.7-.5 1-32.4-16.8z"/>
    <path d="M510.4 184.2l.7.7-15 14-.7-.8zM520.2 176.4l9 28.2-1 .3-9-28.3z"/>
    <path d="M528.3 204.6h1l-1.4 40h-1z"/>
    <path d="M535.5 194.5l.8.6-7.2 10-.7-.7z"/>
    <path d="M528.8 204.2l43 5v1l-43-5zM520 176.2l16.3 18.3-.8.7-16.2-18.4z"/>
    <path d="M519.2 176.5h1l-8.5 49.5-1-.2z"/>
    <path d="M511.2 184.5l.5 41.3h-1l-.5-41.3z"/>
    <path d="M510.3 184.4l1 .4-12.8 24.3-1-.4zM534.8 162l1.6 32.8h-1l-1.6-32.8z"/>
    <path d="M573.6 191.4v1l-37.7 3v-1z"/>
    <path d="M573.4 191.4l.3 1-44.8 12.8-.4-1z"/>
    <path d="M533.8 162h1l-5.6 42.7h-1zM531.6 220l.2 1-20.5 5.3-.3-1z"/>
    <path d="M531.4 220.2l.7.8-20.4 19-.6-.6z"/>
    <path d="M571.6 209l.5 1-60.4 30.2-.4-1z"/>
    <path d="M571.3 209.3l1 .5-17.7 32-1-.5z"/>
    <path d="M546.7 214.8l8 26.5-1 .3-8-26.5z"/>
    <path d="M545.8 214.8l.8.5-19 29.6-.7-.7z"/>
    <path d="M531.3 220.5l1 .2-4.4 24-1-.2z"/>
    <path d="M498.2 208.3L532 220l-.5 1-33.7-11.7z"/>
    <path d="M510.2 184.4l1 .3-6.4 29-1-.4z"/>
    <path d="M511 184l25 10.4-.3 1-25-10.4z"/>
    <path d="M572.7 169.6l.5 1-37 24.7-.5-1z"/>
    <path d="M572.6 169.7l.7.7-39.6 39.2-.7-.7z"/>
    <path d="M532.8 209.2h1l-1.6 11.4h-1z"/>
    <path d="M532 220.3l22.4 20.8-.7.8-22.4-20.8z"/>
    <path d="M511.3 239.2l43 1.8v1l-43-1.8z"/>
    <path d="M578.4 222.4l.2 1-67.2 17-.2-1z"/>
    <path d="M546.4 214.6l32 7.8v1l-32.2-8z"/>
    <path d="M536.4 194.6l10.4 20.2-1 .5-10.3-20.2z"/>
    <path d="M535.4 194.8l1 .2-2.6 14.5-1-.2z"/>
    <path d="M573.3 191.4l.4 1-40.3 17.3-.4-1z"/>
    <path d="M573 191.8h1l-1.7 17.7h-1z"/>
    <path d="M572.3 209.4l2.3 26.8h-1l-2.3-26.7z"/>
    <path d="M574 235.7l.2 1-20 5.2-.2-1z"/>
    <path d="M578 222.5l.7.8-24.3 18.6-.6-1z"/>
    <path d="M536.2 194.4l42.5 28-.5 1-42.6-28zM562.5 140l.6.7-28.4 21.6-.6-.8z"/>
    <path d="M563 140l12.6 16.8-.8.6-12.5-16.8z"/>
    <path d="M574.8 157l1 .2-2.4 13-1-.2z"/>
    <path d="M534.3 161.5l38.7 8-.2 1-38.7-8z"/>
    <path d="M575.2 156.6v1l-41 5v-1z"/>
    <path d="M575 156.7l.6.7-39.3 37.8-.7-.7z"/>
    <path d="M527.6 150l8.8 44.7-1 .2-8.8-44.7z"/>
    <path d="M527.5 150l7.2 11.8-1 .5-7-11.8zM562.2 140l1 .5-27 54.6-.8-.3z"/>
    <path d="M562.8 139.7l29 3.2v1l-29-3.3z"/>
    <path d="M591.4 143l.7.8-16.4 13.6-.6-.7z"/>
    <path d="M575.7 157l8.5 42.4-1 .2-8.4-42.4z"/>
    <path d="M574 191.5l10 7.7-.6.7-10-7.7z"/>
    <path d="M573.4 170l.7 22h-1l-.6-22z"/>
    <path d="M572.5 169.8l.8.5-26.5 45-1-.6z"/>
    <path d="M534.6 161.6l39.3 30-.7.7-39.3-30z"/>
    <path d="M573.2 191.5l.7.7-27.4 23.2-.7-.8z"/>
    <path d="M562.3 140.2h1l-8.6 101.4h-1zM573.6 236l1 .5-7.8 19-1-.3z"/>
    <path d="M566.7 255l12.8 14.4-.8.6-12.8-14.3zM554.5 241l12 14-.6.7-12.2-14z"/>
    <path d="M571.3 209.5h1l-5.6 46-1-.3zM579 269l.2 1-17.4 6.7-.4-1z"/>
    <path d="M562.2 276.2l2.3 16.3h-1l-2.3-16.2z"/>
    <path d="M544.8 283l19.3 9-.3 1-19.4-9z"/>
    <path d="M574.8 290l.2 1-11 2-.2-1z"/>
    <path d="M575.2 290l23.5 13.8-.5.8-23.5-13.8z"/>
    <path d="M564 292l34.5 11.7-.3 1-34.4-11.6z"/>
    <path d="M578.6 269.4l.8.5-15 23-1-.7z"/>
    <path d="M579.2 269.2l26 10.5-.5 1-26-10.6z"/>
    <path d="M604.7 279.6l.3 1-30 10.2-.3-1z"/>
    <path d="M578.6 269.5l1 .2-4.2 20.7-1-.2z"/>
    <path d="M579.4 269.4l19.3 34.5-.8.4-19.4-34.5z"/>
    <path d="M562 275.8l36.6 28-.6.7-36.7-28z"/>
    <path d="M565.7 255.2l1 .2-4.6 21-1-.3z"/>
    <path d="M565.7 255.3h1l-2.3 37.4h-1z"/>
    <path d="M538.3 256l26 36.4-.8.6-26-36.3zM574.4 235.8l29.6 21-.6 1-29.6-21z"/>
    <path d="M604.2 257.4v10.8h-1v-10.8z"/>
    <path d="M603.8 267.6v1L579 270v-1z"/>
    <path d="M574.6 236.2l5 33.4-1 .2-5-33.4z"/>
    <path d="M578 222.7l1 .3-4.5 13.4-1-.3z"/>
    <path d="M532 220l42.3 15.8-.3 1-42.3-15.7z"/>
    <path d="M532.2 220.5L547 257l-1 .4-14.8-36.5zM239 222.6l31.5 11-.4 1-31.2-11zM252.6 244.6l1 .4-12.4 31.4-1-.3z"/>
    <path d="M253 244.2v1l-42.4.5v-1z"/>
    <path d="M210.2 245l.7.6-33.3 31.3-.7-.8z"/>
    <path d="M175 241.5l3 35h-1l-3-35z"/>
    <path d="M175 241.3l26.5 41.6-1 .4-26.3-41.6z"/>
    <path d="M201.2 282.7l36.5 6.6-.2 1-36.5-6.6z"/>
    <path d="M206.7 263.5l31.3 26-.6.7-31.3-26zM165.4 258.4l.8.7-16.8 21-.7-.5zM598.7 303.8l16.7 16.7-.7.7-16.7-16.7z"/>
    <path d="M615.5 320.6l7 13.5-1 .6-7-13.6z"/>
    <path d="M622.3 334l9 16.3-1 .5-9-16.2z"/>
    <path d="M632 333.5h1l-1.5 17h-1z"/>
    <path d="M650 309.7l.8.6-18 23.6-.8-.7z"/>
    <path d="M650.7 309.6l18.8 14.4-.6.8-19-14.4zM669.5 324l11.3 8.6-.6.8-11.3-8.6zM605.2 279.7l19.3 15.5-.7.8-19.2-15.5z"/>
    <path d="M624 295l20 2.8-.3 1L624 296zM644 297.8l9.8.6v1l-10-.6z"/>
    <path d="M653.3 298.7l1 .3-3.4 11-1-.2z"/>
    <path d="M644.3 298l6.7 11.7-1 .5-6.6-11.7z"/>
    <path d="M643.4 298l.7.7-28.7 22.6-.7-.8z"/>
    <path d="M623.6 295.4l1 .3-9.2 25.3-1-.3z"/>
    <path d="M575.5 290l48.6 5v1l-48.6-5z"/>
    <path d="M575 290l75.6 19.5-.3 1-75.5-19.6z"/>
    <path d="M650 309.7l.8.7-28.6 24.4-.7-.8z"/>
    <path d="M623.6 295.5h1l-2.2 39-1-.2z"/>
    <path d="M624.5 295.5l8.4 38-1 .2-8.4-38z"/>
    <path d="M615.3 320.4l17.5 12.7-.6 1-17.5-12.8z"/>
    <path d="M605.4 280l10 40.7-1 .3-10-40.8z"/>
    <path d="M604.4 280l1 .3-6.6 24-1-.3z"/>
    <path d="M624 295l.2 1-25.7 8.6-.3-1z"/>
    <path d="M624.4 295.2l26.3 14.4-.5.8L624 296z"/>
    <path d="M650.3 309.5l.3 1-35.5 10.8v-1z"/>
    <path d="M653.5 298.5l.5 1-38.8 22-.5-1z"/>
    <path d="M624.6 295.5l6.8 55h-1l-6.8-55zM616.7 251.3l.4 1-13 5.5-.5-1z"/>
    <path d="M652 249v1l-35 2.3v-1z"/>
    <path d="M651.6 249l.6.8-37.5 31-.7-.6z"/>
    <path d="M614.7 280.3l6.2 7.8-1 .7-6-7.7z"/>
    <path d="M682.3 268.6l.3 1-62 19.2-.2-1z"/>
    <path d="M682 268.8l.7.7-28.6 29.8-.6-.7zM651.3 249.3l1 .2-8 48.8h-1z"/>
    <path d="M617.3 251.5l27 46.5-1 .5-27-46.5z"/>
    <path d="M616.5 251.5l.7.6-13 16.4-.8-.6z"/>
    <path d="M604.2 267.8l10.6 12.6-.8.6-10.6-12.5z"/>
    <path d="M605 279.6h9.6v1H605z"/>
    <path d="M604.3 268l1 12h-1l-1-12z"/>
    <path d="M574.4 236l29.7 31.8-.6.7-29.7-32zM651.5 249l.8.8-31.5 38.8-.7-.6z"/>
    <path d="M617.3 251.7l3.7 36.5h-1l-3.7-36.4z"/>
    <path d="M617 251.3l65.5 17.3-.3 1-65.5-17.4z"/>
    <path d="M682 268.7l.7.8-38.6 29.2-.5-.8z"/>
    <path d="M621.3 287.7l22.7 10-.4 1-22.7-10z"/>
    <path d="M621 288l3.6 7.4-1 .4-3.5-7.2zM584 199l26.5 22-.6 1-26.6-22z"/>
    <path d="M613.8 207.5l1 .3-4.2 14-1-.4z"/>
    <path d="M614.3 207.2l23.4.2v1l-23.4-.2z"/>
    <path d="M637.3 207.7l1 .4-21 44-1-.4z"/>
    <path d="M614.8 207.7l2.6 44-1 .2-2.6-44.3z"/>
    <path d="M614 207.2l.5 1-35.8 15.2-.4-1z"/>
    <path d="M610 221v1l-31.5 1.4v-1z"/>
    <path d="M609.6 221.5l1 .2-6.4 35.7-1-.2z"/>
    <path d="M584.2 199.3l20 57.8-1 .4-20-57.7z"/>
    <path d="M583.3 199.2l.7.7-12 10-.5-1z"/>
    <path d="M572 209l38.3 12-.3 1-38.3-12z"/>
    <path d="M610 221l.3 1-36 14.7-.5-1z"/>
    <path d="M574.3 235.8l42.7 15.5-.3 1-42.8-15.6z"/>
    <path d="M614 207.4l.8.5-35.3 62-1-.6z"/>
    <path d="M584 199l30.4 8.2-.3 1-30.4-8.2z"/>
    <path d="M620.6 168.5l.7.8L584 200l-.7-.8z"/>
    <path d="M620.6 168.5l.8.7-42.5 54-1-.7z"/>
    <path d="M583.2 199.5l1 .2L579 223l-1-.2zM592.2 143l29.2 25.5-.7.7-29.2-25.4z"/>
    <path d="M575.4 156.6l45.7 11.8v1L575 157.6z"/>
    <path d="M575.7 157l3.3 66h-1l-3.3-66z"/>
    <path d="M620.7 168.4l.4 1-47.3 23-.4-1z"/>
    <path d="M621 168.4v1l-48 1.2v-1z"/>
    <path d="M573.2 169.7l41.3 37.6-.6.8-41.5-37.5z"/>
    <path d="M592.2 143.2l22.5 64.2-1 .4-22.4-64.3z"/>
    <path d="M591.6 143l.3 1-58.2 18.5-.3-1z"/>
    <path d="M591.2 143.3l1 .2-8 56h-1zM621.4 168.7l16.7 39-.8.3-16.7-39z"/>
    <path d="M575.5 156.7l62.5 50.8-.6.8-62.5-50.8zM630.6 98.8l.8.7-39.3 44.3-.7-.7z"/>
    <path d="M630.8 98.7l.5 1-68.2 41-.5-1z"/>
    <path d="M650.5 130.7v1l-87.6 9-.2-1z"/>
    <path d="M631.4 99l19.5 32-1 .5-19.4-32z"/>
    <path d="M630.5 99l1 .2-10 69.8h-1z"/>
    <path d="M650.4 130.7l.2 1L592 144l-.3-1z"/>
    <path d="M651 131.2l11.3 72.5-1 .2-11.3-72.7z"/>
    <path d="M661.7 203.2l.2 1-24.3 4v-1z"/>
    <path d="M650 131.2h1L638 208l-1-.2z"/>
    <path d="M650.2 130.8l.5 1-77.7 38.7-.4-1z"/>
    <path d="M573 169.6l89 33.7-.4 1-89-33.7z"/>
    <path d="M621.3 168.6l41 34.8-.8.8-40.8-35z"/>
    <path d="M650 130.8l1 .7-29.6 37.6-.8-.5z"/>
    <path d="M650 131l1 .4-36.2 76.5-1-.5zM638 207.7l14.3 41.5-1 .3-14-41.5z"/>
    <path d="M637.2 207.8l1 .2-17.3 80.5-1-.2z"/>
    <path d="M605 279.7L621 288l-.5.8-15.6-8.2z"/>
    <path d="M616.5 251.6l1 .4-12 28.4-1-.4zM688.5 58.7l.6.8-57.7 40-.5-.7z"/>
    <path d="M689.3 59l3 47.6h-1l-3-47.5z"/>
    <path d="M691.6 106.3l.5.8-41.3 24.6-.5-.8z"/>
    <path d="M749.3 112.7l.2 1-99 18v-1z"/>
    <path d="M689 58.8l60.7 54-.7.8-60.5-54z"/>
    <path d="M688.4 58.8l1 .5-38.5 72-1-.3z"/>
    <path d="M631 98.7l61 7.5-.2 1-60.8-7.6z"/>
    <path d="M631 98.7l143.3 12v1L631 99.7z"/>
    <path d="M774 110.6l.2 1-24.8 2v-1z"/>
    <path d="M692 106l57.6 6.7v1l-57.7-6.6z"/>
    <path d="M691.4 106.5l1 .3-30.2 76-1-.4z"/>
    <path d="M651 131l11.3 51.5-1 .2-11.3-51.4z"/>
    <path d="M712.6 171l.2 1-51 11v-1z"/>
    <path d="M722.5 167l.4 1-10 4-.5-1z"/>
    <path d="M692.2 106.5l31 60.8-1 .4-31-60.8z"/>
    <path d="M692.3 106.5l20.8 65-.8.2-21-65z"/>
    <path d="M749 113l1 .5-36.8 58.3-1-.6z"/>
    <path d="M749 112.7l.8.8-87.6 69.5-.7-.8z"/>
    <path d="M631.5 99l30.7 83.4-1 .4-30.6-83.4z"/>
    <path d="M631.4 98.7L713 171l-.6.8-81.7-72.3z"/>
    <path d="M713 171l16 12-.6.8-16-12z"/>
    <path d="M689.4 59l23.8 112.3-1 .2L688.5 59zM304.5 111.5l16.8 68.6-1 .4-16.8-68.6z"/>
    <path d="M382.7 123.2l.5 1-72.5 38.4-.5-1zM621.2 168.4l41 13.7-.5 1-40.8-13.7z"/>
    <path d="M722.7 167v1L621 169.2v-1zM661.8 182l66.8 1v1l-66.8-1z"/>
    <path d="M661.3 182.6h1v21h-1z"/>
    <path d="M722.5 167l.5 1-61 36-.4-.7z"/>
    <path d="M650.7 130.7L723 167l-.5 1-72.2-36.4zM728.2 183l.7.7-38.6 35-.7-.7z"/>
    <path d="M662 203.3l28.3 14.7-.5 1-28.3-15z"/>
    <path d="M661.4 203.6l1 .2-10 45.8-1-.2z"/>
    <path d="M697.5 235l.3 1-45.7 14-.2-1z"/>
    <path d="M690.5 218.2l7.6 17-.8.5-7.6-17z"/>
    <path d="M637.8 207.4l52.4 10.6-.2 1-52.4-10.6zM728.4 182.8l.3 1L662 204l-.3-1z"/>
    <path d="M662.2 203.4l36 31.8-.8.8-36-32z"/>
    <path d="M638 207.4l60 27.7-.4 1-60-27.7zM728 183.3h1l-1.4 29h-1z"/>
    <path d="M728 183l1 .6-31 52.2-.8-.5z"/>
    <path d="M698 235.3l21 27.6-1 .5-20.8-27.6z"/>
    <path d="M741.3 242l.7.7-23 20.8-.8-.7z"/>
    <path d="M727.6 212l14.5 30.2-.8.4-14.5-30.2z"/>
    <path d="M727 211.7l.5.8L698 236l-.6-1z"/>
    <path d="M697.8 235l44 6.8-.2 1-44-6.8z"/>
    <path d="M741.4 241.8l.5 1-59.5 26.8-.4-1z"/>
    <path d="M718.5 262.7l.2 1-36.2 6v-1z"/>
    <path d="M726.6 212l1 .2-8.6 51h-1z"/>
    <path d="M726.7 211.8l.8.6-44.6 57-1-.6z"/>
    <path d="M697.2 235.3l1 .4-15.4 33.6-1-.4z"/>
    <path d="M697.4 235.2l.6.8-76.7 52.7-.6-.8zM681 332.8l3.7 26h-1L680 333z"/>
    <path d="M691 338.7l1 .3-7.3 20-1-.4z"/>
    <path d="M685.4 321.4l6.7 17.3-.8.3-6.7-17.2z"/>
    <path d="M693.3 316l.6.8-9 5.3-.4-.8z"/>
    <path d="M713.6 312l.2 1-20 3.8-.3-1z"/>
    <path d="M731 288.7l.8.6L714 313l-.8-.7z"/>
    <path d="M732 289l.2 15.2h-1L731 289z"/>
    <path d="M731.6 303.7l.4 1-18 8.3-.6-1z"/>
    <path d="M714 312.3l17 19.7-.7.7-17-19.8z"/>
    <path d="M730.3 332.3l1 .3-17 45-1-.5z"/>
    <path d="M740.5 341l.8.5-27 36-.8-.6z"/>
    <path d="M731 332l10.3 9-.7.7-10.2-8.8zM680.8 332.5l11 6-.4.8-11-6z"/>
    <path d="M684.4 321.4l1 .4-4.5 11.3-1-.2z"/>
    <path d="M685 321v1l-15.6 3-.2-1z"/>
    <path d="M693.5 315.8l.3 1-24.4 8-.3-1z"/>
    <path d="M695 299.8h1l-2 16.6-1-.2z"/>
    <path d="M695 292.4h1v7.5h-1z"/>
    <path d="M695.5 292l.2 1-41.8 6.4-.3-1z"/>
    <path d="M652.4 249.4l1.8 49.5h-1l-1.8-49.5z"/>
    <path d="M654.2 298.6l15.5 25.5-1 .6-15.4-25.5z"/>
    <path d="M695 292l1 .7-26.4 32-.7-.6z"/>
    <path d="M695 292.2l1 .4-10.7 29.2-1-.3z"/>
    <path d="M652.4 249.2l33 72-1 .5-33-72z"/>
    <path d="M652.2 249l30.5 19.7-.6.8-30.4-19.6z"/>
    <path d="M682.6 268.6l42 17.4-.2 1-42.2-17.5z"/>
    <path d="M719 263l6 23.5-1 .2-6-23.4z"/>
    <path d="M718 262.8l1 .7-23 29.2-1-.6z"/>
    <path d="M682.8 269l13.2 23-1 .6-13-23.2z"/>
    <path d="M683 269l2.4 52.5h-1l-2.5-52.4z"/>
    <path d="M654 298.5l31.2 22.7-.6.8-31-22.7zM724.3 286l.4 1-29 13.3-.4-1z"/>
    <path d="M724.7 286l7 2.4-.4 1-7-2.4z"/>
    <path d="M719 263l12.8 25.7-1 .5-12.8-25.8z"/>
    <path d="M718 263.2h1l-5 49.5h-.8z"/>
    <path d="M696 292l18 20.3-.7.7-18-20.3z"/>
    <path d="M695.7 292l36.2 11.7-.4 1-36.2-11.8z"/>
    <path d="M725 286.4L732 304l-1 .4-7.2-17.6z"/>
    <path d="M724.2 286.2l.7.7-31 29.7-.7-.7zM695.2 299.5l.7.8-26.4 24.4-.7-.7z"/>
    <path d="M653.8 298.4l41.8 1v1l-41.8-1z"/>
    <path d="M654 298.4l40 17.5-.5.8-40-17.5z"/>
    <path d="M693 316.3h1l-2 22.6-1-.2zM684.6 358.6l9.3 23.2-1 .4-9.3-23.3z"/>
    <path d="M713.8 376.8l.2 1-20.3 4.7-.3-1z"/>
    <path d="M713.3 377l1 .2-1.3 11.4h-1z"/>
    <path d="M693.7 381.6l19 6.5-.2 1-19-6.5z"/>
    <path d="M730.3 332l.8.7-37 49.6-.8-.6zM742.5 386.8v1l-29.8 1.2v-1z"/>
    <path d="M743 387l12 11-.6 1-12.2-11.2z"/>
    <path d="M712.7 388l42 10-.2 1-42-10zM741.2 242.3h1L742 265h-1z"/>
    <path d="M741.8 264.6l5 6-.6.8-5.2-6zM746.8 270.6l19.2 7-.4.8-19.2-7z"/>
    <path d="M765.7 277.6l.2 1-12.5 3-.2-1z"/>
    <path d="M747 270.8l6.7 10-.8.6-7-10zM774.2 275.2l.2 1-8.5 2.2-.3-1z"/>
    <path d="M746.7 270.6l27.6 4.6v1l-27.8-4.6z"/>
    <path d="M742.2 242.2L747 271h-1l-4.8-28.7z"/>
    <path d="M764 232l.3 1-22.5 9.8-.4-1z"/>
    <path d="M747 218.7l17.5 13.3-.6.8-17.7-13.3z"/>
    <path d="M727.3 211.6l19.4 7-.3 1-19.5-7z"/>
    <path d="M727.4 211.7l37 20.3-.4 1-37-20.4z"/>
    <path d="M764.2 232v1l-66.5 3v-1z"/>
    <path d="M698 235l43.7 29.5-.5.8-43.8-29.4zM778.6 253.5l1 .2-5 22.2-1-.3z"/>
    <path d="M778.6 253.3l1 .4L766 278l-1-.3z"/>
    <path d="M783.6 222.5l1 .2-5 31-1-.3z"/>
    <path d="M784 222.2l.4 1-20 9.7-.4-1zM778.7 253l.8.8-25.8 27.5-.7-.7zM773.7 111l1 .4-21.5 61.7-1-.2z"/>
    <path d="M827.2 132.5l.4 1-74.6 40-.5-1z"/>
    <path d="M827.7 132.5l12.5 7.7-.5.8-12.5-7.7z"/>
    <path d="M850.7 128.7l.7.7-11.2 11.6-.7-.7z"/>
    <path d="M851 128.5l.2 1-23.7 4-.2-1z"/>
    <path d="M774.4 110.8l53.2 21.7-.4 1-53.2-21.8z"/>
    <path d="M773.8 111l.8.6-51.5 56.2-.7-.6z"/>
    <path d="M750 113.2l3.3 59.8h-1l-3.4-59.7z"/>
    <path d="M722.8 167l30 5.5v1l-30-5.6z"/>
    <path d="M827.3 132.5l.3 1L723 167.8l-.4-1z"/>
    <path d="M749.6 112.7l78 19.8-.2 1-78-19.8zM753 172.5l48.5 12.8-.3 1-48.6-12.8z"/>
    <path d="M832 183v1l-30.6 2.3v-1z"/>
    <path d="M831.6 183.2l.7.7-16.2 16.3-.6-.7z"/>
    <path d="M816 199.8l6.5 15.7-1 .4-6.3-15.8z"/>
    <path d="M831.4 183.3l1 .3-9.8 32.2-1-.3z"/>
    <path d="M839.4 140.6l1 .2-8 43-1-.3z"/>
    <path d="M839.6 140.3l.8.7-38.6 45.2-.7-.7z"/>
    <path d="M728.5 182.8l73 2.5v1l-73-2.5z"/>
    <path d="M729 183l18 35.8-1 .4-18-35.7z"/>
    <path d="M746.6 218.6l37.6 3.6v1l-37.7-3.6z"/>
    <path d="M801 185.6l1 .5-17.4 37-1-.5z"/>
    <path d="M801 185.4l.7.8-54.8 33.3-.6-.8z"/>
    <path d="M752.3 173h1l-6.2 46.2-1-.2zM851.6 128.7l17 31-1 .6-17-31z"/>
    <path d="M867.8 159.7l.5.8-36 23.5-.7-.8z"/>
    <path d="M850.6 129l1 .2-19.2 54.5-1-.3z"/>
    <path d="M840.2 140.2l28.2 19.4-.6.8-28-19.4z"/>
    <path d="M868 159.6v1l-115 13-.3-1z"/>
    <path d="M752.8 172.5L832 183v1l-79.3-10.5zM867.6 159.7l.8.7-46 55.7-.6-.5z"/>
    <path d="M753.2 172.7l31.4 49.6-1 .6-31.2-49.8zM755 398l21.5 21.8-.7.7-21.5-21.7z"/>
    <path d="M789 407.3l.7.8-13.2 12.4-.7-.7z"/>
    <path d="M789.8 407.5l12.4 17-.8.5-12.4-17z"/>
    <path d="M802 424.4l7.8 11.4-.8.5-7.7-11.3z"/>
    <path d="M809 435.8l1 .3-5.5 18.3-1-.2z"/>
    <path d="M803.7 454l.6.7-7.3 5.6-.6-.8z"/>
    <path d="M796.5 459.5l.6.8-7 6-.6-.8z"/>
    <path d="M780 464.5l9.7.8v1l-9.7-.8z"/>
    <path d="M771.7 452l8.7 12.7-.8.5-8.7-12.6z"/>
    <path d="M733 448.5l38.3 3.3v1l-38.4-3.3z"/>
    <path d="M719 448l14 .5v1l-14-.6z"/>
    <path d="M722.6 418.5l1 .2-4 30-1-.2z"/>
    <path d="M754.4 398l.5 1-31.7 20-.5-1z"/>
    <path d="M755 398.4l7.5 28-1 .4-7.4-28.2z"/>
    <path d="M762.4 426.4l20 26.6-.7.6-20-26.6z"/>
    <path d="M801.4 424.4l.8.6-19.6 28.6-.8-.5z"/>
    <path d="M801.3 424.6l1 .2-5 35h-1z"/>
    <path d="M776.6 420l20.6 39.6-1 .5-20.5-39.6z"/>
    <path d="M775.6 420l1 .2-4.8 32.2-1-.2z"/>
    <path d="M723.4 418l48.3 34-.6.7L723 419z"/>
    <path d="M723.2 418l39 8.2-.3 1-39-8.2z"/>
    <path d="M776 419.7l.3 1-14 6.4-.5-.8z"/>
    <path d="M776.2 419.7l25.6 4.5-.2 1-25.6-4.6z"/>
    <path d="M802.2 424.7l2.3 29.6h-1l-2.3-29.5z"/>
    <path d="M782.2 452.8l21.8 1v1l-21.8-1z"/>
    <path d="M782.6 453l7.4 12.5-1 .5-7.2-12.5z"/>
    <path d="M771.6 452l18.2 13.4-.5.8-18.3-13.5z"/>
    <path d="M771.3 451.8l11 1-.2 1-10.8-1z"/>
    <path d="M781.6 453.2l1 .2-2 11.7h-1z"/>
    <path d="M776.6 420.2l4 44.8h-1l-4-44.7z"/>
    <path d="M723 418l53.2 1.6v1l-53-1.6z"/>
    <path d="M723.5 418.3l10 30.6-1 .2-10-30.6z"/>
    <path d="M761.7 426.3l.6.8-29 22.5-.6-.8z"/>
    <path d="M762.5 426.4l9.3 25.8-1 .3-9.2-25.8z"/>
    <path d="M801.5 424.4l.6.7-30.3 27.8-.6-.7z"/>
    <path d="M790 407.7v58h-1v-58z"/>
    <path d="M809 435.7l.8.5L790 466l-.8-.5z"/>
    <path d="M809.3 435.6l.2 1-76.4 13v-1z"/>
    <path d="M754 398.3l1 .4-21.7 50.6-1-.4z"/>
    <path d="M754.2 398l.8.7-35.6 50-.8-.6zM790 465.8l3 16.7h-1l-3-16.5z"/>
    <path d="M792.6 482l50 11v.8L792.2 483z"/>
    <path d="M850 491l.3.8-7.5 2-.3-1z"/>
    <path d="M854.2 483l1 .5-4.6 8-1-.4z"/>
    <path d="M859.8 476.5l.8.6-5.5 6.6-.7-.7z"/>
    <path d="M861.5 465.8l1 .2-1.8 11-1-.2z"/>
    <path d="M861.5 465.6l1 .6-19.4 27.5-.8-.6z"/>
    <path d="M861.4 465.6l1 .4-7.3 17.5-1-.4z"/>
    <path d="M854.4 482.8l.7.8-12 10-.6-.6zM788.7 179.4l.5.7-1 .7-.4-.8z"/>
    <path d="M788.8 179.3l1 1.4-1 .6-1-1.4zM282.4 246.2l121.7 53-.3 1-121.7-53z"/>
    <path d="M426.3 233.6l.2 1L257.3 260l-.2-1z"/>
    <path d="M425 233.8v1L249.8 266l-.2-1z"/>
    <path d="M264 253l150.7 12.6v1L264 254zM132.6 111l79 18.4-.2 1-79-18.4z"/>
    <path d="M268.4 72.4l.7.7-57.2 57.3-.7-.8zM793 390.5l1 .2-4.2 17.2-1-.4z"/>
    <path d="M786.4 379.7l7.5 10.6-1 .6-7.4-10.7z"/>
    <path d="M786.4 380l3.4 27.8h-1l-3.4-27.7z"/>
  </g>
</svg>
