<svg version="1.1"
	 xmlns="http://www.w3.org/2000/svg" xmlns:xlink="http://www.w3.org/1999/xlink"
	 x="0px" y="0px" width="107px" height="82px" viewBox="0 0 107 82" overflow="visible" enable-background="new 0 0 107 82"
	 xml:space="preserve">

<path d="M19.438,69.388c-0.204,0-0.41-0.042-0.604-0.127c-0.532-0.234-0.881-0.756-0.895-1.337l-0.278-11.616H3.056
	C1.371,56.308,0,54.939,0,53.255V3.054C0,1.37,1.371,0,3.056,0h77.77c1.684,0,3.053,1.37,3.053,3.054v31.641
	c0,0.829-0.672,1.5-1.5,1.5s-1.5-0.671-1.5-1.5V3.054L3.056,3L3,53.255l16.125,0.053c0.814,0,1.48,0.649,1.5,1.464l0.237,9.886
	l12.594-10.98c0.273-0.238,0.624-0.369,0.986-0.369h14.27c0.829,0,1.5,0.672,1.5,1.5s-0.671,1.5-1.5,1.5H35.003L20.424,69.019
	C20.146,69.261,19.793,69.388,19.438,69.388z"/>
<path d="M93.482,82.331c-0.355,0-0.707-0.127-0.985-0.369l-10.004-8.719H50.818c-1.422,0-2.579-1.157-2.579-2.58
	V35.771c0-1.42,1.157-2.576,2.579-2.576h54.05c1.421,0,2.577,1.156,2.577,2.576v34.892c0,1.423-1.156,2.58-2.577,2.58h-9.705
	l-0.181,7.623c-0.015,0.582-0.363,1.103-0.896,1.338C93.894,82.289,93.688,82.331,93.482,82.331z M51.239,70.243h31.815
	c0.362,0,0.712,0.131,0.985,0.369l8.019,6.988l0.14-5.893c0.02-0.814,0.686-1.465,1.5-1.465h10.747V36.194H51.239V70.243z"/>
</svg>
