<svg version="1.1"
	 xmlns="http://www.w3.org/2000/svg" xmlns:xlink="http://www.w3.org/1999/xlink" 
	 x="0px" y="0px" width="82px" height="82px" viewBox="0 0 82 82" overflow="visible" enable-background="new 0 0 82 82"
	 xml:space="preserve">

<path d="M44.165,3l2.146,7.193c0.258,0.866,0.891,1.568,1.724,1.914l8.03,3.336c0.369,0.154,0.76,0.229,1.151,0.229
	c0.49,0,0.981-0.119,1.427-0.359l6.602-3.572l2.35,2.346l2.349,2.351L66.37,23.04c-0.429,0.794-0.479,1.739-0.134,2.573l3.319,8.039
	c0.345,0.836,1.05,1.472,1.917,1.73l7.191,2.141v3.322v3.32l-7.19,2.143c-0.865,0.258-1.568,0.891-1.915,1.725l-3.336,8.03
	c-0.349,0.836-0.3,1.784,0.132,2.58l3.57,6.601l-2.35,2.351l-2.348,2.347l-6.604-3.571c-0.442-0.24-0.935-0.359-1.427-0.359
	c-0.388,0-0.778,0.073-1.146,0.228l-8.036,3.32c-0.838,0.346-1.473,1.048-1.729,1.916l-2.144,7.191H40.82h-3.321l-2.143-7.19
	c-0.257-0.865-0.893-1.568-1.726-1.914l-8.028-3.336c-0.369-0.153-0.763-0.229-1.151-0.229c-0.492,0-0.984,0.121-1.427,0.36
	l-6.603,3.572l-2.348-2.35l-2.352-2.35l3.573-6.603c0.428-0.794,0.479-1.737,0.133-2.571L12.11,48.02
	c-0.346-0.836-1.049-1.473-1.916-1.729L3,44.146v-3.323v-3.32l7.193-2.143c0.865-0.256,1.566-0.89,1.914-1.723l3.336-8.032
	c0.347-0.834,0.299-1.783-0.132-2.578l-3.571-6.601l2.348-2.348l2.349-2.349l6.602,3.573c0.444,0.238,0.936,0.359,1.427,0.359
	c0.39,0,0.779-0.075,1.147-0.226l8.038-3.321c0.836-0.345,1.472-1.05,1.729-1.917l2.143-7.192h3.319h3.324 M46.401,0h-5.558h-5.559
	l-2.779,9.336l-8.038,3.32L15.898,8.02l-3.93,3.931l-3.93,3.928l4.636,8.568l-3.336,8.032L0,35.26v5.556v5.559l9.338,2.783
	l3.318,8.035L8.02,65.762l3.931,3.932l3.93,3.93l8.568-4.635l8.03,3.336l2.781,9.336h5.558h5.558l2.782-9.336l8.038-3.32
	l8.568,4.637l3.93-3.93l3.931-3.932l-4.636-8.568l3.336-8.029l9.336-2.779v-5.559v-5.561l-9.337-2.779l-3.317-8.037l4.636-8.569
	l-3.929-3.931l-3.934-3.93l-8.565,4.636l-8.031-3.337L46.401,0z"/>
<path d="M40.833,25.086c8.683,0,15.744,7.063,15.744,15.744c0,8.682-7.062,15.742-15.744,15.742
	c-8.682,0-15.742-7.062-15.742-15.742C25.088,32.149,32.15,25.086,40.833,25.086 M40.833,22.086
	c-10.353,0-18.742,8.395-18.742,18.744c0,10.351,8.391,18.742,18.742,18.742c10.354,0,18.744-8.393,18.744-18.742
	C59.576,30.479,51.185,22.086,40.833,22.086"/>
</svg>
